<svg xmlns="http://www.w3.org/2000/svg" version="1.1" style="font-family:Lato, &#x27;Helvetica Neue&#x27;, Helvetica, Arial, sans-serif;font-size:18px;background-color:white;text-rendering:geometricPrecision;-webkit-font-smoothing:antialiased" width="850" height="600" viewBox="0 0 850 600"><g class="HeaderView"><g transform="translate(774, 15) scale(0.29)"><svg className="owidLog" width="210" height="120" viewBox="0 0 210 120" fill="none" xmlns="http://www.w3.org/2000/svg">
<g clip-path="url(#clip0)">
  <path d="M0 0h210v107.89H0V0z" fill="#002147" />
  <path
    d="M40.98 32.25c0 2.36-.38 4.53-1.12 6.51a14.26 14.26 0 0 1-8.1 8.4c-1.9.78-4.02 1.17-6.34 1.17-2.31 0-4.42-.39-6.33-1.17a14.31 14.31 0 0 1-8.08-8.4 18.29 18.29 0 0 1-1.12-6.51c0-2.36.38-4.53 1.12-6.5.75-1.97 1.8-3.67 3.17-5.1a14.32 14.32 0 0 1 4.9-3.34c1.92-.8 4.03-1.19 6.34-1.19 2.32 0 4.43.4 6.34 1.19 1.92.8 3.56 1.9 4.93 3.34a14.87 14.87 0 0 1 3.17 5.1 18.1 18.1 0 0 1 1.12 6.5zm-4.38 0c0-1.94-.26-3.68-.8-5.22a10.91 10.91 0 0 0-2.24-3.89 9.68 9.68 0 0 0-3.52-2.46 11.95 11.95 0 0 0-4.62-.86c-1.68 0-3.21.28-4.6.86a9.88 9.88 0 0 0-3.54 2.46 10.91 10.91 0 0 0-2.24 3.9c-.53 1.53-.8 3.27-.8 5.2 0 1.94.27 3.68.8 5.22a11.17 11.17 0 0 0 2.24 3.9 10.01 10.01 0 0 0 3.55 2.44c1.38.56 2.9.83 4.6.83s3.24-.27 4.61-.83a9.8 9.8 0 0 0 3.52-2.44 11.17 11.17 0 0 0 2.25-3.9c.53-1.54.8-3.28.8-5.21zm26.22-6.54V48H60.5c-.56 0-.9-.27-1.05-.81l-.31-2.4a12.45 12.45 0 0 1-3.26 2.6c-1.2.64-2.58.96-4.13.96-1.22 0-2.3-.2-3.24-.6a6.52 6.52 0 0 1-2.33-1.7 7.37 7.37 0 0 1-1.43-2.67c-.3-1.04-.46-2.2-.46-3.45V25.7h3.91v14.22c0 1.68.38 2.99 1.15 3.91.77.93 1.96 1.39 3.54 1.39 1.16 0 2.24-.27 3.23-.82a10.42 10.42 0 0 0 2.8-2.28V25.7h3.91zm8.61 4.47a9.94 9.94 0 0 1 2.6-3.56 5.64 5.64 0 0 1 3.76-1.3c.47 0 .92.05 1.34.15.44.1.83.27 1.17.49l-.3 2.92c-.09.37-.3.55-.66.55-.2 0-.5-.04-.9-.13a6.21 6.21 0 0 0-3.24.18 4.23 4.23 0 0 0-1.47.92c-.42.4-.81.9-1.17 1.5-.33.58-.64 1.26-.92 2.02V48H67.7V25.71h2.25c.42 0 .72.08.88.25.16.16.27.44.33.83l.26 3.39zm61.16-13.7L122.75 48h-3.82l-7.99-24.05a21.95 21.95 0 0 1-.42-1.58 38.36 38.36 0 0 1-.44 1.58L102.05 48h-3.83L88.4 16.47h3.54c.38 0 .7.1.95.29.26.2.43.43.5.73l6.52 21.9.28 1.28.29 1.46.3-1.46.38-1.27 7.41-21.91c.1-.25.26-.48.51-.69.27-.22.58-.33.95-.33h1.23c.38 0 .69.1.92.29a1.77 1.77 0 0 1 .53.73l7.4 21.9a28.4 28.4 0 0 1 .68 2.62 29.52 29.52 0 0 1 .52-2.61l6.54-21.91a1.31 1.31 0 0 1 .48-.7c.27-.21.58-.32.95-.32h3.32zm9.35 8.88c1.63 0 3.1.27 4.4.82a9.43 9.43 0 0 1 5.46 5.94c.5 1.4.74 2.98.74 4.73 0 1.76-.25 3.34-.74 4.75a9.43 9.43 0 0 1-5.46 5.92c-1.3.52-2.77.79-4.4.79-1.64 0-3.12-.27-4.44-.8a9.42 9.42 0 0 1-3.35-2.3c-.92-1-1.63-2.2-2.13-3.61-.49-1.41-.73-3-.73-4.75s.24-3.33.73-4.73c.5-1.43 1.2-2.64 2.13-3.63.93-1 2.04-1.77 3.35-2.31 1.32-.55 2.8-.82 4.44-.82zm0 19.89c2.2 0 3.84-.73 4.93-2.2 1.08-1.48 1.63-3.54 1.63-6.18 0-2.66-.55-4.72-1.63-6.2-1.09-1.49-2.73-2.23-4.93-2.23-1.12 0-2.09.2-2.93.57a5.71 5.71 0 0 0-2.06 1.65c-.55.72-.96 1.61-1.24 2.67-.26 1.04-.4 2.22-.4 3.54 0 2.64.55 4.7 1.64 6.18 1.1 1.47 2.76 2.2 4.99 2.2zm17.97-15.07a9.94 9.94 0 0 1 2.6-3.56 5.64 5.64 0 0 1 3.76-1.3c.47 0 .91.05 1.34.15.44.1.83.27 1.16.49l-.28 2.92c-.09.37-.31.55-.66.55-.2 0-.5-.04-.9-.13a6.2 6.2 0 0 0-3.24.18 4.23 4.23 0 0 0-1.47.92c-.43.4-.82.9-1.17 1.5a13.1 13.1 0 0 0-.92 2.02V48h-3.94V25.71h2.24c.43 0 .72.08.88.25.17.16.28.44.33.83l.27 3.39zm15.04-14.59V48h-3.92V15.6h3.92zm19.55 15.43a6.22 6.22 0 0 0-2.38-2.05 6.7 6.7 0 0 0-2.86-.6c-2.07 0-3.66.75-4.77 2.23-1.12 1.48-1.68 3.6-1.68 6.33 0 1.46.13 2.7.38 3.74a7.29 7.29 0 0 0 1.1 2.56 4.35 4.35 0 0 0 1.78 1.45c.7.3 1.5.46 2.4.46 1.29 0 2.41-.3 3.36-.88a9.6 9.6 0 0 0 2.67-2.49V31.02zm3.91-15.43V48h-2.33c-.56 0-.9-.27-1.06-.81l-.35-2.71a12.13 12.13 0 0 1-3.25 2.77 8.28 8.28 0 0 1-4.23 1.06 7.31 7.31 0 0 1-6.14-2.9c-.73-.96-1.3-2.15-1.69-3.57a18.35 18.35 0 0 1 .07-9.48 11.29 11.29 0 0 1 1.89-3.7 8.7 8.7 0 0 1 7.06-3.34 7.96 7.96 0 0 1 6.12 2.62V15.59h3.91zM46.61 70.71V93H42.7V70.71h3.91zm.84-7c0 .39-.08.75-.24 1.09-.15.32-.35.61-.62.88-.25.25-.55.44-.9.59a2.67 2.67 0 0 1-2.16 0 2.9 2.9 0 0 1-1.45-1.47 2.67 2.67 0 0 1 0-2.16c.15-.35.35-.65.6-.9.25-.27.53-.47.85-.62a2.67 2.67 0 0 1 2.16 0c.35.15.65.35.9.62.27.25.47.55.62.9.16.34.24.7.24 1.08zm7.97 10.24c.49-.54 1-1.04 1.54-1.48a9.85 9.85 0 0 1 3.66-1.84 8.96 8.96 0 0 1 5.43.35c.94.4 1.72.97 2.33 1.71.63.74 1.11 1.62 1.43 2.67.32 1.04.49 2.19.49 3.45V93h-3.94V78.81c0-1.69-.4-3-1.17-3.92-.76-.93-1.93-1.4-3.5-1.4-1.15 0-2.24.27-3.25.83-1 .56-1.92 1.31-2.77 2.27V93h-3.94V70.71h2.35c.56 0 .9.28 1.04.82l.3 2.42zm57.7 3.3c0 2.36-.37 4.5-1.11 6.44a14.3 14.3 0 0 1-3.17 4.98c-1.37 1.37-3 2.45-4.93 3.2-1.9.76-4.02 1.13-6.33 1.13H85.8V61.47h11.77c2.31 0 4.42.39 6.33 1.15a13.8 13.8 0 0 1 8.1 8.18 17.75 17.75 0 0 1 1.12 6.45zm-4.37 0c0-1.94-.26-3.67-.8-5.2a10.94 10.94 0 0 0-2.23-3.87 9.57 9.57 0 0 0-3.53-2.42 12.23 12.23 0 0 0-4.61-.83h-7.5v24.62h7.5c1.7 0 3.24-.28 4.61-.84a9.7 9.7 0 0 0 3.53-2.4 10.94 10.94 0 0 0 2.24-3.87c.53-1.53.8-3.26.8-5.2zm19.8 5.72c-1.8.06-3.34.2-4.62.44-1.26.22-2.3.51-3.1.88-.8.36-1.37.8-1.74 1.3-.35.5-.53 1.05-.53 1.67 0 .58.1 1.1.3 1.52a3 3 0 0 0 .76 1.05c.34.27.73.46 1.17.6a6.13 6.13 0 0 0 1.45.17 7.28 7.28 0 0 0 3.5-.81 11.95 11.95 0 0 0 2.82-2.2v-4.62zm-12.65-9.11a12.73 12.73 0 0 1 3.98-2.66c1.43-.59 3-.88 4.73-.88 1.25 0 2.36.2 3.33.61a6.81 6.81 0 0 1 3.94 4.38c.33 1.04.5 2.19.5 3.43V93h-1.74a1.8 1.8 0 0 1-.88-.18c-.2-.13-.36-.38-.48-.74l-.44-2.12-1.72 1.46a9.48 9.48 0 0 1-3.74 1.7c-.69.15-1.46.23-2.3.23-.87 0-1.69-.12-2.45-.35a5.34 5.34 0 0 1-3.34-2.93 6.64 6.64 0 0 1-.49-2.64c0-.88.25-1.72.73-2.53a6.33 6.33 0 0 1 2.35-2.17c1.09-.63 2.5-1.15 4.25-1.54 1.75-.41 3.89-.65 6.42-.7v-1.75c0-1.73-.37-3.03-1.12-3.91-.75-.9-1.84-1.34-3.28-1.34-.97 0-1.78.12-2.44.37-.64.23-1.2.5-1.7.81l-1.23.82c-.33.23-.67.35-1 .35-.27 0-.5-.07-.69-.2a2.1 2.1 0 0 1-.48-.53l-.7-1.25zm27.67 19.5c-1.76 0-3.12-.5-4.07-1.48-.94-.98-1.41-2.4-1.41-4.25V74h-2.68a.9.9 0 0 1-.6-.2c-.16-.14-.24-.36-.24-.66v-1.56l3.65-.46.9-6.89c.05-.22.14-.4.29-.52a.88.88 0 0 1 .62-.22H142v7.67h6.44V74H142v13.38c0 .94.22 1.63.68 2.09.45.45 1.04.68 1.76.68a3.21 3.21 0 0 0 1.85-.53l.55-.35c.16-.12.3-.18.41-.18.2 0 .4.13.55.38l1.15 1.87a7.45 7.45 0 0 1-2.44 1.5 8.53 8.53 0 0 1-2.95.52zm19.68-10.4c-1.8.07-3.34.21-4.62.45-1.26.22-2.3.51-3.1.88-.8.36-1.37.8-1.74 1.3-.35.5-.53 1.05-.53 1.67 0 .58.1 1.1.3 1.52a2.9 2.9 0 0 0 .76 1.05c.34.27.73.46 1.17.6a6.13 6.13 0 0 0 1.45.17 7.3 7.3 0 0 0 3.5-.81 12.04 12.04 0 0 0 2.82-2.2v-4.62zm-12.65-9.1a12.72 12.72 0 0 1 3.99-2.66c1.42-.59 3-.88 4.72-.88 1.25 0 2.36.2 3.33.61a6.81 6.81 0 0 1 3.94 4.38c.33 1.04.5 2.19.5 3.43V93h-1.74a1.8 1.8 0 0 1-.88-.18c-.2-.13-.36-.38-.48-.74l-.44-2.12-1.72 1.46a9.48 9.48 0 0 1-3.74 1.7c-.69.15-1.46.23-2.3.23-.87 0-1.69-.12-2.45-.35a5.33 5.33 0 0 1-3.34-2.93 6.62 6.62 0 0 1-.49-2.64c0-.88.25-1.72.73-2.53a6.33 6.33 0 0 1 2.35-2.17c1.09-.63 2.5-1.15 4.25-1.54 1.74-.41 3.89-.65 6.42-.7v-1.75c0-1.73-.37-3.03-1.12-3.91-.75-.9-1.84-1.34-3.28-1.34-.97 0-1.78.12-2.44.37-.64.23-1.2.5-1.7.81l-1.22.82c-.34.23-.68.35-1.02.35-.26 0-.49-.07-.68-.2a1.88 1.88 0 0 1-.48-.53l-.7-1.25zM40.98 32.25c0 2.36-.38 4.53-1.12 6.51a14.26 14.26 0 0 1-8.1 8.4c-1.9.78-4.02 1.17-6.34 1.17-2.31 0-4.42-.39-6.33-1.17a14.31 14.31 0 0 1-8.08-8.4 18.29 18.29 0 0 1-1.12-6.51c0-2.36.38-4.53 1.12-6.5.75-1.97 1.8-3.67 3.17-5.1a14.32 14.32 0 0 1 4.9-3.34c1.92-.8 4.03-1.19 6.34-1.19 2.32 0 4.43.4 6.34 1.19 1.92.8 3.56 1.9 4.93 3.34a14.87 14.87 0 0 1 3.17 5.1 18.1 18.1 0 0 1 1.12 6.5zm-4.38 0c0-1.94-.26-3.68-.8-5.22a10.91 10.91 0 0 0-2.24-3.89 9.68 9.68 0 0 0-3.52-2.46 11.95 11.95 0 0 0-4.62-.86c-1.68 0-3.21.28-4.6.86a9.88 9.88 0 0 0-3.54 2.46 10.91 10.91 0 0 0-2.24 3.9c-.53 1.53-.8 3.27-.8 5.2 0 1.94.27 3.68.8 5.22a11.17 11.17 0 0 0 2.24 3.9 10.01 10.01 0 0 0 3.55 2.44c1.38.56 2.9.83 4.6.83s3.24-.27 4.61-.83a9.8 9.8 0 0 0 3.52-2.44 11.17 11.17 0 0 0 2.25-3.9c.53-1.54.8-3.28.8-5.21zm26.22-6.54V48H60.5c-.56 0-.9-.27-1.05-.81l-.31-2.4a12.45 12.45 0 0 1-3.26 2.6c-1.2.64-2.58.96-4.13.96-1.22 0-2.3-.2-3.24-.6a6.52 6.52 0 0 1-2.33-1.7 7.37 7.37 0 0 1-1.43-2.67c-.3-1.04-.46-2.2-.46-3.45V25.7h3.91v14.22c0 1.68.38 2.99 1.15 3.91.77.93 1.96 1.39 3.54 1.39 1.16 0 2.24-.27 3.23-.82a10.42 10.42 0 0 0 2.8-2.28V25.7h3.91zm8.61 4.47a9.94 9.94 0 0 1 2.6-3.56 5.64 5.64 0 0 1 3.76-1.3c.47 0 .92.05 1.34.15.44.1.83.27 1.17.49l-.3 2.92c-.09.37-.3.55-.66.55-.2 0-.5-.04-.9-.13a6.21 6.21 0 0 0-3.24.18 4.23 4.23 0 0 0-1.47.92c-.42.4-.81.9-1.17 1.5-.33.58-.64 1.26-.92 2.02V48H67.7V25.71h2.25c.42 0 .72.08.88.25.16.16.27.44.33.83l.26 3.39zm61.16-13.7L122.75 48h-3.82l-7.99-24.05a21.95 21.95 0 0 1-.42-1.58 38.36 38.36 0 0 1-.44 1.58L102.05 48h-3.83L88.4 16.47h3.54c.38 0 .7.1.95.29.26.2.43.43.5.73l6.52 21.9.28 1.28.29 1.46.3-1.46.38-1.27 7.41-21.91c.1-.25.26-.48.51-.69.27-.22.58-.33.95-.33h1.23c.38 0 .69.1.92.29a1.77 1.77 0 0 1 .53.73l7.4 21.9a28.4 28.4 0 0 1 .68 2.62 29.52 29.52 0 0 1 .52-2.61l6.54-21.91a1.31 1.31 0 0 1 .48-.7c.27-.21.58-.32.95-.32h3.32zm9.35 8.88c1.63 0 3.1.27 4.4.82a9.43 9.43 0 0 1 5.46 5.94c.5 1.4.74 2.98.74 4.73 0 1.76-.25 3.34-.74 4.75a9.43 9.43 0 0 1-5.46 5.92c-1.3.52-2.77.79-4.4.79-1.64 0-3.12-.27-4.44-.8a9.42 9.42 0 0 1-3.35-2.3c-.92-1-1.63-2.2-2.13-3.61-.49-1.41-.73-3-.73-4.75s.24-3.33.73-4.73c.5-1.43 1.2-2.64 2.13-3.63.93-1 2.04-1.77 3.35-2.31 1.32-.55 2.8-.82 4.44-.82zm0 19.89c2.2 0 3.84-.73 4.93-2.2 1.08-1.48 1.63-3.54 1.63-6.18 0-2.66-.55-4.72-1.63-6.2-1.09-1.49-2.73-2.23-4.93-2.23-1.12 0-2.09.2-2.93.57a5.71 5.71 0 0 0-2.06 1.65c-.55.72-.96 1.61-1.24 2.67-.26 1.04-.4 2.22-.4 3.54 0 2.64.55 4.7 1.64 6.18 1.1 1.47 2.76 2.2 4.99 2.2zm17.97-15.07a9.94 9.94 0 0 1 2.6-3.56 5.64 5.64 0 0 1 3.76-1.3c.47 0 .91.05 1.34.15.44.1.83.27 1.16.49l-.28 2.92c-.09.37-.31.55-.66.55-.2 0-.5-.04-.9-.13a6.2 6.2 0 0 0-3.24.18 4.23 4.23 0 0 0-1.47.92c-.43.4-.82.9-1.17 1.5a13.1 13.1 0 0 0-.92 2.02V48h-3.94V25.71h2.24c.43 0 .72.08.88.25.17.16.28.44.33.83l.27 3.39zm15.04-14.59V48h-3.92V15.6h3.92zm19.55 15.43a6.22 6.22 0 0 0-2.38-2.05 6.7 6.7 0 0 0-2.86-.6c-2.07 0-3.66.75-4.77 2.23-1.12 1.48-1.68 3.6-1.68 6.33 0 1.46.13 2.7.38 3.74a7.29 7.29 0 0 0 1.1 2.56 4.35 4.35 0 0 0 1.78 1.45c.7.3 1.5.46 2.4.46 1.29 0 2.41-.3 3.36-.88a9.6 9.6 0 0 0 2.67-2.49V31.02zm3.91-15.43V48h-2.33c-.56 0-.9-.27-1.06-.81l-.35-2.71a12.13 12.13 0 0 1-3.25 2.77 8.28 8.28 0 0 1-4.23 1.06 7.31 7.31 0 0 1-6.14-2.9c-.73-.96-1.3-2.15-1.69-3.57a18.35 18.35 0 0 1 .07-9.48 11.29 11.29 0 0 1 1.89-3.7 8.7 8.7 0 0 1 7.06-3.34 7.96 7.96 0 0 1 6.12 2.62V15.59h3.91zM46.61 70.71V93H42.7V70.71h3.91zm.84-7c0 .39-.08.75-.24 1.09-.15.32-.35.61-.62.88-.25.25-.55.44-.9.59a2.67 2.67 0 0 1-2.16 0 2.9 2.9 0 0 1-1.45-1.47 2.67 2.67 0 0 1 0-2.16c.15-.35.35-.65.6-.9.25-.27.53-.47.85-.62a2.67 2.67 0 0 1 2.16 0c.35.15.65.35.9.62.27.25.47.55.62.9.16.34.24.7.24 1.08zm7.97 10.24c.49-.54 1-1.04 1.54-1.48a9.85 9.85 0 0 1 3.66-1.84 8.96 8.96 0 0 1 5.43.35c.94.4 1.72.97 2.33 1.71.63.74 1.11 1.62 1.43 2.67.32 1.04.49 2.19.49 3.45V93h-3.94V78.81c0-1.69-.4-3-1.17-3.92-.76-.93-1.93-1.4-3.5-1.4-1.15 0-2.24.27-3.25.83-1 .56-1.92 1.31-2.77 2.27V93h-3.94V70.71h2.35c.56 0 .9.28 1.04.82l.3 2.42zm57.7 3.3c0 2.36-.37 4.5-1.11 6.44a14.3 14.3 0 0 1-3.17 4.98c-1.37 1.37-3 2.45-4.93 3.2-1.9.76-4.02 1.13-6.33 1.13H85.8V61.47h11.77c2.31 0 4.42.39 6.33 1.15a13.8 13.8 0 0 1 8.1 8.18 17.75 17.75 0 0 1 1.12 6.45zm-4.37 0c0-1.94-.26-3.67-.8-5.2a10.94 10.94 0 0 0-2.23-3.87 9.57 9.57 0 0 0-3.53-2.42 12.23 12.23 0 0 0-4.61-.83h-7.5v24.62h7.5c1.7 0 3.24-.28 4.61-.84a9.7 9.7 0 0 0 3.53-2.4 10.94 10.94 0 0 0 2.24-3.87c.53-1.53.8-3.26.8-5.2zm19.8 5.72c-1.8.06-3.34.2-4.62.44-1.26.22-2.3.51-3.1.88-.8.36-1.37.8-1.74 1.3-.35.5-.53 1.05-.53 1.67 0 .58.1 1.1.3 1.52a3 3 0 0 0 .76 1.05c.34.27.73.46 1.17.6a6.13 6.13 0 0 0 1.45.17 7.28 7.28 0 0 0 3.5-.81 11.95 11.95 0 0 0 2.82-2.2v-4.62zm-12.65-9.11a12.73 12.73 0 0 1 3.98-2.66c1.43-.59 3-.88 4.73-.88 1.25 0 2.36.2 3.33.61a6.81 6.81 0 0 1 3.94 4.38c.33 1.04.5 2.19.5 3.43V93h-1.74a1.8 1.8 0 0 1-.88-.18c-.2-.13-.36-.38-.48-.74l-.44-2.12-1.72 1.46a9.48 9.48 0 0 1-3.74 1.7c-.69.15-1.46.23-2.3.23-.87 0-1.69-.12-2.45-.35a5.34 5.34 0 0 1-3.34-2.93 6.64 6.64 0 0 1-.49-2.64c0-.88.25-1.72.73-2.53a6.33 6.33 0 0 1 2.35-2.17c1.09-.63 2.5-1.15 4.25-1.54 1.75-.41 3.89-.65 6.42-.7v-1.75c0-1.73-.37-3.03-1.12-3.91-.75-.9-1.84-1.34-3.28-1.34-.97 0-1.78.12-2.44.37-.64.23-1.2.5-1.7.81l-1.23.82c-.33.23-.67.35-1 .35-.27 0-.5-.07-.69-.2a2.1 2.1 0 0 1-.48-.53l-.7-1.25zm27.67 19.5c-1.76 0-3.12-.5-4.07-1.48-.94-.98-1.41-2.4-1.41-4.25V74h-2.68a.9.9 0 0 1-.6-.2c-.16-.14-.24-.36-.24-.66v-1.56l3.65-.46.9-6.89c.05-.22.14-.4.29-.52a.88.88 0 0 1 .62-.22H142v7.67h6.44V74H142v13.38c0 .94.22 1.63.68 2.09.45.45 1.04.68 1.76.68a3.21 3.21 0 0 0 1.85-.53l.55-.35c.16-.12.3-.18.41-.18.2 0 .4.13.55.38l1.15 1.87a7.45 7.45 0 0 1-2.44 1.5 8.53 8.53 0 0 1-2.95.52zm19.68-10.4c-1.8.07-3.34.21-4.62.45-1.26.22-2.3.51-3.1.88-.8.36-1.37.8-1.74 1.3-.35.5-.53 1.05-.53 1.67 0 .58.1 1.1.3 1.52a2.9 2.9 0 0 0 .76 1.05c.34.27.73.46 1.17.6a6.13 6.13 0 0 0 1.45.17 7.3 7.3 0 0 0 3.5-.81 12.04 12.04 0 0 0 2.82-2.2v-4.62zm-12.65-9.1a12.72 12.72 0 0 1 3.99-2.66c1.42-.59 3-.88 4.72-.88 1.25 0 2.36.2 3.33.61a6.81 6.81 0 0 1 3.94 4.38c.33 1.04.5 2.19.5 3.43V93h-1.74a1.8 1.8 0 0 1-.88-.18c-.2-.13-.36-.38-.48-.74l-.44-2.12-1.72 1.46a9.48 9.48 0 0 1-3.74 1.7c-.69.15-1.46.23-2.3.23-.87 0-1.69-.12-2.45-.35a5.33 5.33 0 0 1-3.34-2.93 6.62 6.62 0 0 1-.49-2.64c0-.88.25-1.72.73-2.53a6.33 6.33 0 0 1 2.35-2.17c1.09-.63 2.5-1.15 4.25-1.54 1.74-.41 3.89-.65 6.42-.7v-1.75c0-1.73-.37-3.03-1.12-3.91-.75-.9-1.84-1.34-3.28-1.34-.97 0-1.78.12-2.44.37-.64.23-1.2.5-1.7.81l-1.22.82c-.34.23-.68.35-1.02.35-.26 0-.49-.07-.68-.2a1.88 1.88 0 0 1-.48-.53l-.7-1.25zM40.98 32.25c0 2.36-.38 4.53-1.12 6.51a14.26 14.26 0 0 1-8.1 8.4c-1.9.78-4.02 1.17-6.34 1.17-2.31 0-4.42-.39-6.33-1.17a14.31 14.31 0 0 1-8.08-8.4 18.29 18.29 0 0 1-1.12-6.51c0-2.36.38-4.53 1.12-6.5.75-1.97 1.8-3.67 3.17-5.1a14.32 14.32 0 0 1 4.9-3.34c1.92-.8 4.03-1.19 6.34-1.19 2.32 0 4.43.4 6.34 1.19 1.92.8 3.56 1.9 4.93 3.34a14.87 14.87 0 0 1 3.17 5.1 18.1 18.1 0 0 1 1.12 6.5zm-4.38 0c0-1.94-.26-3.68-.8-5.22a10.91 10.91 0 0 0-2.24-3.89 9.68 9.68 0 0 0-3.52-2.46 11.95 11.95 0 0 0-4.62-.86c-1.68 0-3.21.28-4.6.86a9.88 9.88 0 0 0-3.54 2.46 10.91 10.91 0 0 0-2.24 3.9c-.53 1.53-.8 3.27-.8 5.2 0 1.94.27 3.68.8 5.22a11.17 11.17 0 0 0 2.24 3.9 10.01 10.01 0 0 0 3.55 2.44c1.38.56 2.9.83 4.6.83s3.24-.27 4.61-.83a9.8 9.8 0 0 0 3.52-2.44 11.17 11.17 0 0 0 2.25-3.9c.53-1.54.8-3.28.8-5.21zm26.22-6.54V48H60.5c-.56 0-.9-.27-1.05-.81l-.31-2.4a12.45 12.45 0 0 1-3.26 2.6c-1.2.64-2.58.96-4.13.96-1.22 0-2.3-.2-3.24-.6a6.52 6.52 0 0 1-2.33-1.7 7.37 7.37 0 0 1-1.43-2.67c-.3-1.04-.46-2.2-.46-3.45V25.7h3.91v14.22c0 1.68.38 2.99 1.15 3.91.77.93 1.96 1.39 3.54 1.39 1.16 0 2.24-.27 3.23-.82a10.42 10.42 0 0 0 2.8-2.28V25.7h3.91zm8.61 4.47a9.94 9.94 0 0 1 2.6-3.56 5.64 5.64 0 0 1 3.76-1.3c.47 0 .92.05 1.34.15.44.1.83.27 1.17.49l-.3 2.92c-.09.37-.3.55-.66.55-.2 0-.5-.04-.9-.13a6.21 6.21 0 0 0-3.24.18 4.23 4.23 0 0 0-1.47.92c-.42.4-.81.9-1.17 1.5-.33.58-.64 1.26-.92 2.02V48H67.7V25.71h2.25c.42 0 .72.08.88.25.16.16.27.44.33.83l.26 3.39zm61.16-13.7L122.75 48h-3.82l-7.99-24.05a21.95 21.95 0 0 1-.42-1.58 38.36 38.36 0 0 1-.44 1.58L102.05 48h-3.83L88.4 16.47h3.54c.38 0 .7.1.95.29.26.2.43.43.5.73l6.52 21.9.28 1.28.29 1.46.3-1.46.38-1.27 7.41-21.91c.1-.25.26-.48.51-.69.27-.22.58-.33.95-.33h1.23c.38 0 .69.1.92.29a1.77 1.77 0 0 1 .53.73l7.4 21.9a28.4 28.4 0 0 1 .68 2.62 29.52 29.52 0 0 1 .52-2.61l6.54-21.91a1.31 1.31 0 0 1 .48-.7c.27-.21.58-.32.95-.32h3.32zm9.35 8.88c1.63 0 3.1.27 4.4.82a9.43 9.43 0 0 1 5.46 5.94c.5 1.4.74 2.98.74 4.73 0 1.76-.25 3.34-.74 4.75a9.43 9.43 0 0 1-5.46 5.92c-1.3.52-2.77.79-4.4.79-1.64 0-3.12-.27-4.44-.8a9.42 9.42 0 0 1-3.35-2.3c-.92-1-1.63-2.2-2.13-3.61-.49-1.41-.73-3-.73-4.75s.24-3.33.73-4.73c.5-1.43 1.2-2.64 2.13-3.63.93-1 2.04-1.77 3.35-2.31 1.32-.55 2.8-.82 4.44-.82zm0 19.89c2.2 0 3.84-.73 4.93-2.2 1.08-1.48 1.63-3.54 1.63-6.18 0-2.66-.55-4.72-1.63-6.2-1.09-1.49-2.73-2.23-4.93-2.23-1.12 0-2.09.2-2.93.57a5.71 5.71 0 0 0-2.06 1.65c-.55.72-.96 1.61-1.24 2.67-.26 1.04-.4 2.22-.4 3.54 0 2.64.55 4.7 1.64 6.18 1.1 1.47 2.76 2.2 4.99 2.2zm17.97-15.07a9.94 9.94 0 0 1 2.6-3.56 5.64 5.64 0 0 1 3.76-1.3c.47 0 .91.05 1.34.15.44.1.83.27 1.16.49l-.28 2.92c-.09.37-.31.55-.66.55-.2 0-.5-.04-.9-.13a6.2 6.2 0 0 0-3.24.18 4.23 4.23 0 0 0-1.47.92c-.43.4-.82.9-1.17 1.5a13.1 13.1 0 0 0-.92 2.02V48h-3.94V25.71h2.24c.43 0 .72.08.88.25.17.16.28.44.33.83l.27 3.39zm15.04-14.59V48h-3.92V15.6h3.92zm19.55 15.43a6.22 6.22 0 0 0-2.38-2.05 6.7 6.7 0 0 0-2.86-.6c-2.07 0-3.66.75-4.77 2.23-1.12 1.48-1.68 3.6-1.68 6.33 0 1.46.13 2.7.38 3.74a7.29 7.29 0 0 0 1.1 2.56 4.35 4.35 0 0 0 1.78 1.45c.7.3 1.5.46 2.4.46 1.29 0 2.41-.3 3.36-.88a9.6 9.6 0 0 0 2.67-2.49V31.02zm3.91-15.43V48h-2.33c-.56 0-.9-.27-1.06-.81l-.35-2.71a12.13 12.13 0 0 1-3.25 2.77 8.28 8.28 0 0 1-4.23 1.06 7.31 7.31 0 0 1-6.14-2.9c-.73-.96-1.3-2.15-1.69-3.57a18.35 18.35 0 0 1 .07-9.48 11.29 11.29 0 0 1 1.89-3.7 8.7 8.7 0 0 1 7.06-3.34 7.96 7.96 0 0 1 6.12 2.62V15.59h3.91zM46.61 70.71V93H42.7V70.71h3.91zm.84-7c0 .39-.08.75-.24 1.09-.15.32-.35.61-.62.88-.25.25-.55.44-.9.59a2.67 2.67 0 0 1-2.16 0 2.9 2.9 0 0 1-1.45-1.47 2.67 2.67 0 0 1 0-2.16c.15-.35.35-.65.6-.9.25-.27.53-.47.85-.62a2.67 2.67 0 0 1 2.16 0c.35.15.65.35.9.62.27.25.47.55.62.9.16.34.24.7.24 1.08zm7.97 10.24c.49-.54 1-1.04 1.54-1.48a9.85 9.85 0 0 1 3.66-1.84 8.96 8.96 0 0 1 5.43.35c.94.4 1.72.97 2.33 1.71.63.74 1.11 1.62 1.43 2.67.32 1.04.49 2.19.49 3.45V93h-3.94V78.81c0-1.69-.4-3-1.17-3.92-.76-.93-1.93-1.4-3.5-1.4-1.15 0-2.24.27-3.25.83-1 .56-1.92 1.31-2.77 2.27V93h-3.94V70.71h2.35c.56 0 .9.28 1.04.82l.3 2.42zm57.7 3.3c0 2.36-.37 4.5-1.11 6.44a14.3 14.3 0 0 1-3.17 4.98c-1.37 1.37-3 2.45-4.93 3.2-1.9.76-4.02 1.13-6.33 1.13H85.8V61.47h11.77c2.31 0 4.42.39 6.33 1.15a13.8 13.8 0 0 1 8.1 8.18 17.75 17.75 0 0 1 1.12 6.45zm-4.37 0c0-1.94-.26-3.67-.8-5.2a10.94 10.94 0 0 0-2.23-3.87 9.57 9.57 0 0 0-3.53-2.42 12.23 12.23 0 0 0-4.61-.83h-7.5v24.62h7.5c1.7 0 3.24-.28 4.61-.84a9.7 9.7 0 0 0 3.53-2.4 10.94 10.94 0 0 0 2.24-3.87c.53-1.53.8-3.26.8-5.2zm19.8 5.72c-1.8.06-3.34.2-4.62.44-1.26.22-2.3.51-3.1.88-.8.36-1.37.8-1.74 1.3-.35.5-.53 1.05-.53 1.67 0 .58.1 1.1.3 1.52a3 3 0 0 0 .76 1.05c.34.27.73.46 1.17.6a6.13 6.13 0 0 0 1.45.17 7.28 7.28 0 0 0 3.5-.81 11.95 11.95 0 0 0 2.82-2.2v-4.62zm-12.65-9.11a12.73 12.73 0 0 1 3.98-2.66c1.43-.59 3-.88 4.73-.88 1.25 0 2.36.2 3.33.61a6.81 6.81 0 0 1 3.94 4.38c.33 1.04.5 2.19.5 3.43V93h-1.74a1.8 1.8 0 0 1-.88-.18c-.2-.13-.36-.38-.48-.74l-.44-2.12-1.72 1.46a9.48 9.48 0 0 1-3.74 1.7c-.69.15-1.46.23-2.3.23-.87 0-1.69-.12-2.45-.35a5.34 5.34 0 0 1-3.34-2.93 6.64 6.64 0 0 1-.49-2.64c0-.88.25-1.72.73-2.53a6.33 6.33 0 0 1 2.35-2.17c1.09-.63 2.5-1.15 4.25-1.54 1.75-.41 3.89-.65 6.42-.7v-1.75c0-1.73-.37-3.03-1.12-3.91-.75-.9-1.84-1.34-3.28-1.34-.97 0-1.78.12-2.44.37-.64.23-1.2.5-1.7.81l-1.23.82c-.33.23-.67.35-1 .35-.27 0-.5-.07-.69-.2a2.1 2.1 0 0 1-.48-.53l-.7-1.25zm27.67 19.5c-1.76 0-3.12-.5-4.07-1.48-.94-.98-1.41-2.4-1.41-4.25V74h-2.68a.9.9 0 0 1-.6-.2c-.16-.14-.24-.36-.24-.66v-1.56l3.65-.46.9-6.89c.05-.22.14-.4.29-.52a.88.88 0 0 1 .62-.22H142v7.67h6.44V74H142v13.38c0 .94.22 1.63.68 2.09.45.45 1.04.68 1.76.68a3.21 3.21 0 0 0 1.85-.53l.55-.35c.16-.12.3-.18.41-.18.2 0 .4.13.55.38l1.15 1.87a7.45 7.45 0 0 1-2.44 1.5 8.53 8.53 0 0 1-2.95.52zm19.68-10.4c-1.8.07-3.34.21-4.62.45-1.26.22-2.3.51-3.1.88-.8.36-1.37.8-1.74 1.3-.35.5-.53 1.05-.53 1.67 0 .58.1 1.1.3 1.52a2.9 2.9 0 0 0 .76 1.05c.34.27.73.46 1.17.6a6.13 6.13 0 0 0 1.45.17 7.3 7.3 0 0 0 3.5-.81 12.04 12.04 0 0 0 2.82-2.2v-4.62zm-12.65-9.1a12.72 12.72 0 0 1 3.99-2.66c1.42-.59 3-.88 4.72-.88 1.25 0 2.36.2 3.33.61a6.81 6.81 0 0 1 3.94 4.38c.33 1.04.5 2.19.5 3.43V93h-1.74a1.8 1.8 0 0 1-.88-.18c-.2-.13-.36-.38-.48-.74l-.44-2.12-1.72 1.46a9.48 9.48 0 0 1-3.74 1.7c-.69.15-1.46.23-2.3.23-.87 0-1.69-.12-2.45-.35a5.33 5.33 0 0 1-3.34-2.93 6.62 6.62 0 0 1-.49-2.64c0-.88.25-1.72.73-2.53a6.33 6.33 0 0 1 2.35-2.17c1.09-.63 2.5-1.15 4.25-1.54 1.74-.41 3.89-.65 6.42-.7v-1.75c0-1.73-.37-3.03-1.12-3.91-.75-.9-1.84-1.34-3.28-1.34-.97 0-1.78.12-2.44.37-.64.23-1.2.5-1.7.81l-1.22.82c-.34.23-.68.35-1.02.35-.26 0-.49-.07-.68-.2a1.88 1.88 0 0 1-.48-.53l-.7-1.25z"
    fill="#fff"
  />
  <path fill="#D42B21" d="M0 106.79h210V120H0z" />
</g>
<defs>
  <clipPath id="clip0"><path fill="#fff" d="M0 0h210v120H0z" /></clipPath>
</defs>
</svg></g><a href="https://ourworldindata.org/grapher/living-planet-index-by-region" style="font-family:&quot;Playfair Display&quot;, Georgia, &quot;Times New Roman&quot;, serif" target="_blank" rel="noopener"><text font-size="25.20" x="15.0" y="35.2" fill="#555"><tspan x="15" y="35.160000000000004">Living Planet Index by region</tspan></text></a><text font-size="14.40" x="15.0" y="55.7" fill="#666"><tspan x="15" y="55.72">The Living Planet Index (LPI) measures the average decline in monitored wildlife populations. The index value is</tspan><tspan x="15" y="73">measured relative to 20,811 populations of 4,392 species in 1970 (i.e. 1970 = 100%). </tspan></text></g><g class="LineChart"><defs><clipPath id="boundsClip-3"><rect x="51.634" y="82.2" width="840" height="475.2"></rect></clipPath></defs><g class="DualAxisView"><g class="HorizontalAxis"><line x1="61.6" y1="526.2" x2="61.6" y2="531.2" stroke="#999"></line><line x1="601.8" y1="526.2" x2="601.8" y2="531.2" stroke="#999"></line><line x1="179.1" y1="526.2" x2="179.1" y2="531.2" stroke="#999"></line><line x1="296.5" y1="526.2" x2="296.5" y2="531.2" stroke="#999"></line><line x1="413.9" y1="526.2" x2="413.9" y2="531.2" stroke="#999"></line><line x1="531.4" y1="526.2" x2="531.4" y2="531.2" stroke="#999"></line><text x="61.634" y="547.4" fill="#666" text-anchor="start" font-size="16.2">1970</text><text x="601.8199999999999" y="547.4" fill="#666" text-anchor="end" font-size="16.2">2016</text><text x="179.1" y="547.4" fill="#666" text-anchor="middle" font-size="16.2">1980</text><text x="296.5" y="547.4" fill="#666" text-anchor="middle" font-size="16.2">1990</text><text x="413.9" y="547.4" fill="#666" text-anchor="middle" font-size="16.2">2000</text><text x="531.4" y="547.4" fill="#666" text-anchor="middle" font-size="16.2">2010</text></g><g class="VerticalAxis"><text x="56.63" y="526.2" dy=".32em" text-anchor="end" fill="#666" font-size="16.2">0%</text><text x="56.63" y="453.5" dy=".32em" text-anchor="end" fill="#666" font-size="16.2">20%</text><text x="56.63" y="380.7" dy=".32em" text-anchor="end" fill="#666" font-size="16.2">40%</text><text x="56.63" y="308" dy=".32em" text-anchor="end" fill="#666" font-size="16.2">60%</text><text x="56.63" y="235.3" dy=".32em" text-anchor="end" fill="#666" font-size="16.2">80%</text><text x="56.63" y="162.6" dy=".32em" text-anchor="end" fill="#666" font-size="16.2">100%</text></g><g class="AxisGridLines horizontalLines"><line x1="61.63" y1="526.2" x2="601.82" y2="526.2" stroke="#999"></line><line x1="61.63" y1="453.5" x2="601.82" y2="453.5" stroke="#ddd" stroke-dasharray="3,2"></line><line x1="61.63" y1="380.7" x2="601.82" y2="380.7" stroke="#ddd" stroke-dasharray="3,2"></line><line x1="61.63" y1="308" x2="601.82" y2="308" stroke="#ddd" stroke-dasharray="3,2"></line><line x1="61.63" y1="235.3" x2="601.82" y2="235.3" stroke="#ddd" stroke-dasharray="3,2"></line><line x1="61.63" y1="162.6" x2="601.82" y2="162.6" stroke="#ddd" stroke-dasharray="3,2"></line></g></g><g clip-path="url(#boundsClip-3)"><g class="LineLabels" style="cursor:default"><g class="legendMark"><rect x="601.8199999999999" y="242.65" width="182.69" height="13.5" fill="#fff" opacity="0"></rect><text font-size="13.50" font-weight="400" x="605.8" y="253.4" fill="#00847e"><tspan x="605.8199999999999" y="253.45">Europe and Central Asia</tspan></text></g><g class="legendMark"><rect x="601.8199999999999" y="276.85" width="121.4" height="13.5" fill="#fff" opacity="0"></rect><text font-size="13.50" font-weight="400" x="605.8" y="287.7" fill="#b13507"><tspan x="605.8199999999999" y="287.65000000000003">North America</tspan></text></g><g class="legendMark"><rect x="601.8199999999999" y="320.35" width="105.605" height="13.5" fill="#fff" opacity="0"></rect><text font-size="13.50" font-weight="400" x="605.8" y="331.2" fill="#883039"><tspan x="605.8199999999999" y="331.15000000000003">Asia-Pacific</tspan></text></g><g class="legendMark"><rect x="601.8199999999999" y="389.25" width="69.56" height="13.5" fill="#fff" opacity="0"></rect><text font-size="13.50" font-weight="400" x="605.8" y="400.1" fill="#3c4e66"><tspan x="605.8199999999999" y="400.05">Africa</tspan></text></g><g class="legendMark"><rect x="601.8199999999999" y="404.75" width="70.235" height="13.5" fill="#fff" opacity="0"></rect><text font-size="13.50" font-weight="400" x="605.8" y="415.6" fill="#cf0a66"><tspan x="605.8199999999999" y="415.55">World</tspan></text></g><g class="legendMark"><rect x="601.8199999999999" y="496.45" width="233.18" height="13.5" fill="#fff" opacity="0"></rect><text font-size="13.50" font-weight="400" x="605.8" y="507.3" fill="#6d3e91"><tspan x="605.8199999999999" y="507.25">Latin America and the Caribbean</tspan></text></g></g><g class="Lines"><rect x="62" y="92" width="540" height="434" fill="rgba(255,255,255,0)" opacity="0"></rect><g><path stroke-linecap="round" stroke-linejoin="round" stroke="#ddd" d="M61.6 162.6L73.4 139.5L85.1 144.9L96.9 150.2L108.6 147.4L120.3 136.2L132.1 139.6L143.8 146.9L155.6 156L167.3 156.7L179.1 158.8L190.8 164.2L202.6 168L214.3 179L226 192.4L237.8 187.7L249.5 205.4L261.3 216.2L273 223.7L284.8 217.4L296.5 219.3L308.2 241.9L320 249.1L331.7 256.7L343.5 283L355.2 275.9L367 279.7L378.7 288.5L390.4 292.3L402.2 303L413.9 311.5L425.7 321.3L437.4 321.4L449.2 319.4L460.9 319.9L472.6 325.8L484.4 332.6L496.1 335.9L507.9 343.3L519.6 351.9L531.4 357.7L543.1 359.3L554.8 351.7L566.6 348.9L578.3 335.1L590.1 335.4L601.8 327.1" fill="none" stroke-width="1"></path></g><g><path stroke-linecap="round" stroke-linejoin="round" stroke="#ddd" d="M61.6 162.6L73.4 166.4L85.1 170.8L96.9 177.5L108.6 184.7L120.3 185.7L132.1 193.4L143.8 201.3L155.6 211.3L167.3 217.9L179.1 226.1L190.8 232.9L202.6 241.5L214.3 252L226 264.2L237.8 271.5L249.5 277.8L261.3 287.1L273 296.5L284.8 298.8L296.5 296.5L308.2 303.5L320 308.7L331.7 311.6L343.5 323.4L355.2 327.3L367 333.2L378.7 337.6L390.4 344.8L402.2 350.2L413.9 355.9L425.7 360.3L437.4 367.7L449.2 369.1L460.9 371L472.6 377.4L484.4 383.3L496.1 387.3L507.9 391.3L519.6 395.5L531.4 397.7L543.1 404.7L554.8 409.2L566.6 410.5L578.3 411L590.1 408.9L601.8 410.3" fill="none" stroke-width="1"></path></g><g><path stroke-linecap="round" stroke-linejoin="round" stroke="#ddd" d="M61.6 162.6L73.4 160L85.1 154.1L96.9 178.7L108.6 207.1L120.3 215.8L132.1 245.9L143.8 265.2L155.6 270.7L167.3 283.9L179.1 288L190.8 297L202.6 311.6L214.3 334L226 350.7L237.8 351.7L249.5 364.1L261.3 379.3L273 392.6L284.8 396.8L296.5 400.3L308.2 404.8L320 412.1L331.7 415.8L343.5 423.5L355.2 431.6L367 437.1L378.7 441.4L390.4 447.7L402.2 454.1L413.9 457.9L425.7 459.3L437.4 467L449.2 468.7L460.9 470.8L472.6 478L484.4 480L496.1 483.8L507.9 487.8L519.6 489.5L531.4 492.3L543.1 498.2L554.8 500.4L566.6 502.5L578.3 503.5L590.1 501.7L601.8 503.2" fill="none" stroke-width="1"></path></g><g><path stroke-linecap="round" stroke-linejoin="round" stroke="#ddd" d="M61.6 162.6L73.4 163.5L85.1 158.2L96.9 150.3L108.6 143.6L120.3 139.2L132.1 136.6L143.8 133.7L155.6 121.4L167.3 114.5L179.1 120.8L190.8 132.4L202.6 143.4L214.3 143.2L226 164.8L237.8 151.3L249.5 148.9L261.3 148.2L273 130.6L284.8 107.6L296.5 93.6L308.2 92.2L320 106.5L331.7 117L343.5 127.6L355.2 131.5L367 140.1L378.7 158.8L390.4 164.6L402.2 174.3L413.9 180.8L425.7 176.8L437.4 195.3L449.2 187.7L460.9 180.9L472.6 176.2L484.4 174.4L496.1 172.4L507.9 177.5L519.6 186.8L531.4 199.2L543.1 211.8L554.8 224.6L566.6 229.7L578.3 241.8L590.1 238.2L601.8 249.4" fill="none" stroke-width="1"></path></g><g><path stroke-linecap="round" stroke-linejoin="round" stroke="#ddd" d="M61.6 162.6L73.4 174.8L85.1 162.3L96.9 184.2L108.6 199.7L120.3 206.3L132.1 212.4L143.8 214.8L155.6 207.1L167.3 208L179.1 218.6L190.8 215.5L202.6 220.5L214.3 224.4L226 218.9L237.8 229.8L249.5 229.6L261.3 227.7L273 238.8L284.8 238.6L296.5 239.8L308.2 238.8L320 248.2L331.7 241.4L343.5 243.3L355.2 246.7L367 265.3L378.7 270.5L390.4 273.3L402.2 285L413.9 287.4L425.7 289.3L437.4 295.9L449.2 282.1L460.9 280.5L472.6 277.2L484.4 281.1L496.1 277.8L507.9 273.4L519.6 278.7L531.4 279.1L543.1 281L554.8 288.9L566.6 296.6L578.3 286.6L590.1 277.9L601.8 283.6" fill="none" stroke-width="1"></path></g><g><path stroke-linecap="round" stroke-linejoin="round" stroke="#ddd" d="M61.6 162.6L73.4 177.6L85.1 175.6L96.9 165.2L108.6 175.9L120.3 182.1L132.1 186.5L143.8 195.8L155.6 207.4L167.3 218.2L179.1 223.9L190.8 227.8L202.6 238.6L214.3 255L226 268.6L237.8 286.5L249.5 301.7L261.3 306.2L273 315.3L284.8 320.4L296.5 322.4L308.2 332.6L320 330.3L331.7 316.3L343.5 320.7L355.2 316.6L367 323.8L378.7 324L390.4 327.6L402.2 333.8L413.9 328.8L425.7 336.9L437.4 356.6L449.2 360.7L460.9 362.4L472.6 364.2L484.4 372.1L496.1 371L507.9 364.3L519.6 365.6L531.4 356.4L543.1 363.8L554.8 375.5L566.6 385L578.3 396.4L590.1 397.5L601.8 397.2" fill="none" stroke-width="1"></path></g><g><path fill="none" stroke-linecap="butt" stroke-linejoin="round" stroke="#fff" stroke-width="2.5" d="M61.6 162.6L73.4 139.5L85.1 144.9L96.9 150.2L108.6 147.4L120.3 136.2L132.1 139.6L143.8 146.9L155.6 156L167.3 156.7L179.1 158.8L190.8 164.2L202.6 168L214.3 179L226 192.4L237.8 187.7L249.5 205.4L261.3 216.2L273 223.7L284.8 217.4L296.5 219.3L308.2 241.9L320 249.1L331.7 256.7L343.5 283L355.2 275.9L367 279.7L378.7 288.5L390.4 292.3L402.2 303L413.9 311.5L425.7 321.3L437.4 321.4L449.2 319.4L460.9 319.9L472.6 325.8L484.4 332.6L496.1 335.9L507.9 343.3L519.6 351.9L531.4 357.7L543.1 359.3L554.8 351.7L566.6 348.9L578.3 335.1L590.1 335.4L601.8 327.1"></path><polyline points="61.60,162.60 73.40,139.50 85.10,144.90 96.90,150.20 108.60,147.40 120.30,136.20 132.10,139.60 143.80,146.90 155.60,156.00 167.30,156.70 179.10,158.80 190.80,164.20 202.60,168.00 214.30,179.00 226.00,192.40 237.80,187.70 249.50,205.40 261.30,216.20 273.00,223.70 284.80,217.40 296.50,219.30 308.20,241.90 320.00,249.10 331.70,256.70 343.50,283.00 355.20,275.90 367.00,279.70 378.70,288.50 390.40,292.30 402.20,303.00 413.90,311.50 425.70,321.30 437.40,321.40 449.20,319.40 460.90,319.90 472.60,325.80 484.40,332.60 496.10,335.90 507.90,343.30 519.60,351.90 531.40,357.70 543.10,359.30 554.80,351.70 566.60,348.90 578.30,335.10 590.10,335.40 601.80,327.10" stroke-linejoin="round" stroke-width="1.5" stroke="#883039" fill="none" stroke-linecap="butt"></polyline><g><circle cx="61.6" cy="162.6" r="1.8" fill="#883039"></circle><circle cx="73.4" cy="139.5" r="1.8" fill="#883039"></circle><circle cx="85.1" cy="144.9" r="1.8" fill="#883039"></circle><circle cx="96.9" cy="150.2" r="1.8" fill="#883039"></circle><circle cx="108.6" cy="147.4" r="1.8" fill="#883039"></circle><circle cx="120.3" cy="136.2" r="1.8" fill="#883039"></circle><circle cx="132.1" cy="139.6" r="1.8" fill="#883039"></circle><circle cx="143.8" cy="146.9" r="1.8" fill="#883039"></circle><circle cx="155.6" cy="156" r="1.8" fill="#883039"></circle><circle cx="167.3" cy="156.7" r="1.8" fill="#883039"></circle><circle cx="179.1" cy="158.8" r="1.8" fill="#883039"></circle><circle cx="190.8" cy="164.2" r="1.8" fill="#883039"></circle><circle cx="202.6" cy="168" r="1.8" fill="#883039"></circle><circle cx="214.3" cy="179" r="1.8" fill="#883039"></circle><circle cx="226" cy="192.4" r="1.8" fill="#883039"></circle><circle cx="237.8" cy="187.7" r="1.8" fill="#883039"></circle><circle cx="249.5" cy="205.4" r="1.8" fill="#883039"></circle><circle cx="261.3" cy="216.2" r="1.8" fill="#883039"></circle><circle cx="273" cy="223.7" r="1.8" fill="#883039"></circle><circle cx="284.8" cy="217.4" r="1.8" fill="#883039"></circle><circle cx="296.5" cy="219.3" r="1.8" fill="#883039"></circle><circle cx="308.2" cy="241.9" r="1.8" fill="#883039"></circle><circle cx="320" cy="249.1" r="1.8" fill="#883039"></circle><circle cx="331.7" cy="256.7" r="1.8" fill="#883039"></circle><circle cx="343.5" cy="283" r="1.8" fill="#883039"></circle><circle cx="355.2" cy="275.9" r="1.8" fill="#883039"></circle><circle cx="367" cy="279.7" r="1.8" fill="#883039"></circle><circle cx="378.7" cy="288.5" r="1.8" fill="#883039"></circle><circle cx="390.4" cy="292.3" r="1.8" fill="#883039"></circle><circle cx="402.2" cy="303" r="1.8" fill="#883039"></circle><circle cx="413.9" cy="311.5" r="1.8" fill="#883039"></circle><circle cx="425.7" cy="321.3" r="1.8" fill="#883039"></circle><circle cx="437.4" cy="321.4" r="1.8" fill="#883039"></circle><circle cx="449.2" cy="319.4" r="1.8" fill="#883039"></circle><circle cx="460.9" cy="319.9" r="1.8" fill="#883039"></circle><circle cx="472.6" cy="325.8" r="1.8" fill="#883039"></circle><circle cx="484.4" cy="332.6" r="1.8" fill="#883039"></circle><circle cx="496.1" cy="335.9" r="1.8" fill="#883039"></circle><circle cx="507.9" cy="343.3" r="1.8" fill="#883039"></circle><circle cx="519.6" cy="351.9" r="1.8" fill="#883039"></circle><circle cx="531.4" cy="357.7" r="1.8" fill="#883039"></circle><circle cx="543.1" cy="359.3" r="1.8" fill="#883039"></circle><circle cx="554.8" cy="351.7" r="1.8" fill="#883039"></circle><circle cx="566.6" cy="348.9" r="1.8" fill="#883039"></circle><circle cx="578.3" cy="335.1" r="1.8" fill="#883039"></circle><circle cx="590.1" cy="335.4" r="1.8" fill="#883039"></circle><circle cx="601.8" cy="327.1" r="1.8" fill="#883039"></circle></g></g><g><path fill="none" stroke-linecap="butt" stroke-linejoin="round" stroke="#fff" stroke-width="2.5" d="M61.6 162.6L73.4 166.4L85.1 170.8L96.9 177.5L108.6 184.7L120.3 185.7L132.1 193.4L143.8 201.3L155.6 211.3L167.3 217.9L179.1 226.1L190.8 232.9L202.6 241.5L214.3 252L226 264.2L237.8 271.5L249.5 277.8L261.3 287.1L273 296.5L284.8 298.8L296.5 296.5L308.2 303.5L320 308.7L331.7 311.6L343.5 323.4L355.2 327.3L367 333.2L378.7 337.6L390.4 344.8L402.2 350.2L413.9 355.9L425.7 360.3L437.4 367.7L449.2 369.1L460.9 371L472.6 377.4L484.4 383.3L496.1 387.3L507.9 391.3L519.6 395.5L531.4 397.7L543.1 404.7L554.8 409.2L566.6 410.5L578.3 411L590.1 408.9L601.8 410.3"></path><polyline points="61.60,162.60 73.40,166.40 85.10,170.80 96.90,177.50 108.60,184.70 120.30,185.70 132.10,193.40 143.80,201.30 155.60,211.30 167.30,217.90 179.10,226.10 190.80,232.90 202.60,241.50 214.30,252.00 226.00,264.20 237.80,271.50 249.50,277.80 261.30,287.10 273.00,296.50 284.80,298.80 296.50,296.50 308.20,303.50 320.00,308.70 331.70,311.60 343.50,323.40 355.20,327.30 367.00,333.20 378.70,337.60 390.40,344.80 402.20,350.20 413.90,355.90 425.70,360.30 437.40,367.70 449.20,369.10 460.90,371.00 472.60,377.40 484.40,383.30 496.10,387.30 507.90,391.30 519.60,395.50 531.40,397.70 543.10,404.70 554.80,409.20 566.60,410.50 578.30,411.00 590.10,408.90 601.80,410.30" stroke-linejoin="round" stroke-width="1.5" stroke="#CF0A66" fill="none" stroke-linecap="butt"></polyline><g><circle cx="61.6" cy="162.6" r="1.8" fill="#CF0A66"></circle><circle cx="73.4" cy="166.4" r="1.8" fill="#CF0A66"></circle><circle cx="85.1" cy="170.8" r="1.8" fill="#CF0A66"></circle><circle cx="96.9" cy="177.5" r="1.8" fill="#CF0A66"></circle><circle cx="108.6" cy="184.7" r="1.8" fill="#CF0A66"></circle><circle cx="120.3" cy="185.7" r="1.8" fill="#CF0A66"></circle><circle cx="132.1" cy="193.4" r="1.8" fill="#CF0A66"></circle><circle cx="143.8" cy="201.3" r="1.8" fill="#CF0A66"></circle><circle cx="155.6" cy="211.3" r="1.8" fill="#CF0A66"></circle><circle cx="167.3" cy="217.9" r="1.8" fill="#CF0A66"></circle><circle cx="179.1" cy="226.1" r="1.8" fill="#CF0A66"></circle><circle cx="190.8" cy="232.9" r="1.8" fill="#CF0A66"></circle><circle cx="202.6" cy="241.5" r="1.8" fill="#CF0A66"></circle><circle cx="214.3" cy="252" r="1.8" fill="#CF0A66"></circle><circle cx="226" cy="264.2" r="1.8" fill="#CF0A66"></circle><circle cx="237.8" cy="271.5" r="1.8" fill="#CF0A66"></circle><circle cx="249.5" cy="277.8" r="1.8" fill="#CF0A66"></circle><circle cx="261.3" cy="287.1" r="1.8" fill="#CF0A66"></circle><circle cx="273" cy="296.5" r="1.8" fill="#CF0A66"></circle><circle cx="284.8" cy="298.8" r="1.8" fill="#CF0A66"></circle><circle cx="296.5" cy="296.5" r="1.8" fill="#CF0A66"></circle><circle cx="308.2" cy="303.5" r="1.8" fill="#CF0A66"></circle><circle cx="320" cy="308.7" r="1.8" fill="#CF0A66"></circle><circle cx="331.7" cy="311.6" r="1.8" fill="#CF0A66"></circle><circle cx="343.5" cy="323.4" r="1.8" fill="#CF0A66"></circle><circle cx="355.2" cy="327.3" r="1.8" fill="#CF0A66"></circle><circle cx="367" cy="333.2" r="1.8" fill="#CF0A66"></circle><circle cx="378.7" cy="337.6" r="1.8" fill="#CF0A66"></circle><circle cx="390.4" cy="344.8" r="1.8" fill="#CF0A66"></circle><circle cx="402.2" cy="350.2" r="1.8" fill="#CF0A66"></circle><circle cx="413.9" cy="355.9" r="1.8" fill="#CF0A66"></circle><circle cx="425.7" cy="360.3" r="1.8" fill="#CF0A66"></circle><circle cx="437.4" cy="367.7" r="1.8" fill="#CF0A66"></circle><circle cx="449.2" cy="369.1" r="1.8" fill="#CF0A66"></circle><circle cx="460.9" cy="371" r="1.8" fill="#CF0A66"></circle><circle cx="472.6" cy="377.4" r="1.8" fill="#CF0A66"></circle><circle cx="484.4" cy="383.3" r="1.8" fill="#CF0A66"></circle><circle cx="496.1" cy="387.3" r="1.8" fill="#CF0A66"></circle><circle cx="507.9" cy="391.3" r="1.8" fill="#CF0A66"></circle><circle cx="519.6" cy="395.5" r="1.8" fill="#CF0A66"></circle><circle cx="531.4" cy="397.7" r="1.8" fill="#CF0A66"></circle><circle cx="543.1" cy="404.7" r="1.8" fill="#CF0A66"></circle><circle cx="554.8" cy="409.2" r="1.8" fill="#CF0A66"></circle><circle cx="566.6" cy="410.5" r="1.8" fill="#CF0A66"></circle><circle cx="578.3" cy="411" r="1.8" fill="#CF0A66"></circle><circle cx="590.1" cy="408.9" r="1.8" fill="#CF0A66"></circle><circle cx="601.8" cy="410.3" r="1.8" fill="#CF0A66"></circle></g></g><g><path fill="none" stroke-linecap="butt" stroke-linejoin="round" stroke="#fff" stroke-width="2.5" d="M61.6 162.6L73.4 160L85.1 154.1L96.9 178.7L108.6 207.1L120.3 215.8L132.1 245.9L143.8 265.2L155.6 270.7L167.3 283.9L179.1 288L190.8 297L202.6 311.6L214.3 334L226 350.7L237.8 351.7L249.5 364.1L261.3 379.3L273 392.6L284.8 396.8L296.5 400.3L308.2 404.8L320 412.1L331.7 415.8L343.5 423.5L355.2 431.6L367 437.1L378.7 441.4L390.4 447.7L402.2 454.1L413.9 457.9L425.7 459.3L437.4 467L449.2 468.7L460.9 470.8L472.6 478L484.4 480L496.1 483.8L507.9 487.8L519.6 489.5L531.4 492.3L543.1 498.2L554.8 500.4L566.6 502.5L578.3 503.5L590.1 501.7L601.8 503.2"></path><polyline points="61.60,162.60 73.40,160.00 85.10,154.10 96.90,178.70 108.60,207.10 120.30,215.80 132.10,245.90 143.80,265.20 155.60,270.70 167.30,283.90 179.10,288.00 190.80,297.00 202.60,311.60 214.30,334.00 226.00,350.70 237.80,351.70 249.50,364.10 261.30,379.30 273.00,392.60 284.80,396.80 296.50,400.30 308.20,404.80 320.00,412.10 331.70,415.80 343.50,423.50 355.20,431.60 367.00,437.10 378.70,441.40 390.40,447.70 402.20,454.10 413.90,457.90 425.70,459.30 437.40,467.00 449.20,468.70 460.90,470.80 472.60,478.00 484.40,480.00 496.10,483.80 507.90,487.80 519.60,489.50 531.40,492.30 543.10,498.20 554.80,500.40 566.60,502.50 578.30,503.50 590.10,501.70 601.80,503.20" stroke-linejoin="round" stroke-width="1.5" stroke="#6D3E91" fill="none" stroke-linecap="butt"></polyline><g><circle cx="61.6" cy="162.6" r="1.8" fill="#6D3E91"></circle><circle cx="73.4" cy="160" r="1.8" fill="#6D3E91"></circle><circle cx="85.1" cy="154.1" r="1.8" fill="#6D3E91"></circle><circle cx="96.9" cy="178.7" r="1.8" fill="#6D3E91"></circle><circle cx="108.6" cy="207.1" r="1.8" fill="#6D3E91"></circle><circle cx="120.3" cy="215.8" r="1.8" fill="#6D3E91"></circle><circle cx="132.1" cy="245.9" r="1.8" fill="#6D3E91"></circle><circle cx="143.8" cy="265.2" r="1.8" fill="#6D3E91"></circle><circle cx="155.6" cy="270.7" r="1.8" fill="#6D3E91"></circle><circle cx="167.3" cy="283.9" r="1.8" fill="#6D3E91"></circle><circle cx="179.1" cy="288" r="1.8" fill="#6D3E91"></circle><circle cx="190.8" cy="297" r="1.8" fill="#6D3E91"></circle><circle cx="202.6" cy="311.6" r="1.8" fill="#6D3E91"></circle><circle cx="214.3" cy="334" r="1.8" fill="#6D3E91"></circle><circle cx="226" cy="350.7" r="1.8" fill="#6D3E91"></circle><circle cx="237.8" cy="351.7" r="1.8" fill="#6D3E91"></circle><circle cx="249.5" cy="364.1" r="1.8" fill="#6D3E91"></circle><circle cx="261.3" cy="379.3" r="1.8" fill="#6D3E91"></circle><circle cx="273" cy="392.6" r="1.8" fill="#6D3E91"></circle><circle cx="284.8" cy="396.8" r="1.8" fill="#6D3E91"></circle><circle cx="296.5" cy="400.3" r="1.8" fill="#6D3E91"></circle><circle cx="308.2" cy="404.8" r="1.8" fill="#6D3E91"></circle><circle cx="320" cy="412.1" r="1.8" fill="#6D3E91"></circle><circle cx="331.7" cy="415.8" r="1.8" fill="#6D3E91"></circle><circle cx="343.5" cy="423.5" r="1.8" fill="#6D3E91"></circle><circle cx="355.2" cy="431.6" r="1.8" fill="#6D3E91"></circle><circle cx="367" cy="437.1" r="1.8" fill="#6D3E91"></circle><circle cx="378.7" cy="441.4" r="1.8" fill="#6D3E91"></circle><circle cx="390.4" cy="447.7" r="1.8" fill="#6D3E91"></circle><circle cx="402.2" cy="454.1" r="1.8" fill="#6D3E91"></circle><circle cx="413.9" cy="457.9" r="1.8" fill="#6D3E91"></circle><circle cx="425.7" cy="459.3" r="1.8" fill="#6D3E91"></circle><circle cx="437.4" cy="467" r="1.8" fill="#6D3E91"></circle><circle cx="449.2" cy="468.7" r="1.8" fill="#6D3E91"></circle><circle cx="460.9" cy="470.8" r="1.8" fill="#6D3E91"></circle><circle cx="472.6" cy="478" r="1.8" fill="#6D3E91"></circle><circle cx="484.4" cy="480" r="1.8" fill="#6D3E91"></circle><circle cx="496.1" cy="483.8" r="1.8" fill="#6D3E91"></circle><circle cx="507.9" cy="487.8" r="1.8" fill="#6D3E91"></circle><circle cx="519.6" cy="489.5" r="1.8" fill="#6D3E91"></circle><circle cx="531.4" cy="492.3" r="1.8" fill="#6D3E91"></circle><circle cx="543.1" cy="498.2" r="1.8" fill="#6D3E91"></circle><circle cx="554.8" cy="500.4" r="1.8" fill="#6D3E91"></circle><circle cx="566.6" cy="502.5" r="1.8" fill="#6D3E91"></circle><circle cx="578.3" cy="503.5" r="1.8" fill="#6D3E91"></circle><circle cx="590.1" cy="501.7" r="1.8" fill="#6D3E91"></circle><circle cx="601.8" cy="503.2" r="1.8" fill="#6D3E91"></circle></g></g><g><path fill="none" stroke-linecap="butt" stroke-linejoin="round" stroke="#fff" stroke-width="2.5" d="M61.6 162.6L73.4 163.5L85.1 158.2L96.9 150.3L108.6 143.6L120.3 139.2L132.1 136.6L143.8 133.7L155.6 121.4L167.3 114.5L179.1 120.8L190.8 132.4L202.6 143.4L214.3 143.2L226 164.8L237.8 151.3L249.5 148.9L261.3 148.2L273 130.6L284.8 107.6L296.5 93.6L308.2 92.2L320 106.5L331.7 117L343.5 127.6L355.2 131.5L367 140.1L378.7 158.8L390.4 164.6L402.2 174.3L413.9 180.8L425.7 176.8L437.4 195.3L449.2 187.7L460.9 180.9L472.6 176.2L484.4 174.4L496.1 172.4L507.9 177.5L519.6 186.8L531.4 199.2L543.1 211.8L554.8 224.6L566.6 229.7L578.3 241.8L590.1 238.2L601.8 249.4"></path><polyline points="61.60,162.60 73.40,163.50 85.10,158.20 96.90,150.30 108.60,143.60 120.30,139.20 132.10,136.60 143.80,133.70 155.60,121.40 167.30,114.50 179.10,120.80 190.80,132.40 202.60,143.40 214.30,143.20 226.00,164.80 237.80,151.30 249.50,148.90 261.30,148.20 273.00,130.60 284.80,107.60 296.50,93.60 308.20,92.20 320.00,106.50 331.70,117.00 343.50,127.60 355.20,131.50 367.00,140.10 378.70,158.80 390.40,164.60 402.20,174.30 413.90,180.80 425.70,176.80 437.40,195.30 449.20,187.70 460.90,180.90 472.60,176.20 484.40,174.40 496.10,172.40 507.90,177.50 519.60,186.80 531.40,199.20 543.10,211.80 554.80,224.60 566.60,229.70 578.30,241.80 590.10,238.20 601.80,249.40" stroke-linejoin="round" stroke-width="1.5" stroke="#00847E" fill="none" stroke-linecap="butt"></polyline><g><circle cx="61.6" cy="162.6" r="1.8" fill="#00847E"></circle><circle cx="73.4" cy="163.5" r="1.8" fill="#00847E"></circle><circle cx="85.1" cy="158.2" r="1.8" fill="#00847E"></circle><circle cx="96.9" cy="150.3" r="1.8" fill="#00847E"></circle><circle cx="108.6" cy="143.6" r="1.8" fill="#00847E"></circle><circle cx="120.3" cy="139.2" r="1.8" fill="#00847E"></circle><circle cx="132.1" cy="136.6" r="1.8" fill="#00847E"></circle><circle cx="143.8" cy="133.7" r="1.8" fill="#00847E"></circle><circle cx="155.6" cy="121.4" r="1.8" fill="#00847E"></circle><circle cx="167.3" cy="114.5" r="1.8" fill="#00847E"></circle><circle cx="179.1" cy="120.8" r="1.8" fill="#00847E"></circle><circle cx="190.8" cy="132.4" r="1.8" fill="#00847E"></circle><circle cx="202.6" cy="143.4" r="1.8" fill="#00847E"></circle><circle cx="214.3" cy="143.2" r="1.8" fill="#00847E"></circle><circle cx="226" cy="164.8" r="1.8" fill="#00847E"></circle><circle cx="237.8" cy="151.3" r="1.8" fill="#00847E"></circle><circle cx="249.5" cy="148.9" r="1.8" fill="#00847E"></circle><circle cx="261.3" cy="148.2" r="1.8" fill="#00847E"></circle><circle cx="273" cy="130.6" r="1.8" fill="#00847E"></circle><circle cx="284.8" cy="107.6" r="1.8" fill="#00847E"></circle><circle cx="296.5" cy="93.6" r="1.8" fill="#00847E"></circle><circle cx="308.2" cy="92.2" r="1.8" fill="#00847E"></circle><circle cx="320" cy="106.5" r="1.8" fill="#00847E"></circle><circle cx="331.7" cy="117" r="1.8" fill="#00847E"></circle><circle cx="343.5" cy="127.6" r="1.8" fill="#00847E"></circle><circle cx="355.2" cy="131.5" r="1.8" fill="#00847E"></circle><circle cx="367" cy="140.1" r="1.8" fill="#00847E"></circle><circle cx="378.7" cy="158.8" r="1.8" fill="#00847E"></circle><circle cx="390.4" cy="164.6" r="1.8" fill="#00847E"></circle><circle cx="402.2" cy="174.3" r="1.8" fill="#00847E"></circle><circle cx="413.9" cy="180.8" r="1.8" fill="#00847E"></circle><circle cx="425.7" cy="176.8" r="1.8" fill="#00847E"></circle><circle cx="437.4" cy="195.3" r="1.8" fill="#00847E"></circle><circle cx="449.2" cy="187.7" r="1.8" fill="#00847E"></circle><circle cx="460.9" cy="180.9" r="1.8" fill="#00847E"></circle><circle cx="472.6" cy="176.2" r="1.8" fill="#00847E"></circle><circle cx="484.4" cy="174.4" r="1.8" fill="#00847E"></circle><circle cx="496.1" cy="172.4" r="1.8" fill="#00847E"></circle><circle cx="507.9" cy="177.5" r="1.8" fill="#00847E"></circle><circle cx="519.6" cy="186.8" r="1.8" fill="#00847E"></circle><circle cx="531.4" cy="199.2" r="1.8" fill="#00847E"></circle><circle cx="543.1" cy="211.8" r="1.8" fill="#00847E"></circle><circle cx="554.8" cy="224.6" r="1.8" fill="#00847E"></circle><circle cx="566.6" cy="229.7" r="1.8" fill="#00847E"></circle><circle cx="578.3" cy="241.8" r="1.8" fill="#00847E"></circle><circle cx="590.1" cy="238.2" r="1.8" fill="#00847E"></circle><circle cx="601.8" cy="249.4" r="1.8" fill="#00847E"></circle></g></g><g><path fill="none" stroke-linecap="butt" stroke-linejoin="round" stroke="#fff" stroke-width="2.5" d="M61.6 162.6L73.4 174.8L85.1 162.3L96.9 184.2L108.6 199.7L120.3 206.3L132.1 212.4L143.8 214.8L155.6 207.1L167.3 208L179.1 218.6L190.8 215.5L202.6 220.5L214.3 224.4L226 218.9L237.8 229.8L249.5 229.6L261.3 227.7L273 238.8L284.8 238.6L296.5 239.8L308.2 238.8L320 248.2L331.7 241.4L343.5 243.3L355.2 246.7L367 265.3L378.7 270.5L390.4 273.3L402.2 285L413.9 287.4L425.7 289.3L437.4 295.9L449.2 282.1L460.9 280.5L472.6 277.2L484.4 281.1L496.1 277.8L507.9 273.4L519.6 278.7L531.4 279.1L543.1 281L554.8 288.9L566.6 296.6L578.3 286.6L590.1 277.9L601.8 283.6"></path><polyline points="61.60,162.60 73.40,174.80 85.10,162.30 96.90,184.20 108.60,199.70 120.30,206.30 132.10,212.40 143.80,214.80 155.60,207.10 167.30,208.00 179.10,218.60 190.80,215.50 202.60,220.50 214.30,224.40 226.00,218.90 237.80,229.80 249.50,229.60 261.30,227.70 273.00,238.80 284.80,238.60 296.50,239.80 308.20,238.80 320.00,248.20 331.70,241.40 343.50,243.30 355.20,246.70 367.00,265.30 378.70,270.50 390.40,273.30 402.20,285.00 413.90,287.40 425.70,289.30 437.40,295.90 449.20,282.10 460.90,280.50 472.60,277.20 484.40,281.10 496.10,277.80 507.90,273.40 519.60,278.70 531.40,279.10 543.10,281.00 554.80,288.90 566.60,296.60 578.30,286.60 590.10,277.90 601.80,283.60" stroke-linejoin="round" stroke-width="1.5" stroke="#B13507" fill="none" stroke-linecap="butt"></polyline><g><circle cx="61.6" cy="162.6" r="1.8" fill="#B13507"></circle><circle cx="73.4" cy="174.8" r="1.8" fill="#B13507"></circle><circle cx="85.1" cy="162.3" r="1.8" fill="#B13507"></circle><circle cx="96.9" cy="184.2" r="1.8" fill="#B13507"></circle><circle cx="108.6" cy="199.7" r="1.8" fill="#B13507"></circle><circle cx="120.3" cy="206.3" r="1.8" fill="#B13507"></circle><circle cx="132.1" cy="212.4" r="1.8" fill="#B13507"></circle><circle cx="143.8" cy="214.8" r="1.8" fill="#B13507"></circle><circle cx="155.6" cy="207.1" r="1.8" fill="#B13507"></circle><circle cx="167.3" cy="208" r="1.8" fill="#B13507"></circle><circle cx="179.1" cy="218.6" r="1.8" fill="#B13507"></circle><circle cx="190.8" cy="215.5" r="1.8" fill="#B13507"></circle><circle cx="202.6" cy="220.5" r="1.8" fill="#B13507"></circle><circle cx="214.3" cy="224.4" r="1.8" fill="#B13507"></circle><circle cx="226" cy="218.9" r="1.8" fill="#B13507"></circle><circle cx="237.8" cy="229.8" r="1.8" fill="#B13507"></circle><circle cx="249.5" cy="229.6" r="1.8" fill="#B13507"></circle><circle cx="261.3" cy="227.7" r="1.8" fill="#B13507"></circle><circle cx="273" cy="238.8" r="1.8" fill="#B13507"></circle><circle cx="284.8" cy="238.6" r="1.8" fill="#B13507"></circle><circle cx="296.5" cy="239.8" r="1.8" fill="#B13507"></circle><circle cx="308.2" cy="238.8" r="1.8" fill="#B13507"></circle><circle cx="320" cy="248.2" r="1.8" fill="#B13507"></circle><circle cx="331.7" cy="241.4" r="1.8" fill="#B13507"></circle><circle cx="343.5" cy="243.3" r="1.8" fill="#B13507"></circle><circle cx="355.2" cy="246.7" r="1.8" fill="#B13507"></circle><circle cx="367" cy="265.3" r="1.8" fill="#B13507"></circle><circle cx="378.7" cy="270.5" r="1.8" fill="#B13507"></circle><circle cx="390.4" cy="273.3" r="1.8" fill="#B13507"></circle><circle cx="402.2" cy="285" r="1.8" fill="#B13507"></circle><circle cx="413.9" cy="287.4" r="1.8" fill="#B13507"></circle><circle cx="425.7" cy="289.3" r="1.8" fill="#B13507"></circle><circle cx="437.4" cy="295.9" r="1.8" fill="#B13507"></circle><circle cx="449.2" cy="282.1" r="1.8" fill="#B13507"></circle><circle cx="460.9" cy="280.5" r="1.8" fill="#B13507"></circle><circle cx="472.6" cy="277.2" r="1.8" fill="#B13507"></circle><circle cx="484.4" cy="281.1" r="1.8" fill="#B13507"></circle><circle cx="496.1" cy="277.8" r="1.8" fill="#B13507"></circle><circle cx="507.9" cy="273.4" r="1.8" fill="#B13507"></circle><circle cx="519.6" cy="278.7" r="1.8" fill="#B13507"></circle><circle cx="531.4" cy="279.1" r="1.8" fill="#B13507"></circle><circle cx="543.1" cy="281" r="1.8" fill="#B13507"></circle><circle cx="554.8" cy="288.9" r="1.8" fill="#B13507"></circle><circle cx="566.6" cy="296.6" r="1.8" fill="#B13507"></circle><circle cx="578.3" cy="286.6" r="1.8" fill="#B13507"></circle><circle cx="590.1" cy="277.9" r="1.8" fill="#B13507"></circle><circle cx="601.8" cy="283.6" r="1.8" fill="#B13507"></circle></g></g><g><path fill="none" stroke-linecap="butt" stroke-linejoin="round" stroke="#fff" stroke-width="2.5" d="M61.6 162.6L73.4 177.6L85.1 175.6L96.9 165.2L108.6 175.9L120.3 182.1L132.1 186.5L143.8 195.8L155.6 207.4L167.3 218.2L179.1 223.9L190.8 227.8L202.6 238.6L214.3 255L226 268.6L237.8 286.5L249.5 301.7L261.3 306.2L273 315.3L284.8 320.4L296.5 322.4L308.2 332.6L320 330.3L331.7 316.3L343.5 320.7L355.2 316.6L367 323.8L378.7 324L390.4 327.6L402.2 333.8L413.9 328.8L425.7 336.9L437.4 356.6L449.2 360.7L460.9 362.4L472.6 364.2L484.4 372.1L496.1 371L507.9 364.3L519.6 365.6L531.4 356.4L543.1 363.8L554.8 375.5L566.6 385L578.3 396.4L590.1 397.5L601.8 397.2"></path><polyline points="61.60,162.60 73.40,177.60 85.10,175.60 96.90,165.20 108.60,175.90 120.30,182.10 132.10,186.50 143.80,195.80 155.60,207.40 167.30,218.20 179.10,223.90 190.80,227.80 202.60,238.60 214.30,255.00 226.00,268.60 237.80,286.50 249.50,301.70 261.30,306.20 273.00,315.30 284.80,320.40 296.50,322.40 308.20,332.60 320.00,330.30 331.70,316.30 343.50,320.70 355.20,316.60 367.00,323.80 378.70,324.00 390.40,327.60 402.20,333.80 413.90,328.80 425.70,336.90 437.40,356.60 449.20,360.70 460.90,362.40 472.60,364.20 484.40,372.10 496.10,371.00 507.90,364.30 519.60,365.60 531.40,356.40 543.10,363.80 554.80,375.50 566.60,385.00 578.30,396.40 590.10,397.50 601.80,397.20" stroke-linejoin="round" stroke-width="1.5" stroke="#3C4E66" fill="none" stroke-linecap="butt"></polyline><g><circle cx="61.6" cy="162.6" r="1.8" fill="#3C4E66"></circle><circle cx="73.4" cy="177.6" r="1.8" fill="#3C4E66"></circle><circle cx="85.1" cy="175.6" r="1.8" fill="#3C4E66"></circle><circle cx="96.9" cy="165.2" r="1.8" fill="#3C4E66"></circle><circle cx="108.6" cy="175.9" r="1.8" fill="#3C4E66"></circle><circle cx="120.3" cy="182.1" r="1.8" fill="#3C4E66"></circle><circle cx="132.1" cy="186.5" r="1.8" fill="#3C4E66"></circle><circle cx="143.8" cy="195.8" r="1.8" fill="#3C4E66"></circle><circle cx="155.6" cy="207.4" r="1.8" fill="#3C4E66"></circle><circle cx="167.3" cy="218.2" r="1.8" fill="#3C4E66"></circle><circle cx="179.1" cy="223.9" r="1.8" fill="#3C4E66"></circle><circle cx="190.8" cy="227.8" r="1.8" fill="#3C4E66"></circle><circle cx="202.6" cy="238.6" r="1.8" fill="#3C4E66"></circle><circle cx="214.3" cy="255" r="1.8" fill="#3C4E66"></circle><circle cx="226" cy="268.6" r="1.8" fill="#3C4E66"></circle><circle cx="237.8" cy="286.5" r="1.8" fill="#3C4E66"></circle><circle cx="249.5" cy="301.7" r="1.8" fill="#3C4E66"></circle><circle cx="261.3" cy="306.2" r="1.8" fill="#3C4E66"></circle><circle cx="273" cy="315.3" r="1.8" fill="#3C4E66"></circle><circle cx="284.8" cy="320.4" r="1.8" fill="#3C4E66"></circle><circle cx="296.5" cy="322.4" r="1.8" fill="#3C4E66"></circle><circle cx="308.2" cy="332.6" r="1.8" fill="#3C4E66"></circle><circle cx="320" cy="330.3" r="1.8" fill="#3C4E66"></circle><circle cx="331.7" cy="316.3" r="1.8" fill="#3C4E66"></circle><circle cx="343.5" cy="320.7" r="1.8" fill="#3C4E66"></circle><circle cx="355.2" cy="316.6" r="1.8" fill="#3C4E66"></circle><circle cx="367" cy="323.8" r="1.8" fill="#3C4E66"></circle><circle cx="378.7" cy="324" r="1.8" fill="#3C4E66"></circle><circle cx="390.4" cy="327.6" r="1.8" fill="#3C4E66"></circle><circle cx="402.2" cy="333.8" r="1.8" fill="#3C4E66"></circle><circle cx="413.9" cy="328.8" r="1.8" fill="#3C4E66"></circle><circle cx="425.7" cy="336.9" r="1.8" fill="#3C4E66"></circle><circle cx="437.4" cy="356.6" r="1.8" fill="#3C4E66"></circle><circle cx="449.2" cy="360.7" r="1.8" fill="#3C4E66"></circle><circle cx="460.9" cy="362.4" r="1.8" fill="#3C4E66"></circle><circle cx="472.6" cy="364.2" r="1.8" fill="#3C4E66"></circle><circle cx="484.4" cy="372.1" r="1.8" fill="#3C4E66"></circle><circle cx="496.1" cy="371" r="1.8" fill="#3C4E66"></circle><circle cx="507.9" cy="364.3" r="1.8" fill="#3C4E66"></circle><circle cx="519.6" cy="365.6" r="1.8" fill="#3C4E66"></circle><circle cx="531.4" cy="356.4" r="1.8" fill="#3C4E66"></circle><circle cx="543.1" cy="363.8" r="1.8" fill="#3C4E66"></circle><circle cx="554.8" cy="375.5" r="1.8" fill="#3C4E66"></circle><circle cx="566.6" cy="385" r="1.8" fill="#3C4E66"></circle><circle cx="578.3" cy="396.4" r="1.8" fill="#3C4E66"></circle><circle cx="590.1" cy="397.5" r="1.8" fill="#3C4E66"></circle><circle cx="601.8" cy="397.2" r="1.8" fill="#3C4E66"></circle></g></g></g></g></g><g class="SourcesFooter" style="fill:#777"><g style="fill:#777"><text font-size="12.60" x="15.0" y="582.5"><tspan x="15" y="582.48">Source: Living Planet Report (2020). World Wildlife Fund (WWF) and Zoological Society of London.</tspan></text></g><text font-size="12.60" x="603.4" y="582.5"><tspan x="603.412" y="582.48"><a target='_blank' style='fill: #777;' href='https://ourworldindata.org/biodiversity'>OurWorldInData.org/biodiversity</a>  <a style="fill: #777;" class="cclogo" href="http://creativecommons.org/licenses/by/4.0/deed.en_US" target="_blank">CC BY</a></tspan></text></g></svg>