<?xml version="1.0" encoding="UTF-8" standalone="no"?>
<svg
   xmlns:dc="http://purl.org/dc/elements/1.1/"
   xmlns:cc="http://creativecommons.org/ns#"
   xmlns:rdf="http://www.w3.org/1999/02/22-rdf-syntax-ns#"
   xmlns:svg="http://www.w3.org/2000/svg"
   xmlns="http://www.w3.org/2000/svg"
   viewBox="0 0 670.66669 670.66669"
   height="670.66669"
   width="670.66669"
   xml:space="preserve"
   id="svg2"
   version="1.1"><metadata
     id="metadata8"><rdf:RDF><cc:Work
         rdf:about=""><dc:format>image/svg+xml</dc:format><dc:type
           rdf:resource="http://purl.org/dc/dcmitype/StillImage" /><dc:title></dc:title></cc:Work></rdf:RDF></metadata><defs
     id="defs6"><clipPath
       id="clipPath78"
       clipPathUnits="userSpaceOnUse"><path
         id="path76"
         d="M 0,0 H 503.25 V 503.69 H 0 Z" /></clipPath><clipPath
       id="clipPath90"
       clipPathUnits="userSpaceOnUse"><path
         id="path88"
         d="m 43.7,378.15 h 454.07 v 62.99 H 43.7 Z" /></clipPath><clipPath
       id="clipPath150"
       clipPathUnits="userSpaceOnUse"><path
         id="path148"
         d="M 43.7,291.81 H 497.77 V 354.8 H 43.7 Z" /></clipPath><clipPath
       id="clipPath202"
       clipPathUnits="userSpaceOnUse"><path
         id="path200"
         d="m 43.7,205.47 h 454.07 v 62.99 H 43.7 Z" /></clipPath><clipPath
       id="clipPath256"
       clipPathUnits="userSpaceOnUse"><path
         id="path254"
         d="m 43.7,119.13 h 454.07 v 62.99 H 43.7 Z" /></clipPath><clipPath
       id="clipPath308"
       clipPathUnits="userSpaceOnUse"><path
         id="path306"
         d="M 43.7,32.79 H 497.77 V 95.78 H 43.7 Z" /></clipPath><clipPath
       id="clipPath360"
       clipPathUnits="userSpaceOnUse"><path
         id="path358"
         d="m 43.7,95.78 h 454.07 v 17.87 H 43.7 Z" /></clipPath><clipPath
       id="clipPath368"
       clipPathUnits="userSpaceOnUse"><path
         id="path366"
         d="m 43.7,95.78 h 454.07 v 17.87 H 43.7 Z" /></clipPath><clipPath
       id="clipPath382"
       clipPathUnits="userSpaceOnUse"><path
         id="path380"
         d="m 43.7,95.78 h 454.07 v 17.87 H 43.7 Z" /></clipPath><clipPath
       id="clipPath390"
       clipPathUnits="userSpaceOnUse"><path
         id="path388"
         d="m 43.7,95.78 h 454.07 v 17.87 H 43.7 Z" /></clipPath><clipPath
       id="clipPath400"
       clipPathUnits="userSpaceOnUse"><path
         id="path398"
         d="m 43.7,182.12 h 454.07 v 17.87 H 43.7 Z" /></clipPath><clipPath
       id="clipPath408"
       clipPathUnits="userSpaceOnUse"><path
         id="path406"
         d="m 43.7,182.12 h 454.07 v 17.87 H 43.7 Z" /></clipPath><clipPath
       id="clipPath422"
       clipPathUnits="userSpaceOnUse"><path
         id="path420"
         d="m 43.7,182.12 h 454.07 v 17.87 H 43.7 Z" /></clipPath><clipPath
       id="clipPath430"
       clipPathUnits="userSpaceOnUse"><path
         id="path428"
         d="m 43.7,182.12 h 454.07 v 17.87 H 43.7 Z" /></clipPath><clipPath
       id="clipPath440"
       clipPathUnits="userSpaceOnUse"><path
         id="path438"
         d="m 43.7,268.46 h 454.07 v 17.87 H 43.7 Z" /></clipPath><clipPath
       id="clipPath448"
       clipPathUnits="userSpaceOnUse"><path
         id="path446"
         d="m 43.7,268.46 h 454.07 v 17.87 H 43.7 Z" /></clipPath><clipPath
       id="clipPath462"
       clipPathUnits="userSpaceOnUse"><path
         id="path460"
         d="m 43.7,268.46 h 454.07 v 17.87 H 43.7 Z" /></clipPath><clipPath
       id="clipPath470"
       clipPathUnits="userSpaceOnUse"><path
         id="path468"
         d="m 43.7,268.46 h 454.07 v 17.87 H 43.7 Z" /></clipPath><clipPath
       id="clipPath480"
       clipPathUnits="userSpaceOnUse"><path
         id="path478"
         d="m 43.7,354.8 h 454.07 v 17.87 H 43.7 Z" /></clipPath><clipPath
       id="clipPath488"
       clipPathUnits="userSpaceOnUse"><path
         id="path486"
         d="m 43.7,354.8 h 454.07 v 17.87 H 43.7 Z" /></clipPath><clipPath
       id="clipPath502"
       clipPathUnits="userSpaceOnUse"><path
         id="path500"
         d="m 43.7,354.8 h 454.07 v 17.87 H 43.7 Z" /></clipPath><clipPath
       id="clipPath510"
       clipPathUnits="userSpaceOnUse"><path
         id="path508"
         d="m 43.7,354.8 h 454.07 v 17.87 H 43.7 Z" /></clipPath><clipPath
       id="clipPath520"
       clipPathUnits="userSpaceOnUse"><path
         id="path518"
         d="m 43.7,441.14 h 454.07 v 17.87 H 43.7 Z" /></clipPath><clipPath
       id="clipPath528"
       clipPathUnits="userSpaceOnUse"><path
         id="path526"
         d="m 43.7,441.14 h 454.07 v 17.87 H 43.7 Z" /></clipPath><clipPath
       id="clipPath542"
       clipPathUnits="userSpaceOnUse"><path
         id="path540"
         d="m 43.7,441.14 h 454.07 v 17.87 H 43.7 Z" /></clipPath><clipPath
       id="clipPath550"
       clipPathUnits="userSpaceOnUse"><path
         id="path548"
         d="m 43.7,441.14 h 454.07 v 17.87 H 43.7 Z" /></clipPath></defs><g
     transform="matrix(1.3333333,0,0,-1.3333333,0,670.66667)"
     id="g10"><g
       id="g12" /><g
       id="g14" /><g
       id="g16" /><g
       id="g18" /><g
       id="g20" /><g
       id="g22" /><g
       id="g24" /><g
       id="g26" /><g
       id="g28" /><g
       id="g30" /><g
       id="g32" /><g
       id="g34" /><g
       id="g36" /><g
       id="g38" /><g
       id="g40" /><g
       id="g42" /><g
       id="g44" /><g
       id="g46" /><g
       id="g48" /><g
       id="g50" /><g
       id="g52" /><g
       id="g54" /><g
       id="g56" /><g
       id="g58" /><g
       id="g60" /><g
       id="g62" /><g
       id="g64" /><g
       id="g66" /><g
       id="g68" /><g
       id="g70" /><g
       id="g72"><g
         clip-path="url(#clipPath78)"
         id="g74"><path
           id="path80"
           style="fill:#ffffff;fill-opacity:1;fill-rule:nonzero;stroke:#ffffff;stroke-width:1.07000005;stroke-linecap:round;stroke-linejoin:round;stroke-miterlimit:10;stroke-dasharray:none;stroke-opacity:1"
           d="M 0,0 H 503.25 V 503.69 H 0 Z" /></g></g><g
       id="g82" /><g
       id="g84"><g
         clip-path="url(#clipPath90)"
         id="g86"><path
           id="path92"
           style="fill:#ffffff;fill-opacity:1;fill-rule:nonzero;stroke:none"
           d="m 43.7,378.15 h 454.07 v 62.99 H 43.7 Z" /><path
           id="path94"
           style="fill:none;stroke:#ebebeb;stroke-width:0.52999997;stroke-linecap:butt;stroke-linejoin:round;stroke-miterlimit:10;stroke-dasharray:none;stroke-opacity:1"
           d="M 43.7,385.82 H 497.77" /><path
           id="path96"
           style="fill:none;stroke:#ebebeb;stroke-width:0.52999997;stroke-linecap:butt;stroke-linejoin:round;stroke-miterlimit:10;stroke-dasharray:none;stroke-opacity:1"
           d="M 43.7,397.38 H 497.77" /><path
           id="path98"
           style="fill:none;stroke:#ebebeb;stroke-width:0.52999997;stroke-linecap:butt;stroke-linejoin:round;stroke-miterlimit:10;stroke-dasharray:none;stroke-opacity:1"
           d="M 43.7,408.93 H 497.77" /><path
           id="path100"
           style="fill:none;stroke:#ebebeb;stroke-width:0.52999997;stroke-linecap:butt;stroke-linejoin:round;stroke-miterlimit:10;stroke-dasharray:none;stroke-opacity:1"
           d="M 43.7,420.49 H 497.77" /><path
           id="path102"
           style="fill:none;stroke:#ebebeb;stroke-width:0.52999997;stroke-linecap:butt;stroke-linejoin:round;stroke-miterlimit:10;stroke-dasharray:none;stroke-opacity:1"
           d="M 43.7,432.05 H 497.77" /><path
           id="path104"
           style="fill:none;stroke:#ebebeb;stroke-width:0.52999997;stroke-linecap:butt;stroke-linejoin:round;stroke-miterlimit:10;stroke-dasharray:none;stroke-opacity:1"
           d="m 81.91,378.15 v 62.99" /><path
           id="path106"
           style="fill:none;stroke:#ebebeb;stroke-width:0.52999997;stroke-linecap:butt;stroke-linejoin:round;stroke-miterlimit:10;stroke-dasharray:none;stroke-opacity:1"
           d="m 169.74,378.15 v 62.99" /><path
           id="path108"
           style="fill:none;stroke:#ebebeb;stroke-width:0.52999997;stroke-linecap:butt;stroke-linejoin:round;stroke-miterlimit:10;stroke-dasharray:none;stroke-opacity:1"
           d="m 257.56,378.15 v 62.99" /><path
           id="path110"
           style="fill:none;stroke:#ebebeb;stroke-width:0.52999997;stroke-linecap:butt;stroke-linejoin:round;stroke-miterlimit:10;stroke-dasharray:none;stroke-opacity:1"
           d="m 345.39,378.15 v 62.99" /><path
           id="path112"
           style="fill:none;stroke:#ebebeb;stroke-width:0.52999997;stroke-linecap:butt;stroke-linejoin:round;stroke-miterlimit:10;stroke-dasharray:none;stroke-opacity:1"
           d="m 433.22,378.15 v 62.99" /><path
           id="path114"
           style="fill:none;stroke:#ebebeb;stroke-width:1.07000005;stroke-linecap:butt;stroke-linejoin:round;stroke-miterlimit:10;stroke-dasharray:none;stroke-opacity:1"
           d="M 43.7,380.04 H 497.77" /><path
           id="path116"
           style="fill:none;stroke:#ebebeb;stroke-width:1.07000005;stroke-linecap:butt;stroke-linejoin:round;stroke-miterlimit:10;stroke-dasharray:none;stroke-opacity:1"
           d="M 43.7,391.6 H 497.77" /><path
           id="path118"
           style="fill:none;stroke:#ebebeb;stroke-width:1.07000005;stroke-linecap:butt;stroke-linejoin:round;stroke-miterlimit:10;stroke-dasharray:none;stroke-opacity:1"
           d="M 43.7,403.16 H 497.77" /><path
           id="path120"
           style="fill:none;stroke:#ebebeb;stroke-width:1.07000005;stroke-linecap:butt;stroke-linejoin:round;stroke-miterlimit:10;stroke-dasharray:none;stroke-opacity:1"
           d="M 43.7,414.71 H 497.77" /><path
           id="path122"
           style="fill:none;stroke:#ebebeb;stroke-width:1.07000005;stroke-linecap:butt;stroke-linejoin:round;stroke-miterlimit:10;stroke-dasharray:none;stroke-opacity:1"
           d="M 43.7,426.27 H 497.77" /><path
           id="path124"
           style="fill:none;stroke:#ebebeb;stroke-width:1.07000005;stroke-linecap:butt;stroke-linejoin:round;stroke-miterlimit:10;stroke-dasharray:none;stroke-opacity:1"
           d="M 43.7,437.83 H 497.77" /><path
           id="path126"
           style="fill:none;stroke:#ebebeb;stroke-width:1.07000005;stroke-linecap:butt;stroke-linejoin:round;stroke-miterlimit:10;stroke-dasharray:none;stroke-opacity:1"
           d="m 125.82,378.15 v 62.99" /><path
           id="path128"
           style="fill:none;stroke:#ebebeb;stroke-width:1.07000005;stroke-linecap:butt;stroke-linejoin:round;stroke-miterlimit:10;stroke-dasharray:none;stroke-opacity:1"
           d="m 213.65,378.15 v 62.99" /><path
           id="path130"
           style="fill:none;stroke:#ebebeb;stroke-width:1.07000005;stroke-linecap:butt;stroke-linejoin:round;stroke-miterlimit:10;stroke-dasharray:none;stroke-opacity:1"
           d="m 301.48,378.15 v 62.99" /><path
           id="path132"
           style="fill:none;stroke:#ebebeb;stroke-width:1.07000005;stroke-linecap:butt;stroke-linejoin:round;stroke-miterlimit:10;stroke-dasharray:none;stroke-opacity:1"
           d="m 389.3,378.15 v 62.99" /><path
           id="path134"
           style="fill:none;stroke:#ebebeb;stroke-width:1.07000005;stroke-linecap:butt;stroke-linejoin:round;stroke-miterlimit:10;stroke-dasharray:none;stroke-opacity:1"
           d="m 477.13,378.15 v 62.99" /><path
           id="path136"
           style="fill:#f8766d;fill-opacity:0.2;fill-rule:nonzero;stroke:none"
           d="m 64.34,390.63 2.08,0.14 2.07,0.13 2.08,0.11 2.07,0.18 2.08,0.15 2.07,0.15 2.07,0.23 2.08,0.24 2.07,0.33 2.08,0.36 2.07,0.27 2.08,0.36 2.07,0.32 2.07,0.35 2.08,0.34 2.07,0.41 2.08,0.27 2.07,0.37 2.08,0.3 2.07,0.3 2.07,0.29 2.08,0.29 2.07,0.25 2.08,0.19 2.07,0.16 2.08,0.15 2.07,0.16 2.07,0.12 2.08,0.18 2.07,0.06 2.08,0.14 2.07,0.11 2.08,0.13 2.07,0.07 2.07,0.05 2.08,0.11 2.07,0.1 2.08,0.1 2.07,0.04 2.08,0.04 2.07,0.03 2.07,0.03 2.08,-0.01 2.07,-0.02 2.08,-0.05 2.07,-0.13 2.08,-0.09 2.07,-0.1 2.08,-0.11 2.07,-0.1 2.07,-0.13 2.08,-0.1 2.07,-0.14 2.08,-0.09 2.07,-0.12 2.08,-0.21 2.07,-0.15 2.07,-0.08 2.08,-0.12 2.07,-0.16 2.08,-0.11 2.07,-0.11 2.08,-0.15 2.07,-0.11 2.07,-0.13 2.08,-0.06 2.07,-0.04 2.08,-0.02 2.07,-0.02 h 2.08 l 2.07,0.03 2.07,0.02 2.08,0.08 2.07,0.12 2.08,0.15 2.07,0.12 2.08,0.2 2.07,0.31 2.07,0.31 2.08,0.32 2.07,0.38 2.08,0.42 2.07,0.39 2.08,0.47 2.07,0.52 2.07,0.54 2.08,0.6 2.07,0.63 2.08,0.67 2.07,0.77 2.08,0.73 2.07,0.82 2.07,0.79 2.08,0.87 2.07,0.98 2.08,1.04 2.07,0.89 2.08,1.04 2.07,1.05 2.07,1.17 2.08,1.14 2.07,1.19 2.08,1.15 2.07,1.18 2.08,1.2 2.07,1.11 2.07,1.05 2.08,1.01 2.07,1.01 2.08,1.05 2.07,1.05 2.08,0.87 2.07,0.83 2.08,0.91 2.07,0.81 2.07,0.81 2.08,0.73 2.07,0.52 2.08,0.47 2.07,0.38 2.08,0.24 2.07,0.27 2.07,0.26 2.08,0.28 2.07,0.21 2.08,0.2 2.07,0.11 2.08,-0.02 2.07,-0.02 2.07,-0.14 2.08,-0.11 2.07,-0.21 2.08,-0.14 2.07,-0.18 2.08,-0.34 2.07,-0.15 2.07,-0.24 2.08,-0.24 2.07,-0.17 2.08,-0.16 2.07,-0.15 2.08,-0.04 2.07,-0.33 2.07,-0.3 2.08,-0.16 2.07,-0.26 2.08,0.02 2.07,0.09 2.08,0.04 2.07,-0.11 2.07,-0.01 2.08,0.24 2.07,-0.01 2.08,0.11 2.07,0.2 2.08,0.08 2.07,0.24 2.07,0.11 2.08,0.19 2.07,0.28 2.08,0.18 2.07,0.17 2.08,0.13 2.07,0.17 2.07,0.17 2.08,0.1 2.07,0.36 2.08,0.27 2.07,0.23 2.08,0.39 2.07,0.21 2.07,0.01 2.08,0.25 2.07,0.35 2.08,0.15 2.07,0.15 2.08,0.22 2.07,0.01 2.08,0.18 2.07,0.19 2.07,0.14 2.08,0.04 2.07,-0.11 2.08,-0.05 2.07,0.01 2.08,-0.12 2.07,-0.02 2.07,0.08 2.08,0.23 2.07,0.1 2.08,0.19 2.07,0.19 2.08,0.23 2.07,0.25 2.07,0.43 2.08,0.53 2.07,0.34 2.08,0.73 2.07,0.54 v -35.4 l -2.07,0.55 -2.08,0.7 -2.07,0.73 -2.08,0.74 -2.07,0.6 -2.07,0.62 -2.08,0.74 -2.07,0.61 -2.08,0.44 -2.07,0.62 -2.08,0.56 -2.07,0.42 -2.07,0.29 -2.08,0.32 -2.07,0.32 -2.08,0.22 -2.07,0.26 -2.08,0.16 -2.07,0.16 -2.07,0.11 -2.08,0.08 -2.07,0.19 -2.08,0.14 -2.07,-0.03 -2.08,0.02 -2.07,-0.02 -2.08,-0.08 -2.07,-0.04 -2.07,-0.09 -2.08,-0.17 -2.07,-0.2 -2.08,-0.08 -2.07,-0.13 -2.08,-0.04 -2.07,-0.26 -2.07,-0.22 -2.08,-0.21 -2.07,-0.23 -2.08,-0.2 -2.07,-0.22 -2.08,-0.07 -2.07,-0.05 -2.07,-0.11 -2.08,-0.03 h -2.07 -2.08 l -2.07,-0.14 -2.08,0.06 -2.07,-0.01 -2.07,-0.02 -2.08,0.1 -2.07,0.11 -2.08,0.13 -2.07,0.11 -2.08,0.11 -2.07,0.21 -2.07,0.23 -2.08,0.22 -2.07,0.19 -2.08,0.2 -2.07,0.33 -2.08,0.21 -2.07,0.27 -2.07,0.25 -2.08,0.16 -2.07,0.24 -2.08,0.31 -2.07,0.25 -2.08,0.21 -2.07,0.34 -2.07,0.09 -2.08,0.21 -2.07,0.16 -2.08,0.1 -2.07,0.01 -2.08,-0.1 -2.07,-0.09 -2.07,-0.09 -2.08,-0.1 -2.07,-0.43 -2.08,-0.35 -2.07,-0.51 -2.08,-0.4 -2.07,-0.53 -2.07,-0.51 -2.08,-0.65 -2.07,-0.61 -2.08,-0.6 -2.07,-0.67 -2.08,-0.73 -2.07,-0.74 -2.08,-0.79 -2.07,-0.78 -2.07,-0.78 -2.08,-0.87 -2.07,-0.86 -2.08,-0.85 -2.07,-0.86 -2.08,-0.92 -2.07,-0.82 -2.07,-0.77 -2.08,-0.81 -2.07,-0.78 -2.08,-0.77 -2.07,-0.77 -2.08,-0.7 -2.07,-0.62 -2.07,-0.66 -2.08,-0.6 -2.07,-0.54 -2.08,-0.57 -2.07,-0.48 -2.08,-0.43 -2.07,-0.35 -2.07,-0.35 -2.08,-0.31 -2.07,-0.3 -2.08,-0.26 -2.07,-0.18 -2.08,-0.18 -2.07,-0.15 -2.07,-0.13 -2.08,-0.11 -2.07,-0.12 -2.08,-0.11 h -2.07 l -2.08,-0.02 h -2.07 l -2.07,0.01 -2.08,-0.03 -2.07,0.05 h -2.08 l -2.07,0.06 -2.08,0.05 -2.07,0.11 -2.07,0.08 -2.08,0.1 -2.07,0.1 -2.08,0.09 -2.07,0.13 -2.08,0.14 -2.07,0.15 -2.07,0.15 -2.08,0.13 -2.07,0.12 -2.08,0.12 -2.07,0.14 -2.08,0.1 -2.07,0.09 -2.07,0.1 -2.08,0.09 -2.07,0.05 -2.08,0.02 -2.07,0.04 -2.08,0.05 -2.07,0.01 -2.08,0.05 -2.07,0.03 -2.07,0.03 -2.08,0.04 -2.07,-0.02 h -2.08 l -2.07,-0.04 -2.08,-0.04 -2.07,-0.04 -2.07,-0.01 -2.08,-0.06 -2.07,-0.08 -2.08,-0.11 -2.07,-0.16 -2.08,-0.14 -2.07,-0.16 -2.07,-0.18 -2.08,-0.19 -2.07,-0.23 -2.08,-0.2 -2.07,-0.24 -2.08,-0.26 -2.07,-0.23 -2.07,-0.27 -2.08,-0.28 -2.07,-0.32 -2.08,-0.29 -2.07,-0.32 -2.08,-0.31 -2.07,-0.31 -2.07,-0.33 -2.08,-0.37 -2.07,-0.35 -2.08,-0.38 -2.07,-0.43 -2.08,-0.48 -2.07,-0.42 -2.07,-0.49 -2.08,-0.48 -2.07,-0.49 -2.08,-0.54 -2.07,-0.51 -2.08,-0.55 z" /><path
           id="path138"
           style="fill:none;stroke:#f8766d;stroke-width:1.07000005;stroke-linecap:butt;stroke-linejoin:round;stroke-miterlimit:10;stroke-dasharray:none;stroke-opacity:1"
           d="m 64.34,385.1 2.08,0.36 2.07,0.36 2.08,0.39 2.07,0.38 2.08,0.35 2.07,0.42 2.07,0.4 2.08,0.39 2.07,0.39 2.08,0.39 2.07,0.4 2.08,0.38 2.07,0.36 2.07,0.36 2.08,0.35 2.07,0.33 2.08,0.3 2.07,0.3 2.08,0.3 2.07,0.28 2.07,0.26 2.08,0.27 2.07,0.24 2.08,0.24 2.07,0.21 2.08,0.21 2.07,0.17 2.07,0.14 2.08,0.13 2.07,0.14 2.08,0.11 2.07,0.09 2.08,0.09 2.07,0.08 2.07,0.05 2.08,0.04 2.07,0.02 2.08,0.02 2.07,0.02 2.08,0.02 2.07,-0.02 2.07,-0.03 2.08,-0.04 2.07,-0.07 2.08,-0.07 2.07,-0.09 2.08,-0.08 2.07,-0.08 2.08,-0.07 2.07,-0.09 2.07,-0.1 2.08,-0.1 2.07,-0.12 2.08,-0.1 2.07,-0.12 2.08,-0.09 2.07,-0.12 2.07,-0.11 2.08,-0.13 2.07,-0.13 2.08,-0.14 2.07,-0.12 2.08,-0.1 2.07,-0.09 2.07,-0.1 2.08,-0.07 2.07,-0.09 2.08,-0.06 2.07,-0.03 2.08,-0.04 2.07,-0.01 2.07,0.02 2.08,0.05 2.07,0.07 2.08,0.1 2.07,0.1 2.08,0.15 2.07,0.16 2.07,0.21 2.08,0.22 2.07,0.27 2.08,0.33 2.07,0.35 2.08,0.37 2.07,0.42 2.07,0.45 2.08,0.51 2.07,0.55 2.08,0.61 2.07,0.64 2.08,0.7 2.07,0.72 2.07,0.77 2.08,0.78 2.07,0.82 2.08,0.86 2.07,0.89 2.08,0.92 2.07,0.92 2.07,0.96 2.08,1 2.07,1.01 2.08,0.97 2.07,1.01 2.08,0.97 2.07,1.01 2.07,0.94 2.08,0.95 2.07,0.92 2.08,0.89 2.07,0.87 2.08,0.77 2.07,0.77 2.08,0.72 2.07,0.7 2.07,0.59 2.08,0.52 2.07,0.46 2.08,0.44 2.07,0.39 2.08,0.22 2.07,0.23 2.07,0.14 2.08,0.11 2.07,0.04 2.08,-0.03 2.07,-0.1 2.08,-0.1 2.07,-0.2 2.07,-0.14 2.08,-0.16 2.07,-0.21 2.08,-0.26 2.07,-0.3 2.08,-0.24 2.07,-0.27 2.07,-0.28 2.08,-0.23 2.07,-0.26 2.08,-0.25 2.07,-0.24 2.08,-0.23 2.07,-0.24 2.07,-0.26 2.08,-0.13 2.07,-0.07 2.08,-0.05 2.07,-0.06 2.08,-0.01 h 2.07 l 2.07,0.07 2.08,0.04 2.07,0.1 2.08,0.03 2.07,0.12 2.08,0.03 2.07,0.16 2.07,0.19 2.08,0.18 2.07,0.21 2.08,0.17 2.07,0.24 2.08,0.21 2.07,0.18 2.07,0.17 2.08,0.24 2.07,0.25 2.08,0.19 2.07,0.15 2.08,0.21 2.07,0.18 2.07,0.11 2.08,0.17 2.07,0.1 2.08,0.12 2.07,0.1 2.08,0.04 2.07,-0.01 h 2.08 l 2.07,-0.12 2.07,-0.09 2.08,-0.11 2.07,-0.14 2.08,-0.17 2.07,-0.25 2.08,-0.18 2.07,-0.31 2.07,-0.26 2.08,-0.27 2.07,-0.26 2.08,-0.29 2.07,-0.25 2.08,-0.31 2.07,-0.34 2.07,-0.28 2.08,-0.29 2.07,-0.32 2.08,-0.32 2.07,-0.38" /><path
           id="path140"
           style="fill:none;stroke:#333333;stroke-width:1.07000005;stroke-linecap:round;stroke-linejoin:round;stroke-miterlimit:10;stroke-dasharray:none;stroke-opacity:1"
           d="m 43.7,378.15 h 454.07 v 62.99 H 43.7 Z" /></g></g><g
       id="g142" /><g
       id="g144"><g
         clip-path="url(#clipPath150)"
         id="g146"><path
           id="path152"
           style="fill:#ffffff;fill-opacity:1;fill-rule:nonzero;stroke:none"
           d="M 43.7,291.81 H 497.77 V 354.8 H 43.7 Z" /><path
           id="path154"
           style="fill:none;stroke:#ebebeb;stroke-width:0.52999997;stroke-linecap:butt;stroke-linejoin:round;stroke-miterlimit:10;stroke-dasharray:none;stroke-opacity:1"
           d="M 43.7,296.48 H 497.77" /><path
           id="path156"
           style="fill:none;stroke:#ebebeb;stroke-width:0.52999997;stroke-linecap:butt;stroke-linejoin:round;stroke-miterlimit:10;stroke-dasharray:none;stroke-opacity:1"
           d="M 43.7,315.79 H 497.77" /><path
           id="path158"
           style="fill:none;stroke:#ebebeb;stroke-width:0.52999997;stroke-linecap:butt;stroke-linejoin:round;stroke-miterlimit:10;stroke-dasharray:none;stroke-opacity:1"
           d="M 43.7,335.09 H 497.77" /><path
           id="path160"
           style="fill:none;stroke:#ebebeb;stroke-width:0.52999997;stroke-linecap:butt;stroke-linejoin:round;stroke-miterlimit:10;stroke-dasharray:none;stroke-opacity:1"
           d="M 43.7,354.4 H 497.77" /><path
           id="path162"
           style="fill:none;stroke:#ebebeb;stroke-width:0.52999997;stroke-linecap:butt;stroke-linejoin:round;stroke-miterlimit:10;stroke-dasharray:none;stroke-opacity:1"
           d="M 81.91,291.81 V 354.8" /><path
           id="path164"
           style="fill:none;stroke:#ebebeb;stroke-width:0.52999997;stroke-linecap:butt;stroke-linejoin:round;stroke-miterlimit:10;stroke-dasharray:none;stroke-opacity:1"
           d="M 169.74,291.81 V 354.8" /><path
           id="path166"
           style="fill:none;stroke:#ebebeb;stroke-width:0.52999997;stroke-linecap:butt;stroke-linejoin:round;stroke-miterlimit:10;stroke-dasharray:none;stroke-opacity:1"
           d="M 257.56,291.81 V 354.8" /><path
           id="path168"
           style="fill:none;stroke:#ebebeb;stroke-width:0.52999997;stroke-linecap:butt;stroke-linejoin:round;stroke-miterlimit:10;stroke-dasharray:none;stroke-opacity:1"
           d="M 345.39,291.81 V 354.8" /><path
           id="path170"
           style="fill:none;stroke:#ebebeb;stroke-width:0.52999997;stroke-linecap:butt;stroke-linejoin:round;stroke-miterlimit:10;stroke-dasharray:none;stroke-opacity:1"
           d="M 433.22,291.81 V 354.8" /><path
           id="path172"
           style="fill:none;stroke:#ebebeb;stroke-width:1.07000005;stroke-linecap:butt;stroke-linejoin:round;stroke-miterlimit:10;stroke-dasharray:none;stroke-opacity:1"
           d="M 43.7,306.13 H 497.77" /><path
           id="path174"
           style="fill:none;stroke:#ebebeb;stroke-width:1.07000005;stroke-linecap:butt;stroke-linejoin:round;stroke-miterlimit:10;stroke-dasharray:none;stroke-opacity:1"
           d="M 43.7,325.44 H 497.77" /><path
           id="path176"
           style="fill:none;stroke:#ebebeb;stroke-width:1.07000005;stroke-linecap:butt;stroke-linejoin:round;stroke-miterlimit:10;stroke-dasharray:none;stroke-opacity:1"
           d="M 43.7,344.74 H 497.77" /><path
           id="path178"
           style="fill:none;stroke:#ebebeb;stroke-width:1.07000005;stroke-linecap:butt;stroke-linejoin:round;stroke-miterlimit:10;stroke-dasharray:none;stroke-opacity:1"
           d="M 125.82,291.81 V 354.8" /><path
           id="path180"
           style="fill:none;stroke:#ebebeb;stroke-width:1.07000005;stroke-linecap:butt;stroke-linejoin:round;stroke-miterlimit:10;stroke-dasharray:none;stroke-opacity:1"
           d="M 213.65,291.81 V 354.8" /><path
           id="path182"
           style="fill:none;stroke:#ebebeb;stroke-width:1.07000005;stroke-linecap:butt;stroke-linejoin:round;stroke-miterlimit:10;stroke-dasharray:none;stroke-opacity:1"
           d="M 301.48,291.81 V 354.8" /><path
           id="path184"
           style="fill:none;stroke:#ebebeb;stroke-width:1.07000005;stroke-linecap:butt;stroke-linejoin:round;stroke-miterlimit:10;stroke-dasharray:none;stroke-opacity:1"
           d="M 389.3,291.81 V 354.8" /><path
           id="path186"
           style="fill:none;stroke:#ebebeb;stroke-width:1.07000005;stroke-linecap:butt;stroke-linejoin:round;stroke-miterlimit:10;stroke-dasharray:none;stroke-opacity:1"
           d="M 477.13,291.81 V 354.8" /><path
           id="path188"
           style="fill:#a3a500;fill-opacity:0.2;fill-rule:nonzero;stroke:none"
           d="m 64.34,300.86 2.08,-0.02 2.07,-0.06 2.08,-0.03 2.07,-0.04 2.08,-0.02 2.07,0.01 h 2.07 l 2.08,0.01 2.07,0.01 2.08,0.03 h 2.07 l 2.08,0.02 2.07,0.01 2.07,0.01 2.08,0.04 2.07,0.03 2.08,0.08 2.07,0.04 2.08,0.03 2.07,0.01 h 2.07 l 2.08,0.03 2.07,0.01 2.08,0.02 2.07,0.02 2.08,-0.01 2.07,0.02 2.07,0.03 2.08,-0.02 2.07,0.01 2.08,0.03 2.07,0.02 2.08,0.02 2.07,0.06 2.07,0.02 2.08,0.01 2.07,0.02 2.08,-0.01 2.07,0.05 2.08,0.04 2.07,0.04 2.07,0.02 2.08,0.05 2.07,0.04 2.08,0.01 2.07,0.02 2.08,0.03 2.07,0.04 2.08,0.04 2.07,0.03 2.07,0.03 2.08,0.02 2.07,0.05 2.08,0.03 2.07,0.04 2.08,0.07 2.07,0.06 2.07,0.04 2.08,0.05 2.07,0.06 2.08,0.05 2.07,0.07 2.08,0.08 2.07,0.08 2.07,0.07 2.08,0.08 2.07,0.09 2.08,0.11 2.07,0.12 2.08,0.11 2.07,0.14 2.07,0.11 2.08,0.14 2.07,0.17 2.08,0.19 2.07,0.22 2.08,0.22 2.07,0.24 2.07,0.27 2.08,0.29 2.07,0.32 2.08,0.32 2.07,0.35 2.08,0.34 2.07,0.38 2.07,0.41 2.08,0.43 2.07,0.47 2.08,0.5 2.07,0.52 2.08,0.57 2.07,0.58 2.07,0.58 2.08,0.64 2.07,0.66 2.08,0.68 2.07,0.75 2.08,0.76 2.07,0.78 2.07,0.8 2.08,0.81 2.07,0.88 2.08,0.84 2.07,0.98 2.08,0.97 2.07,0.98 2.07,0.97 2.08,1 2.07,1.02 2.08,0.93 2.07,0.96 2.08,0.98 2.07,0.98 2.08,0.88 2.07,0.82 2.07,0.81 2.08,0.81 2.07,0.77 2.08,0.6 2.07,0.7 2.08,0.63 2.07,0.49 2.07,0.51 2.08,0.44 2.07,0.34 2.08,0.32 2.07,0.21 2.08,0.21 2.07,0.07 2.07,0.11 2.08,0.12 2.07,0.06 2.08,0.05 2.07,0.08 2.08,-0.1 2.07,-0.05 2.07,-0.05 2.08,-0.15 2.07,-0.1 2.08,-0.05 2.07,-0.07 2.08,-0.11 2.07,-0.05 2.07,-0.05 2.08,-0.07 2.07,-0.01 2.08,0.05 h 2.07 l 2.08,0.08 2.07,0.13 2.07,0.03 2.08,0.06 2.07,0.15 2.08,0.14 2.07,0.19 2.08,0.2 2.07,0.19 2.07,0.25 2.08,0.31 2.07,0.24 2.08,0.3 2.07,0.31 2.08,0.3 2.07,0.27 2.07,0.27 2.08,0.26 2.07,0.34 2.08,0.42 2.07,0.42 2.08,0.31 2.07,0.43 2.07,0.49 2.08,0.37 2.07,0.4 2.08,0.49 2.07,0.48 2.08,0.45 2.07,0.26 2.08,0.35 2.07,0.3 2.07,0.21 2.08,0.21 2.07,0.35 2.08,0.2 2.07,0.19 2.08,0.2 2.07,0.16 2.07,0.22 2.08,0.34 2.07,0.31 2.08,0.24 2.07,0.35 2.08,0.38 2.07,0.39 2.07,0.55 2.08,0.42 2.07,0.43 2.08,0.49 2.07,0.74 v -24.37 l -2.07,0.46 -2.08,0.45 -2.07,0.4 -2.08,0.39 -2.07,0.33 -2.07,0.4 -2.08,0.31 -2.07,0.28 -2.08,0.27 -2.07,0.16 -2.08,0.17 -2.07,0.09 -2.07,0.14 -2.08,0.04 -2.07,0.03 -2.08,-0.04 -2.07,-0.06 -2.08,-0.11 -2.07,-0.09 -2.07,-0.17 -2.08,-0.15 -2.07,-0.05 -2.08,-0.14 -2.07,-0.22 -2.08,-0.19 -2.07,-0.19 -2.08,-0.27 -2.07,-0.35 -2.07,-0.36 -2.08,-0.37 -2.07,-0.29 -2.08,-0.3 -2.07,-0.29 -2.08,-0.34 -2.07,-0.3 -2.07,-0.33 -2.08,-0.32 -2.07,-0.26 -2.08,-0.27 -2.07,-0.24 -2.08,-0.26 -2.07,-0.27 -2.07,-0.18 -2.08,-0.26 -2.07,-0.16 -2.08,-0.09 -2.07,-0.11 -2.08,-0.08 -2.07,-0.02 -2.07,0.01 -2.08,0.01 -2.07,0.04 -2.08,0.13 -2.07,0.1 -2.08,0.05 -2.07,0.09 -2.07,0.17 -2.08,0.05 -2.07,0.14 -2.08,0.07 -2.07,0.1 -2.08,0.09 -2.07,0.07 -2.07,0.03 -2.08,0.02 -2.07,-0.01 -2.08,-0.03 -2.07,0.03 -2.08,-0.1 -2.07,-0.17 -2.07,-0.17 -2.08,-0.08 -2.07,-0.2 -2.08,-0.28 -2.07,-0.27 -2.08,-0.36 -2.07,-0.44 -2.07,-0.47 -2.08,-0.45 -2.07,-0.43 -2.08,-0.58 -2.07,-0.57 -2.08,-0.63 -2.07,-0.68 -2.07,-0.69 -2.08,-0.7 -2.07,-0.73 -2.08,-0.68 -2.07,-0.71 -2.08,-0.72 -2.07,-0.76 -2.08,-0.74 -2.07,-0.74 -2.07,-0.76 -2.08,-0.72 -2.07,-0.73 -2.08,-0.7 -2.07,-0.68 -2.08,-0.69 -2.07,-0.65 -2.07,-0.66 -2.08,-0.58 -2.07,-0.6 -2.08,-0.56 -2.07,-0.52 -2.08,-0.52 -2.07,-0.47 -2.07,-0.46 -2.08,-0.44 -2.07,-0.41 -2.08,-0.37 -2.07,-0.34 -2.08,-0.33 -2.07,-0.29 -2.07,-0.28 -2.08,-0.25 -2.07,-0.25 -2.08,-0.22 -2.07,-0.2 -2.08,-0.17 -2.07,-0.17 -2.07,-0.16 -2.08,-0.15 -2.07,-0.14 -2.08,-0.12 -2.07,-0.15 -2.08,-0.1 -2.07,-0.11 -2.07,-0.1 -2.08,-0.07 -2.07,-0.1 -2.08,-0.09 -2.07,-0.08 -2.08,-0.09 -2.07,-0.06 -2.07,-0.07 -2.08,-0.07 -2.07,-0.05 -2.08,-0.08 -2.07,-0.07 -2.08,-0.04 -2.07,-0.05 -2.07,-0.04 -2.08,-0.05 -2.07,-0.04 -2.08,-0.04 -2.07,-0.04 -2.08,-0.04 -2.07,-0.03 -2.07,-0.04 -2.08,-0.03 -2.07,-0.03 -2.08,-0.01 -2.07,-0.05 -2.08,-0.04 -2.07,-0.01 -2.08,-0.01 -2.07,-0.02 -2.07,-0.01 -2.08,-0.01 -2.07,-0.01 h -2.08 l -2.07,0.01 h -2.08 l -2.07,-0.02 -2.07,-0.01 -2.08,-0.02 h -2.07 l -2.08,-0.04 -2.07,-0.03 -2.08,-0.05 -2.07,-0.04 -2.07,-0.03 -2.08,-0.05 -2.07,-0.06 -2.08,-0.05 -2.07,-0.07 -2.08,-0.05 -2.07,-0.06 -2.07,-0.04 -2.08,-0.06 -2.07,-0.06 -2.08,-0.07 -2.07,-0.08 -2.08,-0.09 -2.07,-0.11 -2.07,-0.09 -2.08,-0.11 -2.07,-0.12 -2.08,-0.12 -2.07,-0.12 -2.08,-0.15 -2.07,-0.16 -2.07,-0.17 -2.08,-0.18 -2.07,-0.18 -2.08,-0.16 -2.07,-0.15 -2.08,-0.18 z" /><path
           id="path190"
           style="fill:none;stroke:#a3a500;stroke-width:1.07000005;stroke-linecap:butt;stroke-linejoin:round;stroke-miterlimit:10;stroke-dasharray:none;stroke-opacity:1"
           d="m 64.34,297.17 2.08,0.09 2.07,0.09 2.08,0.09 2.07,0.08 2.08,0.09 2.07,0.09 2.07,0.09 2.08,0.09 2.07,0.1 2.08,0.08 2.07,0.1 2.08,0.09 2.07,0.09 2.07,0.07 2.08,0.08 2.07,0.08 2.08,0.07 2.07,0.07 2.08,0.06 2.07,0.05 2.07,0.06 2.08,0.06 2.07,0.05 2.08,0.05 2.07,0.02 2.08,0.04 2.07,0.04 2.07,0.02 2.08,0.03 2.07,0.02 2.08,0.02 2.07,0.02 2.08,0.03 2.07,0.02 2.07,0.02 2.08,0.02 2.07,0.03 2.08,0.01 2.07,0.02 2.08,0.01 2.07,0.02 2.07,0.02 2.08,0.02 2.07,0.02 2.08,0.02 2.07,0.03 2.08,0.04 2.07,0.02 2.08,0.03 2.07,0.03 2.07,0.04 2.08,0.04 2.07,0.05 2.08,0.04 2.07,0.04 2.08,0.05 2.07,0.06 2.07,0.04 2.08,0.05 2.07,0.05 2.08,0.04 2.07,0.07 2.08,0.06 2.07,0.06 2.07,0.08 2.08,0.06 2.07,0.09 2.08,0.09 2.07,0.1 2.08,0.1 2.07,0.1 2.07,0.12 2.08,0.12 2.07,0.14 2.08,0.15 2.07,0.17 2.08,0.17 2.07,0.19 2.07,0.21 2.08,0.23 2.07,0.26 2.08,0.27 2.07,0.29 2.08,0.3 2.07,0.33 2.07,0.35 2.08,0.38 2.07,0.41 2.08,0.42 2.07,0.46 2.08,0.48 2.07,0.5 2.07,0.53 2.08,0.57 2.07,0.58 2.08,0.64 2.07,0.66 2.08,0.67 2.07,0.73 2.07,0.74 2.08,0.77 2.07,0.79 2.08,0.81 2.07,0.83 2.08,0.83 2.07,0.87 2.07,0.88 2.08,0.88 2.07,0.87 2.08,0.88 2.07,0.85 2.08,0.84 2.07,0.84 2.08,0.79 2.07,0.77 2.07,0.72 2.08,0.73 2.07,0.65 2.08,0.62 2.07,0.56 2.08,0.5 2.07,0.47 2.07,0.44 2.08,0.36 2.07,0.35 2.08,0.26 2.07,0.22 2.08,0.16 2.07,0.16 2.07,0.14 2.08,0.02 2.07,0.01 2.08,0.02 2.07,-0.03 2.08,-0.07 2.07,-0.08 2.07,-0.1 2.08,-0.05 2.07,-0.09 2.08,-0.09 2.07,-0.13 2.08,-0.09 2.07,-0.09 2.07,-0.08 2.08,-0.06 2.07,-0.05 2.08,-0.02 2.07,-0.01 2.08,-0.01 2.07,0.06 2.07,0.01 2.08,0.08 2.07,0.11 2.08,0.12 2.07,0.15 2.08,0.17 2.07,0.2 2.07,0.22 2.08,0.24 2.07,0.26 2.08,0.28 2.07,0.33 2.08,0.3 2.07,0.35 2.07,0.37 2.08,0.35 2.07,0.37 2.08,0.36 2.07,0.36 2.08,0.38 2.07,0.4 2.07,0.36 2.08,0.33 2.07,0.32 2.08,0.32 2.07,0.28 2.08,0.27 2.07,0.24 2.08,0.24 2.07,0.19 2.07,0.18 2.08,0.17 2.07,0.1 2.08,0.09 2.07,0.12 2.08,0.02 2.07,0.1 2.07,0.03 2.08,0.04 2.07,0.04 2.08,-0.01 2.07,0.01 2.08,-0.05 2.07,-0.05 2.07,-0.08 2.08,-0.08 2.07,-0.07 2.08,-0.07 2.07,-0.07" /><path
           id="path192"
           style="fill:none;stroke:#333333;stroke-width:1.07000005;stroke-linecap:round;stroke-linejoin:round;stroke-miterlimit:10;stroke-dasharray:none;stroke-opacity:1"
           d="M 43.7,291.81 H 497.77 V 354.8 H 43.7 Z" /></g></g><g
       id="g194" /><g
       id="g196"><g
         clip-path="url(#clipPath202)"
         id="g198"><path
           id="path204"
           style="fill:#ffffff;fill-opacity:1;fill-rule:nonzero;stroke:none"
           d="m 43.7,205.47 h 454.07 v 62.99 H 43.7 Z" /><path
           id="path206"
           style="fill:none;stroke:#ebebeb;stroke-width:0.52999997;stroke-linecap:butt;stroke-linejoin:round;stroke-miterlimit:10;stroke-dasharray:none;stroke-opacity:1"
           d="M 43.7,215.37 H 497.77" /><path
           id="path208"
           style="fill:none;stroke:#ebebeb;stroke-width:0.52999997;stroke-linecap:butt;stroke-linejoin:round;stroke-miterlimit:10;stroke-dasharray:none;stroke-opacity:1"
           d="M 43.7,230.63 H 497.77" /><path
           id="path210"
           style="fill:none;stroke:#ebebeb;stroke-width:0.52999997;stroke-linecap:butt;stroke-linejoin:round;stroke-miterlimit:10;stroke-dasharray:none;stroke-opacity:1"
           d="M 43.7,245.9 H 497.77" /><path
           id="path212"
           style="fill:none;stroke:#ebebeb;stroke-width:0.52999997;stroke-linecap:butt;stroke-linejoin:round;stroke-miterlimit:10;stroke-dasharray:none;stroke-opacity:1"
           d="M 43.7,261.16 H 497.77" /><path
           id="path214"
           style="fill:none;stroke:#ebebeb;stroke-width:0.52999997;stroke-linecap:butt;stroke-linejoin:round;stroke-miterlimit:10;stroke-dasharray:none;stroke-opacity:1"
           d="m 81.91,205.47 v 62.99" /><path
           id="path216"
           style="fill:none;stroke:#ebebeb;stroke-width:0.52999997;stroke-linecap:butt;stroke-linejoin:round;stroke-miterlimit:10;stroke-dasharray:none;stroke-opacity:1"
           d="m 169.74,205.47 v 62.99" /><path
           id="path218"
           style="fill:none;stroke:#ebebeb;stroke-width:0.52999997;stroke-linecap:butt;stroke-linejoin:round;stroke-miterlimit:10;stroke-dasharray:none;stroke-opacity:1"
           d="m 257.56,205.47 v 62.99" /><path
           id="path220"
           style="fill:none;stroke:#ebebeb;stroke-width:0.52999997;stroke-linecap:butt;stroke-linejoin:round;stroke-miterlimit:10;stroke-dasharray:none;stroke-opacity:1"
           d="m 345.39,205.47 v 62.99" /><path
           id="path222"
           style="fill:none;stroke:#ebebeb;stroke-width:0.52999997;stroke-linecap:butt;stroke-linejoin:round;stroke-miterlimit:10;stroke-dasharray:none;stroke-opacity:1"
           d="m 433.22,205.47 v 62.99" /><path
           id="path224"
           style="fill:none;stroke:#ebebeb;stroke-width:1.07000005;stroke-linecap:butt;stroke-linejoin:round;stroke-miterlimit:10;stroke-dasharray:none;stroke-opacity:1"
           d="M 43.7,207.74 H 497.77" /><path
           id="path226"
           style="fill:none;stroke:#ebebeb;stroke-width:1.07000005;stroke-linecap:butt;stroke-linejoin:round;stroke-miterlimit:10;stroke-dasharray:none;stroke-opacity:1"
           d="M 43.7,223 H 497.77" /><path
           id="path228"
           style="fill:none;stroke:#ebebeb;stroke-width:1.07000005;stroke-linecap:butt;stroke-linejoin:round;stroke-miterlimit:10;stroke-dasharray:none;stroke-opacity:1"
           d="M 43.7,238.27 H 497.77" /><path
           id="path230"
           style="fill:none;stroke:#ebebeb;stroke-width:1.07000005;stroke-linecap:butt;stroke-linejoin:round;stroke-miterlimit:10;stroke-dasharray:none;stroke-opacity:1"
           d="M 43.7,253.53 H 497.77" /><path
           id="path232"
           style="fill:none;stroke:#ebebeb;stroke-width:1.07000005;stroke-linecap:butt;stroke-linejoin:round;stroke-miterlimit:10;stroke-dasharray:none;stroke-opacity:1"
           d="m 125.82,205.47 v 62.99" /><path
           id="path234"
           style="fill:none;stroke:#ebebeb;stroke-width:1.07000005;stroke-linecap:butt;stroke-linejoin:round;stroke-miterlimit:10;stroke-dasharray:none;stroke-opacity:1"
           d="m 213.65,205.47 v 62.99" /><path
           id="path236"
           style="fill:none;stroke:#ebebeb;stroke-width:1.07000005;stroke-linecap:butt;stroke-linejoin:round;stroke-miterlimit:10;stroke-dasharray:none;stroke-opacity:1"
           d="m 301.48,205.47 v 62.99" /><path
           id="path238"
           style="fill:none;stroke:#ebebeb;stroke-width:1.07000005;stroke-linecap:butt;stroke-linejoin:round;stroke-miterlimit:10;stroke-dasharray:none;stroke-opacity:1"
           d="m 389.3,205.47 v 62.99" /><path
           id="path240"
           style="fill:none;stroke:#ebebeb;stroke-width:1.07000005;stroke-linecap:butt;stroke-linejoin:round;stroke-miterlimit:10;stroke-dasharray:none;stroke-opacity:1"
           d="m 477.13,205.47 v 62.99" /><path
           id="path242"
           style="fill:#00bf7d;fill-opacity:0.2;fill-rule:nonzero;stroke:none"
           d="m 64.34,217.01 2.08,-0.17 2.07,-0.2 2.08,-0.12 2.07,-0.11 2.08,-0.14 2.07,-0.08 2.07,-0.07 2.08,-0.03 2.07,-0.01 2.08,0.05 2.07,0.09 2.08,0.13 2.07,0.14 2.07,0.13 2.08,0.2 2.07,0.18 2.08,0.2 2.07,0.27 2.08,0.25 2.07,0.24 2.07,0.25 2.08,0.28 2.07,0.26 2.08,0.23 2.07,0.26 2.08,0.29 2.07,0.28 2.07,0.3 2.08,0.32 2.07,0.34 2.08,0.34 2.07,0.33 2.08,0.38 2.07,0.41 2.07,0.4 2.08,0.43 2.07,0.37 2.08,0.42 2.07,0.41 2.08,0.36 2.07,0.38 2.07,0.44 2.08,0.39 2.07,0.35 2.08,0.38 2.07,0.41 2.08,0.34 2.07,0.32 2.08,0.35 2.07,0.42 2.07,0.42 2.08,0.44 2.07,0.44 2.08,0.51 2.07,0.49 2.08,0.48 2.07,0.54 2.07,0.55 2.08,0.59 2.07,0.49 2.08,0.62 2.07,0.58 2.08,0.62 2.07,0.57 2.07,0.6 2.08,0.53 2.07,0.6 2.08,0.59 2.07,0.6 2.08,0.53 2.07,0.49 2.07,0.55 2.08,0.53 2.07,0.45 2.08,0.43 2.07,0.39 2.08,0.44 2.07,0.29 2.07,0.29 2.08,0.18 2.07,0.17 2.08,0.09 2.07,-0.02 2.08,0.03 2.07,-0.13 2.07,-0.16 2.08,-0.22 2.07,-0.37 2.08,-0.35 2.07,-0.48 2.08,-0.49 2.07,-0.54 2.07,-0.59 2.08,-0.66 2.07,-0.69 2.08,-0.68 2.07,-0.72 2.08,-0.66 2.07,-0.74 2.07,-0.69 2.08,-0.67 2.07,-0.73 2.08,-0.58 2.07,-0.56 2.08,-0.55 2.07,-0.48 2.07,-0.59 2.08,-0.48 2.07,-0.46 2.08,-0.44 2.07,-0.44 2.08,-0.36 2.07,-0.33 2.08,-0.28 2.07,-0.27 2.07,-0.23 2.08,-0.21 2.07,-0.11 2.08,-0.1 2.07,-0.13 2.08,-0.02 2.07,-0.06 2.07,0.02 2.08,0.01 2.07,0.06 2.08,0.09 2.07,0.14 2.08,0.12 2.07,0.21 2.07,0.17 2.08,0.22 2.07,0.13 2.08,0.21 2.07,0.25 2.08,0.19 2.07,0.21 2.07,0.17 2.08,0.13 2.07,0.24 2.08,0.16 2.07,0.13 2.08,0.23 2.07,0.22 2.07,0.13 2.08,0.24 2.07,0.21 2.08,0.25 2.07,0.34 2.08,0.23 2.07,0.38 2.07,0.3 2.08,0.29 2.07,0.26 2.08,0.3 2.07,0.33 2.08,0.39 2.07,0.37 2.07,0.37 2.08,0.51 2.07,0.57 2.08,0.37 2.07,0.4 2.08,0.48 2.07,0.56 2.07,0.55 2.08,0.52 2.07,0.63 2.08,0.6 2.07,0.76 2.08,0.61 2.07,0.63 2.07,0.68 2.08,0.63 2.07,0.74 2.08,0.66 2.07,0.75 2.08,0.63 2.07,0.63 2.08,0.7 2.07,0.74 2.07,0.68 2.08,0.68 2.07,0.69 2.08,0.64 2.07,0.77 2.08,0.64 2.07,0.72 2.07,0.66 2.08,0.8 2.07,0.85 2.08,0.69 2.07,1.04 2.08,0.88 2.07,0.86 2.07,1.2 2.08,1.18 2.07,1.41 2.08,1.47 2.07,1.44 v -34.56 l -2.07,0.31 -2.08,0.17 -2.07,0.13 -2.08,0.11 -2.07,0.11 -2.07,0.13 -2.08,-0.07 -2.07,0.01 -2.08,-0.09 h -2.07 l -2.08,-0.18 -2.07,-0.16 -2.07,-0.1 -2.08,-0.28 -2.07,-0.27 -2.08,-0.37 -2.07,-0.25 -2.08,-0.37 -2.07,-0.37 -2.07,-0.4 -2.08,-0.42 -2.07,-0.42 -2.08,-0.46 -2.07,-0.4 -2.08,-0.37 -2.07,-0.46 -2.08,-0.39 -2.07,-0.42 -2.07,-0.36 -2.08,-0.42 -2.07,-0.4 -2.08,-0.39 -2.07,-0.39 -2.08,-0.33 -2.07,-0.33 -2.07,-0.37 -2.08,-0.37 -2.07,-0.29 -2.08,-0.31 -2.07,-0.25 -2.08,-0.2 -2.07,-0.26 -2.07,-0.18 -2.08,-0.19 -2.07,-0.12 -2.08,-0.14 -2.07,-0.19 -2.08,-0.07 -2.07,-0.13 -2.07,-0.1 -2.08,-0.07 -2.07,-0.06 -2.08,-0.11 -2.07,-0.15 -2.08,-0.05 -2.07,-0.15 -2.07,-0.03 -2.08,-0.11 -2.07,-0.11 -2.08,-0.09 -2.07,-0.14 -2.08,-0.08 -2.07,-0.13 -2.07,-0.13 -2.08,-0.09 -2.07,-0.13 -2.08,-0.1 -2.07,-0.09 -2.08,-0.08 -2.07,-0.07 -2.07,-0.02 -2.08,-0.1 -2.07,-0.04 -2.08,0.02 -2.07,-0.01 h -2.08 -2.07 l -2.07,0.07 -2.08,0.09 -2.07,0.03 -2.08,0.11 -2.07,0.15 -2.08,0.15 -2.07,0.21 -2.07,0.26 -2.08,0.24 -2.07,0.27 -2.08,0.34 -2.07,0.39 -2.08,0.43 -2.07,0.47 -2.08,0.48 -2.07,0.54 -2.07,0.55 -2.08,0.55 -2.07,0.55 -2.08,0.6 -2.07,0.62 -2.08,0.62 -2.07,0.6 -2.07,0.53 -2.08,0.63 -2.07,0.65 -2.08,0.65 -2.07,0.53 -2.08,0.51 -2.07,0.44 -2.07,0.43 -2.08,0.43 -2.07,0.44 -2.08,0.35 -2.07,0.24 -2.08,0.31 -2.07,0.27 -2.07,0.18 -2.08,0.1 -2.07,0.06 h -2.08 l -2.07,-0.02 -2.08,-0.06 -2.07,-0.2 -2.07,-0.23 -2.08,-0.21 -2.07,-0.27 -2.08,-0.36 -2.07,-0.35 -2.08,-0.42 -2.07,-0.42 -2.07,-0.45 -2.08,-0.47 -2.07,-0.47 -2.08,-0.54 -2.07,-0.53 -2.08,-0.49 -2.07,-0.47 -2.07,-0.48 -2.08,-0.54 -2.07,-0.46 -2.08,-0.4 -2.07,-0.37 -2.08,-0.44 -2.07,-0.39 -2.07,-0.45 -2.08,-0.39 -2.07,-0.35 -2.08,-0.4 -2.07,-0.41 -2.08,-0.3 -2.07,-0.37 -2.07,-0.33 -2.08,-0.38 -2.07,-0.39 -2.08,-0.35 -2.07,-0.32 -2.08,-0.35 -2.07,-0.32 -2.08,-0.31 -2.07,-0.27 -2.07,-0.34 -2.08,-0.32 -2.07,-0.27 -2.08,-0.31 -2.07,-0.32 -2.08,-0.24 -2.07,-0.35 -2.07,-0.26 -2.08,-0.24 -2.07,-0.32 -2.08,-0.28 -2.07,-0.28 -2.08,-0.26 -2.07,-0.28 -2.07,-0.26 -2.08,-0.3 -2.07,-0.26 -2.08,-0.24 -2.07,-0.24 -2.08,-0.23 -2.07,-0.2 -2.07,-0.22 -2.08,-0.19 -2.07,-0.16 -2.08,-0.19 -2.07,-0.16 -2.08,-0.13 -2.07,-0.14 -2.07,-0.12 -2.08,-0.19 -2.07,-0.2 -2.08,-0.16 -2.07,-0.16 -2.08,-0.22 -2.07,-0.2 -2.07,-0.24 -2.08,-0.25 -2.07,-0.25 -2.08,-0.27 -2.07,-0.31 -2.08,-0.3 z" /><path
           id="path244"
           style="fill:none;stroke:#00bf7d;stroke-width:1.07000005;stroke-linecap:butt;stroke-linejoin:round;stroke-miterlimit:10;stroke-dasharray:none;stroke-opacity:1"
           d="m 64.34,212.3 2.08,0.06 2.07,0.07 2.08,0.09 2.07,0.1 2.08,0.1 2.07,0.1 2.07,0.1 2.08,0.1 2.07,0.11 2.08,0.12 2.07,0.12 2.08,0.13 2.07,0.15 2.07,0.16 2.08,0.16 2.07,0.17 2.08,0.19 2.07,0.2 2.08,0.22 2.07,0.23 2.07,0.24 2.08,0.24 2.07,0.27 2.08,0.27 2.07,0.28 2.08,0.28 2.07,0.3 2.07,0.3 2.08,0.31 2.07,0.32 2.08,0.33 2.07,0.33 2.08,0.31 2.07,0.34 2.07,0.33 2.08,0.34 2.07,0.33 2.08,0.33 2.07,0.34 2.08,0.35 2.07,0.32 2.07,0.34 2.08,0.34 2.07,0.34 2.08,0.35 2.07,0.36 2.08,0.34 2.07,0.36 2.08,0.37 2.07,0.37 2.07,0.38 2.08,0.4 2.07,0.41 2.08,0.44 2.07,0.43 2.08,0.42 2.07,0.47 2.07,0.47 2.08,0.47 2.07,0.5 2.08,0.51 2.07,0.54 2.08,0.53 2.07,0.53 2.07,0.55 2.08,0.52 2.07,0.56 2.08,0.54 2.07,0.52 2.08,0.52 2.07,0.52 2.07,0.5 2.08,0.48 2.07,0.45 2.08,0.44 2.07,0.36 2.08,0.29 2.07,0.25 2.07,0.2 2.08,0.17 2.07,0.11 2.08,0.06 2.07,0.01 2.08,-0.1 2.07,-0.16 2.07,-0.2 2.08,-0.24 2.07,-0.31 2.08,-0.41 2.07,-0.43 2.08,-0.47 2.07,-0.54 2.07,-0.54 2.08,-0.6 2.07,-0.63 2.08,-0.67 2.07,-0.67 2.08,-0.67 2.07,-0.7 2.07,-0.66 2.08,-0.69 2.07,-0.67 2.08,-0.6 2.07,-0.59 2.08,-0.61 2.07,-0.57 2.07,-0.53 2.08,-0.5 2.07,-0.51 2.08,-0.44 2.07,-0.43 2.08,-0.36 2.07,-0.33 2.08,-0.31 2.07,-0.27 2.07,-0.23 2.08,-0.17 2.07,-0.15 2.08,-0.14 2.07,-0.06 2.08,-0.07 2.07,-0.02 2.07,0.02 2.08,0.01 2.07,0.05 2.08,0.12 2.07,0.07 2.08,0.1 2.07,0.12 2.07,0.14 2.08,0.15 2.07,0.13 2.08,0.17 2.07,0.14 2.08,0.16 2.07,0.17 2.07,0.18 2.08,0.19 2.07,0.16 2.08,0.15 2.07,0.18 2.08,0.2 2.07,0.16 2.07,0.15 2.08,0.15 2.07,0.15 2.08,0.14 2.07,0.17 2.08,0.17 2.07,0.18 2.07,0.15 2.08,0.19 2.07,0.19 2.08,0.23 2.07,0.25 2.08,0.24 2.07,0.26 2.07,0.27 2.08,0.26 2.07,0.34 2.08,0.3 2.07,0.33 2.08,0.36 2.07,0.36 2.07,0.4 2.08,0.44 2.07,0.44 2.08,0.45 2.07,0.47 2.08,0.52 2.07,0.53 2.07,0.52 2.08,0.52 2.07,0.54 2.08,0.53 2.07,0.54 2.08,0.55 2.07,0.52 2.08,0.56 2.07,0.59 2.07,0.51 2.08,0.59 2.07,0.52 2.08,0.53 2.07,0.49 2.08,0.51 2.07,0.48 2.07,0.46 2.08,0.48 2.07,0.43 2.08,0.43 2.07,0.44 2.08,0.47 2.07,0.48 2.07,0.41 2.08,0.35 2.07,0.41 2.08,0.41 2.07,0.46" /><path
           id="path246"
           style="fill:none;stroke:#333333;stroke-width:1.07000005;stroke-linecap:round;stroke-linejoin:round;stroke-miterlimit:10;stroke-dasharray:none;stroke-opacity:1"
           d="m 43.7,205.47 h 454.07 v 62.99 H 43.7 Z" /></g></g><g
       id="g248" /><g
       id="g250"><g
         clip-path="url(#clipPath256)"
         id="g252"><path
           id="path258"
           style="fill:#ffffff;fill-opacity:1;fill-rule:nonzero;stroke:none"
           d="m 43.7,119.13 h 454.07 v 62.99 H 43.7 Z" /><path
           id="path260"
           style="fill:none;stroke:#ebebeb;stroke-width:0.52999997;stroke-linecap:butt;stroke-linejoin:round;stroke-miterlimit:10;stroke-dasharray:none;stroke-opacity:1"
           d="M 43.7,125.97 H 497.77" /><path
           id="path262"
           style="fill:none;stroke:#ebebeb;stroke-width:0.52999997;stroke-linecap:butt;stroke-linejoin:round;stroke-miterlimit:10;stroke-dasharray:none;stroke-opacity:1"
           d="M 43.7,143.99 H 497.77" /><path
           id="path264"
           style="fill:none;stroke:#ebebeb;stroke-width:0.52999997;stroke-linecap:butt;stroke-linejoin:round;stroke-miterlimit:10;stroke-dasharray:none;stroke-opacity:1"
           d="M 43.7,162.02 H 497.77" /><path
           id="path266"
           style="fill:none;stroke:#ebebeb;stroke-width:0.52999997;stroke-linecap:butt;stroke-linejoin:round;stroke-miterlimit:10;stroke-dasharray:none;stroke-opacity:1"
           d="M 43.7,180.04 H 497.77" /><path
           id="path268"
           style="fill:none;stroke:#ebebeb;stroke-width:0.52999997;stroke-linecap:butt;stroke-linejoin:round;stroke-miterlimit:10;stroke-dasharray:none;stroke-opacity:1"
           d="m 81.91,119.13 v 62.99" /><path
           id="path270"
           style="fill:none;stroke:#ebebeb;stroke-width:0.52999997;stroke-linecap:butt;stroke-linejoin:round;stroke-miterlimit:10;stroke-dasharray:none;stroke-opacity:1"
           d="m 169.74,119.13 v 62.99" /><path
           id="path272"
           style="fill:none;stroke:#ebebeb;stroke-width:0.52999997;stroke-linecap:butt;stroke-linejoin:round;stroke-miterlimit:10;stroke-dasharray:none;stroke-opacity:1"
           d="m 257.56,119.13 v 62.99" /><path
           id="path274"
           style="fill:none;stroke:#ebebeb;stroke-width:0.52999997;stroke-linecap:butt;stroke-linejoin:round;stroke-miterlimit:10;stroke-dasharray:none;stroke-opacity:1"
           d="m 345.39,119.13 v 62.99" /><path
           id="path276"
           style="fill:none;stroke:#ebebeb;stroke-width:0.52999997;stroke-linecap:butt;stroke-linejoin:round;stroke-miterlimit:10;stroke-dasharray:none;stroke-opacity:1"
           d="m 433.22,119.13 v 62.99" /><path
           id="path278"
           style="fill:none;stroke:#ebebeb;stroke-width:1.07000005;stroke-linecap:butt;stroke-linejoin:round;stroke-miterlimit:10;stroke-dasharray:none;stroke-opacity:1"
           d="M 43.7,134.98 H 497.77" /><path
           id="path280"
           style="fill:none;stroke:#ebebeb;stroke-width:1.07000005;stroke-linecap:butt;stroke-linejoin:round;stroke-miterlimit:10;stroke-dasharray:none;stroke-opacity:1"
           d="M 43.7,153.01 H 497.77" /><path
           id="path282"
           style="fill:none;stroke:#ebebeb;stroke-width:1.07000005;stroke-linecap:butt;stroke-linejoin:round;stroke-miterlimit:10;stroke-dasharray:none;stroke-opacity:1"
           d="M 43.7,171.03 H 497.77" /><path
           id="path284"
           style="fill:none;stroke:#ebebeb;stroke-width:1.07000005;stroke-linecap:butt;stroke-linejoin:round;stroke-miterlimit:10;stroke-dasharray:none;stroke-opacity:1"
           d="m 125.82,119.13 v 62.99" /><path
           id="path286"
           style="fill:none;stroke:#ebebeb;stroke-width:1.07000005;stroke-linecap:butt;stroke-linejoin:round;stroke-miterlimit:10;stroke-dasharray:none;stroke-opacity:1"
           d="m 213.65,119.13 v 62.99" /><path
           id="path288"
           style="fill:none;stroke:#ebebeb;stroke-width:1.07000005;stroke-linecap:butt;stroke-linejoin:round;stroke-miterlimit:10;stroke-dasharray:none;stroke-opacity:1"
           d="m 301.48,119.13 v 62.99" /><path
           id="path290"
           style="fill:none;stroke:#ebebeb;stroke-width:1.07000005;stroke-linecap:butt;stroke-linejoin:round;stroke-miterlimit:10;stroke-dasharray:none;stroke-opacity:1"
           d="m 389.3,119.13 v 62.99" /><path
           id="path292"
           style="fill:none;stroke:#ebebeb;stroke-width:1.07000005;stroke-linecap:butt;stroke-linejoin:round;stroke-miterlimit:10;stroke-dasharray:none;stroke-opacity:1"
           d="m 477.13,119.13 v 62.99" /><path
           id="path294"
           style="fill:#00b0f6;fill-opacity:0.2;fill-rule:nonzero;stroke:none"
           d="m 64.34,123.35 2.08,0.08 2.07,0.09 2.08,0.1 2.07,0.09 2.08,0.11 2.07,0.1 2.07,0.1 2.08,0.11 2.07,0.14 2.08,0.13 2.07,0.13 2.08,0.14 2.07,0.15 2.07,0.13 2.08,0.15 2.07,0.15 2.08,0.13 2.07,0.13 2.08,0.13 2.07,0.12 2.07,0.11 2.08,0.1 2.07,0.08 2.08,0.1 2.07,0.08 2.08,0.08 2.07,0.07 2.07,0.06 2.08,0.07 2.07,0.06 2.08,0.06 2.07,0.06 2.08,0.05 2.07,0.05 2.07,0.04 2.08,0.03 2.07,0.05 2.08,0.04 2.07,0.03 2.08,0.03 2.07,0.02 2.07,0.02 2.08,0.02 h 2.07 l 2.08,0.01 2.07,0.01 h 2.08 2.07 2.08 l 2.07,0.01 h 2.07 l 2.08,-0.01 h 2.07 2.08 l 2.07,-0.01 2.08,-0.01 2.07,-0.01 h 2.07 l 2.08,-0.01 h 2.07 l 2.08,-0.02 2.07,0.01 h 2.08 2.07 2.07 l 2.08,0.01 2.07,0.02 2.08,0.03 2.07,0.01 2.08,0.03 2.07,0.04 2.07,0.05 2.08,0.08 2.07,0.08 2.08,0.1 2.07,0.11 2.08,0.13 2.07,0.17 2.07,0.16 2.08,0.18 2.07,0.22 2.08,0.23 2.07,0.25 2.08,0.3 2.07,0.31 2.07,0.34 2.08,0.37 2.07,0.41 2.08,0.46 2.07,0.48 2.08,0.53 2.07,0.56 2.07,0.58 2.08,0.61 2.07,0.69 2.08,0.74 2.07,0.78 2.08,0.83 2.07,0.9 2.07,0.95 2.08,1.03 2.07,1.11 2.08,1.17 2.07,1.24 2.08,1.31 2.07,1.39 2.07,1.45 2.08,1.53 2.07,1.56 2.08,1.59 2.07,1.68 2.08,1.67 2.07,1.7 2.08,1.67 2.07,1.77 2.07,1.7 2.08,1.69 2.07,1.69 2.08,1.56 2.07,1.48 2.08,1.35 2.07,1.36 2.07,1.21 2.08,1.14 2.07,0.95 2.08,0.9 2.07,0.77 2.08,0.65 2.07,0.57 2.07,0.52 2.08,0.42 2.07,0.3 2.08,0.17 2.07,0.15 2.08,0.03 2.07,-0.11 2.07,-0.04 2.08,-0.11 2.07,-0.1 2.08,-0.2 2.07,-0.17 2.08,-0.31 2.07,-0.21 2.07,-0.18 2.08,-0.18 2.07,-0.32 2.08,-0.21 2.07,-0.12 2.08,-0.22 2.07,-0.14 2.07,-0.14 2.08,-0.08 2.07,-0.13 2.08,-0.2 2.07,-0.13 2.08,-0.12 2.07,-0.1 2.07,-0.12 2.08,-0.15 2.07,-0.12 2.08,-0.13 2.07,-0.22 2.08,-0.12 2.07,-0.11 2.07,-0.19 2.08,-0.19 2.07,-0.19 2.08,-0.06 2.07,-0.08 2.08,-0.06 2.07,-0.02 h 2.07 l 2.08,0.1 2.07,-0.05 2.08,-0.12 2.07,-0.19 2.08,-0.18 2.07,-0.15 2.08,-0.16 2.07,-0.33 2.07,-0.4 2.08,-0.33 2.07,-0.39 2.08,-0.43 2.07,-0.56 2.08,-0.61 2.07,-0.5 2.07,-0.56 2.08,-0.49 2.07,-0.41 2.08,-0.35 2.07,-0.38 2.08,-0.41 2.07,-0.2 2.07,-0.27 2.08,-0.46 2.07,-0.23 2.08,-0.23 2.07,-0.28 v -20.54 l -2.07,0.77 -2.08,0.74 -2.07,0.77 -2.08,0.84 -2.07,0.73 -2.07,0.7 -2.08,0.72 -2.07,0.78 -2.08,0.75 -2.07,0.7 -2.08,0.67 -2.07,0.56 -2.07,0.66 -2.08,0.44 -2.07,0.56 -2.08,0.52 -2.07,0.44 -2.08,0.38 -2.07,0.41 -2.07,0.36 -2.08,0.3 -2.07,0.27 -2.08,0.29 -2.07,0.16 -2.08,0.23 -2.07,0.17 -2.08,0.16 -2.07,0.13 -2.07,0.1 -2.08,0.09 -2.07,0.04 -2.08,-0.05 -2.07,-0.02 -2.08,-0.03 -2.07,-0.05 -2.07,-0.14 -2.08,-0.06 -2.07,-0.1 -2.08,-0.11 -2.07,0.02 -2.08,0.02 -2.07,0.01 -2.07,0.05 -2.08,0.08 -2.07,0.11 -2.08,0.15 -2.07,0.28 -2.08,0.2 -2.07,0.31 -2.07,0.25 -2.08,0.38 -2.07,0.35 -2.08,0.45 -2.07,0.39 -2.08,0.46 -2.07,0.37 -2.07,0.36 -2.08,0.35 -2.07,0.25 -2.08,0.22 -2.07,0.17 -2.08,0.23 -2.07,0.17 -2.07,0.04 -2.08,-0.03 h -2.07 l -2.08,-0.14 -2.07,-0.23 -2.08,-0.22 -2.07,-0.43 -2.07,-0.44 -2.08,-0.59 -2.07,-0.63 -2.08,-0.62 -2.07,-0.84 -2.08,-0.87 -2.07,-0.98 -2.07,-0.95 -2.08,-0.98 -2.07,-1.08 -2.08,-1.12 -2.07,-1.13 -2.08,-1.14 -2.07,-1.13 -2.07,-1.19 -2.08,-1.2 -2.07,-1.22 -2.08,-1.2 -2.07,-1.22 -2.08,-1.14 -2.07,-1.15 -2.08,-1.13 -2.07,-1.08 -2.07,-1.05 -2.08,-0.98 -2.07,-1 -2.08,-0.92 -2.07,-0.9 -2.08,-0.83 -2.07,-0.79 -2.07,-0.76 -2.08,-0.7 -2.07,-0.67 -2.08,-0.61 -2.07,-0.59 -2.08,-0.52 -2.07,-0.49 -2.07,-0.46 -2.08,-0.42 -2.07,-0.37 -2.08,-0.34 -2.07,-0.3 -2.08,-0.29 -2.07,-0.24 -2.07,-0.22 -2.08,-0.18 -2.07,-0.17 -2.08,-0.16 -2.07,-0.14 -2.08,-0.13 -2.07,-0.1 -2.07,-0.1 -2.08,-0.08 -2.07,-0.06 -2.08,-0.05 -2.07,-0.05 -2.08,-0.05 -2.07,-0.03 -2.07,-0.02 -2.08,-0.01 -2.07,-0.02 -2.08,-0.01 h -2.07 -2.08 l -2.07,0.01 -2.07,0.01 -2.08,0.01 -2.07,0.01 -2.08,0.01 -2.07,0.01 -2.08,0.01 -2.07,0.02 -2.07,0.02 h -2.08 l -2.07,0.01 -2.08,0.01 h -2.07 l -2.08,0.01 h -2.07 -2.07 -2.08 -2.07 l -2.08,-0.01 h -2.07 l -2.08,-0.02 h -2.07 l -2.08,-0.02 -2.07,-0.01 -2.07,-0.01 -2.08,-0.01 -2.07,-0.02 -2.08,-0.02 -2.07,-0.02 -2.08,-0.02 -2.07,-0.04 -2.07,-0.04 -2.08,-0.04 -2.07,-0.04 -2.08,-0.05 -2.07,-0.06 -2.08,-0.06 -2.07,-0.07 -2.07,-0.07 -2.08,-0.07 -2.07,-0.09 -2.08,-0.08 -2.07,-0.09 -2.08,-0.1 -2.07,-0.09 -2.07,-0.09 -2.08,-0.1 -2.07,-0.1 -2.08,-0.09 -2.07,-0.11 -2.08,-0.11 -2.07,-0.12 -2.07,-0.11 -2.08,-0.12 -2.07,-0.13 -2.08,-0.13 -2.07,-0.13 -2.08,-0.13 -2.07,-0.15 -2.07,-0.16 -2.08,-0.15 -2.07,-0.15 -2.08,-0.15 -2.07,-0.14 -2.08,-0.16 z" /><path
           id="path296"
           style="fill:none;stroke:#00b0f6;stroke-width:1.07000005;stroke-linecap:butt;stroke-linejoin:round;stroke-miterlimit:10;stroke-dasharray:none;stroke-opacity:1"
           d="m 64.34,122.57 2.08,0.12 2.07,0.13 2.08,0.13 2.07,0.13 2.08,0.13 2.07,0.13 2.07,0.14 2.08,0.14 2.07,0.13 2.08,0.14 2.07,0.13 2.08,0.14 2.07,0.13 2.07,0.13 2.08,0.13 2.07,0.12 2.08,0.13 2.07,0.12 2.08,0.11 2.07,0.11 2.07,0.1 2.08,0.1 2.07,0.1 2.08,0.08 2.07,0.09 2.08,0.08 2.07,0.07 2.07,0.07 2.08,0.07 2.07,0.05 2.08,0.06 2.07,0.05 2.08,0.04 2.07,0.04 2.07,0.03 2.08,0.04 2.07,0.02 2.08,0.03 2.07,0.02 2.08,0.01 2.07,0.02 2.07,0.01 2.08,0.01 2.07,0.01 2.08,0.01 2.07,0.01 h 2.08 l 2.07,0.01 h 2.08 2.07 l 2.07,-0.01 h 2.08 l 2.07,-0.01 2.08,-0.01 h 2.07 l 2.08,-0.01 2.07,-0.01 2.07,-0.02 2.08,-0.01 2.07,-0.01 h 2.08 l 2.07,-0.01 2.08,-0.01 h 2.07 l 2.07,-0.01 h 2.08 2.07 l 2.08,0.01 2.07,0.02 2.08,0.02 2.07,0.03 2.07,0.04 2.08,0.05 2.07,0.06 2.08,0.06 2.07,0.08 2.08,0.1 2.07,0.11 2.07,0.12 2.08,0.15 2.07,0.16 2.08,0.19 2.07,0.2 2.08,0.24 2.07,0.25 2.07,0.28 2.08,0.31 2.07,0.35 2.08,0.38 2.07,0.42 2.08,0.45 2.07,0.49 2.07,0.54 2.08,0.58 2.07,0.64 2.08,0.68 2.07,0.73 2.08,0.79 2.07,0.84 2.07,0.9 2.08,0.95 2.07,1.01 2.08,1.06 2.07,1.13 2.08,1.16 2.07,1.2 2.07,1.27 2.08,1.34 2.07,1.35 2.08,1.38 2.07,1.42 2.08,1.44 2.07,1.46 2.08,1.47 2.07,1.43 2.07,1.44 2.08,1.4 2.07,1.36 2.08,1.37 2.07,1.24 2.08,1.22 2.07,1.12 2.07,1.08 2.08,1 2.07,0.91 2.08,0.83 2.07,0.7 2.08,0.55 2.07,0.49 2.07,0.4 2.08,0.33 2.07,0.2 2.08,0.14 2.07,-0.03 2.08,-0.02 2.07,-0.08 2.07,-0.13 2.08,-0.2 2.07,-0.25 2.08,-0.3 2.07,-0.3 2.08,-0.31 2.07,-0.31 2.07,-0.3 2.08,-0.36 2.07,-0.3 2.08,-0.32 2.07,-0.3 2.08,-0.3 2.07,-0.24 2.07,-0.22 2.08,-0.2 2.07,-0.19 2.08,-0.16 2.07,-0.16 2.08,-0.09 2.07,-0.07 2.07,-0.04 2.08,-0.04 2.07,-0.03 2.08,-0.02 2.07,-0.01 2.08,-0.05 2.07,0.04 2.07,0.05 2.08,0.01 2.07,0.02 2.08,-0.02 h 2.07 l 2.08,0.03 2.07,-0.11 2.07,-0.07 2.08,-0.08 2.07,-0.11 2.08,-0.17 2.07,-0.18 2.08,-0.24 2.07,-0.33 2.08,-0.33 2.07,-0.34 2.07,-0.43 2.08,-0.38 2.07,-0.47 2.08,-0.54 2.07,-0.56 2.08,-0.62 2.07,-0.55 2.07,-0.61 2.08,-0.62 2.07,-0.64 2.08,-0.65 2.07,-0.66 2.08,-0.71 2.07,-0.66 2.07,-0.66 2.08,-0.69 2.07,-0.61 2.08,-0.68 2.07,-0.69" /><path
           id="path298"
           style="fill:none;stroke:#333333;stroke-width:1.07000005;stroke-linecap:round;stroke-linejoin:round;stroke-miterlimit:10;stroke-dasharray:none;stroke-opacity:1"
           d="m 43.7,119.13 h 454.07 v 62.99 H 43.7 Z" /></g></g><g
       id="g300" /><g
       id="g302"><g
         clip-path="url(#clipPath308)"
         id="g304"><path
           id="path310"
           style="fill:#ffffff;fill-opacity:1;fill-rule:nonzero;stroke:none"
           d="M 43.7,32.79 H 497.77 V 95.78 H 43.7 Z" /><path
           id="path312"
           style="fill:none;stroke:#ebebeb;stroke-width:0.52999997;stroke-linecap:butt;stroke-linejoin:round;stroke-miterlimit:10;stroke-dasharray:none;stroke-opacity:1"
           d="M 43.7,40.11 H 497.77" /><path
           id="path314"
           style="fill:none;stroke:#ebebeb;stroke-width:0.52999997;stroke-linecap:butt;stroke-linejoin:round;stroke-miterlimit:10;stroke-dasharray:none;stroke-opacity:1"
           d="M 43.7,57.95 H 497.77" /><path
           id="path316"
           style="fill:none;stroke:#ebebeb;stroke-width:0.52999997;stroke-linecap:butt;stroke-linejoin:round;stroke-miterlimit:10;stroke-dasharray:none;stroke-opacity:1"
           d="M 43.7,75.78 H 497.77" /><path
           id="path318"
           style="fill:none;stroke:#ebebeb;stroke-width:0.52999997;stroke-linecap:butt;stroke-linejoin:round;stroke-miterlimit:10;stroke-dasharray:none;stroke-opacity:1"
           d="M 43.7,93.62 H 497.77" /><path
           id="path320"
           style="fill:none;stroke:#ebebeb;stroke-width:0.52999997;stroke-linecap:butt;stroke-linejoin:round;stroke-miterlimit:10;stroke-dasharray:none;stroke-opacity:1"
           d="M 81.91,32.79 V 95.78" /><path
           id="path322"
           style="fill:none;stroke:#ebebeb;stroke-width:0.52999997;stroke-linecap:butt;stroke-linejoin:round;stroke-miterlimit:10;stroke-dasharray:none;stroke-opacity:1"
           d="M 169.74,32.79 V 95.78" /><path
           id="path324"
           style="fill:none;stroke:#ebebeb;stroke-width:0.52999997;stroke-linecap:butt;stroke-linejoin:round;stroke-miterlimit:10;stroke-dasharray:none;stroke-opacity:1"
           d="M 257.56,32.79 V 95.78" /><path
           id="path326"
           style="fill:none;stroke:#ebebeb;stroke-width:0.52999997;stroke-linecap:butt;stroke-linejoin:round;stroke-miterlimit:10;stroke-dasharray:none;stroke-opacity:1"
           d="M 345.39,32.79 V 95.78" /><path
           id="path328"
           style="fill:none;stroke:#ebebeb;stroke-width:0.52999997;stroke-linecap:butt;stroke-linejoin:round;stroke-miterlimit:10;stroke-dasharray:none;stroke-opacity:1"
           d="M 433.22,32.79 V 95.78" /><path
           id="path330"
           style="fill:none;stroke:#ebebeb;stroke-width:1.07000005;stroke-linecap:butt;stroke-linejoin:round;stroke-miterlimit:10;stroke-dasharray:none;stroke-opacity:1"
           d="M 43.7,49.03 H 497.77" /><path
           id="path332"
           style="fill:none;stroke:#ebebeb;stroke-width:1.07000005;stroke-linecap:butt;stroke-linejoin:round;stroke-miterlimit:10;stroke-dasharray:none;stroke-opacity:1"
           d="M 43.7,66.86 H 497.77" /><path
           id="path334"
           style="fill:none;stroke:#ebebeb;stroke-width:1.07000005;stroke-linecap:butt;stroke-linejoin:round;stroke-miterlimit:10;stroke-dasharray:none;stroke-opacity:1"
           d="M 43.7,84.7 H 497.77" /><path
           id="path336"
           style="fill:none;stroke:#ebebeb;stroke-width:1.07000005;stroke-linecap:butt;stroke-linejoin:round;stroke-miterlimit:10;stroke-dasharray:none;stroke-opacity:1"
           d="M 125.82,32.79 V 95.78" /><path
           id="path338"
           style="fill:none;stroke:#ebebeb;stroke-width:1.07000005;stroke-linecap:butt;stroke-linejoin:round;stroke-miterlimit:10;stroke-dasharray:none;stroke-opacity:1"
           d="M 213.65,32.79 V 95.78" /><path
           id="path340"
           style="fill:none;stroke:#ebebeb;stroke-width:1.07000005;stroke-linecap:butt;stroke-linejoin:round;stroke-miterlimit:10;stroke-dasharray:none;stroke-opacity:1"
           d="M 301.48,32.79 V 95.78" /><path
           id="path342"
           style="fill:none;stroke:#ebebeb;stroke-width:1.07000005;stroke-linecap:butt;stroke-linejoin:round;stroke-miterlimit:10;stroke-dasharray:none;stroke-opacity:1"
           d="M 389.3,32.79 V 95.78" /><path
           id="path344"
           style="fill:none;stroke:#ebebeb;stroke-width:1.07000005;stroke-linecap:butt;stroke-linejoin:round;stroke-miterlimit:10;stroke-dasharray:none;stroke-opacity:1"
           d="M 477.13,32.79 V 95.78" /><path
           id="path346"
           style="fill:#e76bf3;fill-opacity:0.2;fill-rule:nonzero;stroke:none"
           d="m 64.34,38.76 2.08,0.01 2.07,0.02 2.08,-0.02 2.07,0.01 h 2.08 l 2.07,0.02 2.07,0.04 2.08,0.03 2.07,0.04 2.08,0.03 2.07,0.04 2.08,0.04 2.07,0.06 2.07,0.05 2.08,0.07 2.07,0.09 2.08,0.07 2.07,0.07 2.08,0.07 2.07,0.08 2.07,0.06 2.08,0.06 2.07,0.07 2.08,0.06 2.07,0.05 2.08,0.08 2.07,0.07 2.07,0.08 2.08,0.07 2.07,0.07 2.08,0.07 2.07,0.11 2.08,0.08 2.07,0.1 2.07,0.09 2.08,0.1 2.07,0.1 2.08,0.1 2.07,0.09 2.08,0.1 2.07,0.09 2.07,0.1 2.08,0.11 2.07,0.08 2.08,0.1 2.07,0.09 2.08,0.09 2.07,0.07 2.08,0.07 2.07,0.09 2.07,0.08 2.08,0.08 2.07,0.07 2.08,0.07 2.07,0.06 2.08,0.07 2.07,0.08 2.07,0.06 2.08,0.07 2.07,0.07 2.08,0.06 2.07,0.05 2.08,0.05 2.07,0.06 2.07,0.06 2.08,0.07 2.07,0.06 2.08,0.06 2.07,0.06 2.08,0.07 2.07,0.08 2.07,0.08 2.08,0.08 2.07,0.09 2.08,0.11 2.07,0.08 2.08,0.14 2.07,0.15 2.07,0.17 2.08,0.14 2.07,0.15 2.08,0.19 2.07,0.22 2.08,0.24 2.07,0.25 2.07,0.29 2.08,0.31 2.07,0.32 2.08,0.37 2.07,0.37 2.08,0.39 2.07,0.4 2.07,0.45 2.08,0.49 2.07,0.51 2.08,0.57 2.07,0.58 2.08,0.58 2.07,0.59 2.07,0.66 2.08,0.76 2.07,0.81 2.08,0.86 2.07,0.86 2.08,0.93 2.07,0.89 2.07,1.04 2.08,1.05 2.07,1.05 2.08,1.14 2.07,1.19 2.08,1.2 2.07,1.11 2.08,1.17 2.07,1.28 2.07,1.24 2.08,1.15 2.07,1.18 2.08,1.11 2.07,1.03 2.08,1.01 2.07,1.01 2.07,1 2.08,0.87 2.07,0.95 2.08,0.69 2.07,0.59 2.08,0.39 2.07,0.47 2.07,0.37 2.08,0.26 2.07,0.33 2.08,0.18 2.07,0.27 2.08,-0.07 2.07,-0.12 2.07,-0.16 2.08,-0.07 2.07,-0.25 2.08,-0.06 2.07,-0.18 2.08,-0.13 2.07,-0.13 2.07,-0.03 2.08,-0.06 2.07,-0.31 2.08,-0.11 2.07,0.1 2.08,-0.02 2.07,0.02 2.07,-0.26 2.08,-0.11 2.07,0.02 2.08,-0.04 2.07,-0.04 h 2.08 l 2.07,0.03 2.07,-0.11 2.08,0.08 2.07,0.14 2.08,0.08 2.07,0.2 2.08,-0.03 2.07,0.26 2.07,0.19 2.08,0.2 2.07,0.17 2.08,0.13 2.07,0.37 2.08,0.36 2.07,0.37 2.07,0.25 2.08,0.48 2.07,0.54 2.08,0.5 2.07,0.45 2.08,0.21 2.07,0.35 2.08,0.53 2.07,0.2 2.07,0.35 2.08,0.19 2.07,0.31 2.08,0.46 2.07,0.36 2.08,0.42 2.07,0.17 2.07,0.17 2.08,0.16 2.07,0.41 2.08,0.16 2.07,0.24 2.08,0.34 2.07,0.59 2.07,0.53 2.08,0.46 2.07,0.4 2.08,0.84 2.07,0.54 V 56.25 l -2.07,0.38 -2.08,0.3 -2.07,0.37 -2.08,0.28 -2.07,0.34 -2.07,0.39 -2.08,0.31 -2.07,0.25 -2.08,0.37 -2.07,0.23 -2.08,0.23 -2.07,0.23 -2.07,0.14 -2.08,0.18 -2.07,0.19 -2.08,-0.03 -2.07,0.07 -2.08,0.08 -2.07,0.01 -2.07,0.03 -2.08,0.03 -2.07,-0.01 -2.08,-0.09 -2.07,-0.03 -2.08,-0.11 -2.07,-0.03 -2.08,-0.07 -2.07,-0.13 -2.07,-0.15 -2.08,-0.23 -2.07,-0.22 -2.08,-0.18 -2.07,-0.2 -2.08,-0.25 -2.07,-0.2 -2.07,-0.26 -2.08,-0.15 -2.07,-0.11 -2.08,-0.18 -2.07,-0.1 -2.08,-0.05 -2.07,-0.02 h -2.07 l -2.08,0.09 -2.07,0.04 -2.08,0.13 -2.07,0.2 -2.08,0.23 -2.07,0.21 -2.07,0.25 -2.08,0.27 -2.07,0.39 -2.08,0.36 -2.07,0.3 -2.08,0.31 -2.07,0.28 -2.07,0.29 -2.08,0.35 -2.07,0.28 -2.08,0.27 -2.07,0.28 -2.08,0.25 -2.07,0.21 -2.07,0.11 -2.08,0.09 -2.07,0.07 -2.08,-0.05 -2.07,-0.01 -2.08,-0.08 -2.07,-0.17 -2.07,-0.28 -2.08,-0.28 -2.07,-0.27 -2.08,-0.4 -2.07,-0.39 -2.08,-0.45 -2.07,-0.5 -2.07,-0.58 -2.08,-0.57 -2.07,-0.64 -2.08,-0.67 -2.07,-0.69 -2.08,-0.69 -2.07,-0.74 -2.07,-0.76 -2.08,-0.72 -2.07,-0.7 -2.08,-0.77 -2.07,-0.72 -2.08,-0.71 -2.07,-0.72 -2.08,-0.67 -2.07,-0.7 -2.07,-0.66 -2.08,-0.6 -2.07,-0.66 -2.08,-0.56 -2.07,-0.57 -2.08,-0.52 -2.07,-0.52 -2.07,-0.46 -2.08,-0.45 -2.07,-0.41 -2.08,-0.38 -2.07,-0.36 -2.08,-0.34 -2.07,-0.3 -2.07,-0.27 -2.08,-0.24 -2.07,-0.21 -2.08,-0.2 -2.07,-0.18 -2.08,-0.16 -2.07,-0.12 -2.07,-0.12 -2.08,-0.12 -2.07,-0.09 -2.08,-0.08 -2.07,-0.07 -2.08,-0.04 -2.07,-0.05 -2.07,-0.05 -2.08,-0.05 -2.07,-0.03 -2.08,-0.04 -2.07,-0.04 -2.08,-0.02 -2.07,-0.04 -2.07,-0.03 -2.08,-0.02 -2.07,-0.03 -2.08,-0.01 -2.07,-0.03 -2.08,-0.04 -2.07,-0.03 -2.07,-0.02 -2.08,-0.04 -2.07,-0.02 -2.08,-0.04 -2.07,-0.04 -2.08,-0.04 -2.07,-0.04 -2.07,-0.04 -2.08,-0.05 -2.07,-0.06 -2.08,-0.06 -2.07,-0.07 -2.08,-0.08 -2.07,-0.08 -2.07,-0.06 -2.08,-0.06 -2.07,-0.07 -2.08,-0.06 -2.07,-0.07 -2.08,-0.07 -2.07,-0.07 -2.08,-0.08 -2.07,-0.07 -2.07,-0.07 -2.08,-0.07 -2.07,-0.07 -2.08,-0.06 -2.07,-0.06 -2.08,-0.05 -2.07,-0.06 -2.07,-0.06 -2.08,-0.06 -2.07,-0.05 -2.08,-0.07 -2.07,-0.05 -2.08,-0.05 -2.07,-0.07 -2.07,-0.07 -2.08,-0.06 -2.07,-0.06 -2.08,-0.08 -2.07,-0.06 -2.08,-0.07 -2.07,-0.05 -2.07,-0.06 -2.08,-0.07 -2.07,-0.07 -2.08,-0.07 -2.07,-0.08 -2.08,-0.07 -2.07,-0.08 -2.07,-0.08 -2.08,-0.08 -2.07,-0.09 -2.08,-0.08 -2.07,-0.1 -2.08,-0.09 -2.07,-0.09 -2.07,-0.1 -2.08,-0.11 -2.07,-0.11 -2.08,-0.1 -2.07,-0.11 -2.08,-0.11 z" /><path
           id="path348"
           style="fill:none;stroke:#e76bf3;stroke-width:1.07000005;stroke-linecap:butt;stroke-linejoin:round;stroke-miterlimit:10;stroke-dasharray:none;stroke-opacity:1"
           d="m 64.34,36.94 2.08,0.06 2.07,0.07 2.08,0.07 2.07,0.07 2.08,0.06 2.07,0.07 2.07,0.07 2.08,0.07 2.07,0.07 2.08,0.07 2.07,0.07 2.08,0.07 2.07,0.07 2.07,0.07 2.08,0.07 2.07,0.07 2.08,0.07 2.07,0.07 2.08,0.08 2.07,0.07 2.07,0.07 2.08,0.06 2.07,0.07 2.08,0.08 2.07,0.07 2.08,0.07 2.07,0.08 2.07,0.06 2.08,0.08 2.07,0.07 2.08,0.08 2.07,0.07 2.08,0.08 2.07,0.08 2.07,0.08 2.08,0.08 2.07,0.08 2.08,0.07 2.07,0.08 2.08,0.08 2.07,0.08 2.07,0.08 2.08,0.08 2.07,0.08 2.08,0.08 2.07,0.07 2.08,0.09 2.07,0.08 2.08,0.07 2.07,0.08 2.07,0.08 2.08,0.07 2.07,0.08 2.08,0.06 2.07,0.06 2.08,0.07 2.07,0.05 2.07,0.05 2.08,0.06 2.07,0.05 2.08,0.05 2.07,0.05 2.08,0.04 2.07,0.03 2.07,0.03 2.08,0.04 2.07,0.03 2.08,0.04 2.07,0.03 2.08,0.03 2.07,0.05 2.07,0.03 2.08,0.05 2.07,0.05 2.08,0.05 2.07,0.06 2.08,0.06 2.07,0.08 2.07,0.1 2.08,0.1 2.07,0.11 2.08,0.12 2.07,0.13 2.08,0.16 2.07,0.17 2.07,0.2 2.08,0.22 2.07,0.22 2.08,0.27 2.07,0.27 2.08,0.31 2.07,0.34 2.07,0.37 2.08,0.4 2.07,0.43 2.08,0.45 2.07,0.49 2.08,0.52 2.07,0.55 2.07,0.6 2.08,0.62 2.07,0.66 2.08,0.68 2.07,0.74 2.08,0.77 2.07,0.79 2.07,0.84 2.08,0.89 2.07,0.87 2.08,0.91 2.07,0.94 2.08,0.94 2.07,0.88 2.08,0.95 2.07,0.96 2.07,0.89 2.08,0.9 2.07,0.9 2.08,0.88 2.07,0.82 2.08,0.77 2.07,0.73 2.07,0.66 2.08,0.62 2.07,0.63 2.08,0.47 2.07,0.46 2.08,0.39 2.07,0.29 2.07,0.23 2.08,0.15 2.07,0.1 2.08,0.02 h 2.07 l 2.08,-0.07 2.07,-0.12 2.07,-0.18 2.08,-0.17 2.07,-0.19 2.08,-0.27 2.07,-0.22 2.08,-0.27 2.07,-0.27 2.07,-0.33 2.08,-0.29 2.07,-0.3 2.08,-0.26 2.07,-0.3 2.08,-0.23 2.07,-0.24 2.07,-0.21 2.08,-0.15 2.07,-0.12 2.08,-0.12 2.07,-0.07 2.08,-0.07 2.07,-0.01 2.07,-0.05 2.08,-0.01 2.07,0.06 2.08,0.1 2.07,0.15 2.08,0.14 2.07,0.2 2.07,0.21 2.08,0.26 2.07,0.26 2.08,0.25 2.07,0.29 2.08,0.27 2.07,0.24 2.07,0.2 2.08,0.29 2.07,0.31 2.08,0.31 2.07,0.22 2.08,0.19 2.07,0.26 2.08,0.22 2.07,0.12 2.07,0.17 2.08,0.15 2.07,0.15 2.08,0.08 2.07,0.07 2.08,0.12 2.07,0.03 2.07,-0.03 2.08,-0.01 2.07,-0.01 2.08,-0.02 2.07,-0.09 2.08,-0.06 2.07,-0.1 2.07,-0.16 2.08,-0.08 2.07,-0.16 2.08,-0.08 2.07,-0.17" /><path
           id="path350"
           style="fill:none;stroke:#333333;stroke-width:1.07000005;stroke-linecap:round;stroke-linejoin:round;stroke-miterlimit:10;stroke-dasharray:none;stroke-opacity:1"
           d="M 43.7,32.79 H 497.77 V 95.78 H 43.7 Z" /></g></g><g
       id="g352" /><g
       id="g354"><g
         clip-path="url(#clipPath360)"
         id="g356" /></g><g
       id="g362"><g
         clip-path="url(#clipPath368)"
         id="g364"><path
           id="path370"
           style="fill:#d9d9d9;fill-opacity:1;fill-rule:nonzero;stroke:#333333;stroke-width:1.07000005;stroke-linecap:round;stroke-linejoin:round;stroke-miterlimit:10;stroke-dasharray:none;stroke-opacity:1"
           d="m 43.7,95.78 h 454.07 v 17.87 H 43.7 Z" /><text
           id="text374"
           style="font-variant:normal;font-weight:normal;font-size:9px;font-family:Helvetica;-inkscape-font-specification:Helvetica;writing-mode:lr-tb;fill:#1a1a1a;fill-opacity:1;fill-rule:nonzero;stroke:none"
           transform="matrix(1,0,0,-1,245.86,101.49)"><tspan
             id="tspan372"
             y="0"
             x="0 6.0029998 11.007 16.011 21.014999 26.018999 30.753 35.252998 37.755001 39.752998 44.757">Pheophytinb</tspan></text>
</g></g><g
       id="g376"><g
         clip-path="url(#clipPath382)"
         id="g378" /></g><g
       id="g384"><g
         clip-path="url(#clipPath390)"
         id="g386" /></g><g
       id="g392" /><g
       id="g394"><g
         clip-path="url(#clipPath400)"
         id="g396" /></g><g
       id="g402"><g
         clip-path="url(#clipPath408)"
         id="g404"><path
           id="path410"
           style="fill:#d9d9d9;fill-opacity:1;fill-rule:nonzero;stroke:#333333;stroke-width:1.07000005;stroke-linecap:round;stroke-linejoin:round;stroke-miterlimit:10;stroke-dasharray:none;stroke-opacity:1"
           d="m 43.7,182.12 h 454.07 v 17.87 H 43.7 Z" /><text
           id="text414"
           style="font-variant:normal;font-weight:normal;font-size:9px;font-family:Helvetica;-inkscape-font-specification:Helvetica;writing-mode:lr-tb;fill:#1a1a1a;fill-opacity:1;fill-rule:nonzero;stroke:none"
           transform="matrix(1,0,0,-1,236.22,187.83)"><tspan
             id="tspan412"
             y="0"
             x="0 5.0040002 10.008 12.51 17.514 19.511999 24.516001 30.014999 35.019001 40.022999 44.522999 49.527 54.530998 57.033001 62.036999 64.035004">LuteinZeaxanthin</tspan></text>
</g></g><g
       id="g416"><g
         clip-path="url(#clipPath422)"
         id="g418" /></g><g
       id="g424"><g
         clip-path="url(#clipPath430)"
         id="g426" /></g><g
       id="g432" /><g
       id="g434"><g
         clip-path="url(#clipPath440)"
         id="g436" /></g><g
       id="g442"><g
         clip-path="url(#clipPath448)"
         id="g444"><path
           id="path450"
           style="fill:#d9d9d9;fill-opacity:1;fill-rule:nonzero;stroke:#333333;stroke-width:1.07000005;stroke-linecap:round;stroke-linejoin:round;stroke-miterlimit:10;stroke-dasharray:none;stroke-opacity:1"
           d="m 43.7,268.46 h 454.07 v 17.87 H 43.7 Z" /><text
           id="text454"
           style="font-variant:normal;font-weight:normal;font-size:9px;font-family:Helvetica;-inkscape-font-specification:Helvetica;writing-mode:lr-tb;fill:#1a1a1a;fill-opacity:1;fill-rule:nonzero;stroke:none"
           transform="matrix(1,0,0,-1,246.36,274.17)"><tspan
             id="tspan452"
             y="0"
             x="0 5.4990001 10.503 15.003 19.737 24.237 29.240999 34.244999 36.747002 41.750999 43.749001">Fucoxanthin</tspan></text>
</g></g><g
       id="g456"><g
         clip-path="url(#clipPath462)"
         id="g458" /></g><g
       id="g464"><g
         clip-path="url(#clipPath470)"
         id="g466" /></g><g
       id="g472" /><g
       id="g474"><g
         clip-path="url(#clipPath480)"
         id="g476" /></g><g
       id="g482"><g
         clip-path="url(#clipPath488)"
         id="g484"><path
           id="path490"
           style="fill:#d9d9d9;fill-opacity:1;fill-rule:nonzero;stroke:#333333;stroke-width:1.07000005;stroke-linecap:round;stroke-linejoin:round;stroke-miterlimit:10;stroke-dasharray:none;stroke-opacity:1"
           d="m 43.7,354.8 h 454.07 v 17.87 H 43.7 Z" /><text
           id="text494"
           style="font-variant:normal;font-weight:normal;font-size:9px;font-family:Helvetica;-inkscape-font-specification:Helvetica;writing-mode:lr-tb;fill:#1a1a1a;fill-opacity:1;fill-rule:nonzero;stroke:none"
           transform="matrix(1,0,0,-1,242.97,360.51)"><tspan
             id="tspan492"
             y="0"
             x="0 6.0029998 11.007 13.509 18.513 25.011 30.014999 33.012001 38.015999 40.518002 45.521999 50.526001">BetaCarotene</tspan></text>
</g></g><g
       id="g496"><g
         clip-path="url(#clipPath502)"
         id="g498" /></g><g
       id="g504"><g
         clip-path="url(#clipPath510)"
         id="g506" /></g><g
       id="g512" /><g
       id="g514"><g
         clip-path="url(#clipPath520)"
         id="g516" /></g><g
       id="g522"><g
         clip-path="url(#clipPath528)"
         id="g524"><path
           id="path530"
           style="fill:#d9d9d9;fill-opacity:1;fill-rule:nonzero;stroke:#333333;stroke-width:1.07000005;stroke-linecap:round;stroke-linejoin:round;stroke-miterlimit:10;stroke-dasharray:none;stroke-opacity:1"
           d="m 43.7,441.14 h 454.07 v 17.87 H 43.7 Z" /><text
           id="text534"
           style="font-variant:normal;font-weight:normal;font-size:9px;font-family:Helvetica;-inkscape-font-specification:Helvetica;writing-mode:lr-tb;fill:#1a1a1a;fill-opacity:1;fill-rule:nonzero;stroke:none"
           transform="matrix(1,0,0,-1,248.86,446.85)"><tspan
             id="tspan532"
             y="0"
             x="0 6.0029998 8.0010004 9.9989996 14.733 19.233 24.237 29.240999 31.743 36.747002 38.744999">Alloxanthin</tspan></text>
</g></g><g
       id="g536"><g
         clip-path="url(#clipPath542)"
         id="g538" /></g><g
       id="g544"><g
         clip-path="url(#clipPath550)"
         id="g546" /></g><g
       id="g552" /><g
       id="g554" /><g
       id="g556" /><g
       id="g558" /><g
       id="g560" /><g
       id="g562" /><g
       id="g564" /><g
       id="g566" /><g
       id="g568" /><g
       id="g570" /><g
       id="g572" /><g
       id="g574" /><g
       id="g576" /><g
       id="g578" /><g
       id="g580" /><g
       id="g582"><path
         id="path584"
         style="fill:none;stroke:#333333;stroke-width:1.07000005;stroke-linecap:butt;stroke-linejoin:round;stroke-miterlimit:10;stroke-dasharray:none;stroke-opacity:1"
         d="m 125.82,30.05 v 2.74" /><path
         id="path586"
         style="fill:none;stroke:#333333;stroke-width:1.07000005;stroke-linecap:butt;stroke-linejoin:round;stroke-miterlimit:10;stroke-dasharray:none;stroke-opacity:1"
         d="m 213.65,30.05 v 2.74" /><path
         id="path588"
         style="fill:none;stroke:#333333;stroke-width:1.07000005;stroke-linecap:butt;stroke-linejoin:round;stroke-miterlimit:10;stroke-dasharray:none;stroke-opacity:1"
         d="m 301.48,30.05 v 2.74" /><path
         id="path590"
         style="fill:none;stroke:#333333;stroke-width:1.07000005;stroke-linecap:butt;stroke-linejoin:round;stroke-miterlimit:10;stroke-dasharray:none;stroke-opacity:1"
         d="m 389.3,30.05 v 2.74" /><path
         id="path592"
         style="fill:none;stroke:#333333;stroke-width:1.07000005;stroke-linecap:butt;stroke-linejoin:round;stroke-miterlimit:10;stroke-dasharray:none;stroke-opacity:1"
         d="m 477.13,30.05 v 2.74" /></g><g
       id="g594" /><g
       id="g596"><text
         id="text600"
         style="font-variant:normal;font-weight:normal;font-size:9px;font-family:Helvetica;-inkscape-font-specification:Helvetica;writing-mode:lr-tb;fill:#4d4d4d;fill-opacity:1;fill-rule:nonzero;stroke:none"
         transform="matrix(1,0,0,-1,115.81,21.4)"><tspan
           id="tspan598"
           y="0"
           x="0 5.0040002 10.008 15.012">1950</tspan></text>
<text
         id="text604"
         style="font-variant:normal;font-weight:normal;font-size:9px;font-family:Helvetica;-inkscape-font-specification:Helvetica;writing-mode:lr-tb;fill:#4d4d4d;fill-opacity:1;fill-rule:nonzero;stroke:none"
         transform="matrix(1,0,0,-1,203.64,21.4)"><tspan
           id="tspan602"
           y="0"
           x="0 5.0040002 10.008 15.012">1960</tspan></text>
<text
         id="text608"
         style="font-variant:normal;font-weight:normal;font-size:9px;font-family:Helvetica;-inkscape-font-specification:Helvetica;writing-mode:lr-tb;fill:#4d4d4d;fill-opacity:1;fill-rule:nonzero;stroke:none"
         transform="matrix(1,0,0,-1,291.47,21.4)"><tspan
           id="tspan606"
           y="0"
           x="0 5.0040002 10.008 15.012">1970</tspan></text>
<text
         id="text612"
         style="font-variant:normal;font-weight:normal;font-size:9px;font-family:Helvetica;-inkscape-font-specification:Helvetica;writing-mode:lr-tb;fill:#4d4d4d;fill-opacity:1;fill-rule:nonzero;stroke:none"
         transform="matrix(1,0,0,-1,379.3,21.4)"><tspan
           id="tspan610"
           y="0"
           x="0 5.0040002 10.008 15.012">1980</tspan></text>
<text
         id="text616"
         style="font-variant:normal;font-weight:normal;font-size:9px;font-family:Helvetica;-inkscape-font-specification:Helvetica;writing-mode:lr-tb;fill:#4d4d4d;fill-opacity:1;fill-rule:nonzero;stroke:none"
         transform="matrix(1,0,0,-1,467.12,21.4)"><tspan
           id="tspan614"
           y="0"
           x="0 5.0040002 10.008 15.012">1990</tspan></text>
</g><g
       id="g618" /><g
       id="g620" /><g
       id="g622" /><g
       id="g624" /><g
       id="g626" /><g
       id="g628" /><g
       id="g630" /><g
       id="g632" /><g
       id="g634" /><g
       id="g636" /><g
       id="g638" /><g
       id="g640" /><g
       id="g642" /><g
       id="g644" /><g
       id="g646" /><g
       id="g648"><text
         id="text652"
         style="font-variant:normal;font-weight:normal;font-size:9px;font-family:Helvetica;-inkscape-font-specification:Helvetica;writing-mode:lr-tb;fill:#4d4d4d;fill-opacity:1;fill-rule:nonzero;stroke:none"
         transform="matrix(1,0,0,-1,23.76,376.81)"><tspan
           id="tspan650"
           y="0"
           x="0 5.0040002 10.008">100</tspan></text>
<text
         id="text656"
         style="font-variant:normal;font-weight:normal;font-size:9px;font-family:Helvetica;-inkscape-font-specification:Helvetica;writing-mode:lr-tb;fill:#4d4d4d;fill-opacity:1;fill-rule:nonzero;stroke:none"
         transform="matrix(1,0,0,-1,23.76,388.37)"><tspan
           id="tspan654"
           y="0"
           x="0 5.0040002 10.008">150</tspan></text>
<text
         id="text660"
         style="font-variant:normal;font-weight:normal;font-size:9px;font-family:Helvetica;-inkscape-font-specification:Helvetica;writing-mode:lr-tb;fill:#4d4d4d;fill-opacity:1;fill-rule:nonzero;stroke:none"
         transform="matrix(1,0,0,-1,23.76,399.92)"><tspan
           id="tspan658"
           y="0"
           x="0 5.0040002 10.008">200</tspan></text>
<text
         id="text664"
         style="font-variant:normal;font-weight:normal;font-size:9px;font-family:Helvetica;-inkscape-font-specification:Helvetica;writing-mode:lr-tb;fill:#4d4d4d;fill-opacity:1;fill-rule:nonzero;stroke:none"
         transform="matrix(1,0,0,-1,23.76,411.48)"><tspan
           id="tspan662"
           y="0"
           x="0 5.0040002 10.008">250</tspan></text>
<text
         id="text668"
         style="font-variant:normal;font-weight:normal;font-size:9px;font-family:Helvetica;-inkscape-font-specification:Helvetica;writing-mode:lr-tb;fill:#4d4d4d;fill-opacity:1;fill-rule:nonzero;stroke:none"
         transform="matrix(1,0,0,-1,23.76,423.04)"><tspan
           id="tspan666"
           y="0"
           x="0 5.0040002 10.008">300</tspan></text>
<text
         id="text672"
         style="font-variant:normal;font-weight:normal;font-size:9px;font-family:Helvetica;-inkscape-font-specification:Helvetica;writing-mode:lr-tb;fill:#4d4d4d;fill-opacity:1;fill-rule:nonzero;stroke:none"
         transform="matrix(1,0,0,-1,23.76,434.6)"><tspan
           id="tspan670"
           y="0"
           x="0 5.0040002 10.008">350</tspan></text>
</g><g
       id="g674" /><g
       id="g676"><path
         id="path678"
         style="fill:none;stroke:#333333;stroke-width:1.07000005;stroke-linecap:butt;stroke-linejoin:round;stroke-miterlimit:10;stroke-dasharray:none;stroke-opacity:1"
         d="M 40.96,380.04 H 43.7" /><path
         id="path680"
         style="fill:none;stroke:#333333;stroke-width:1.07000005;stroke-linecap:butt;stroke-linejoin:round;stroke-miterlimit:10;stroke-dasharray:none;stroke-opacity:1"
         d="M 40.96,391.6 H 43.7" /><path
         id="path682"
         style="fill:none;stroke:#333333;stroke-width:1.07000005;stroke-linecap:butt;stroke-linejoin:round;stroke-miterlimit:10;stroke-dasharray:none;stroke-opacity:1"
         d="M 40.96,403.16 H 43.7" /><path
         id="path684"
         style="fill:none;stroke:#333333;stroke-width:1.07000005;stroke-linecap:butt;stroke-linejoin:round;stroke-miterlimit:10;stroke-dasharray:none;stroke-opacity:1"
         d="M 40.96,414.71 H 43.7" /><path
         id="path686"
         style="fill:none;stroke:#333333;stroke-width:1.07000005;stroke-linecap:butt;stroke-linejoin:round;stroke-miterlimit:10;stroke-dasharray:none;stroke-opacity:1"
         d="M 40.96,426.27 H 43.7" /><path
         id="path688"
         style="fill:none;stroke:#333333;stroke-width:1.07000005;stroke-linecap:butt;stroke-linejoin:round;stroke-miterlimit:10;stroke-dasharray:none;stroke-opacity:1"
         d="M 40.96,437.83 H 43.7" /></g><g
       id="g690" /><g
       id="g692" /><g
       id="g694" /><g
       id="g696" /><g
       id="g698" /><g
       id="g700" /><g
       id="g702" /><g
       id="g704"><text
         id="text708"
         style="font-variant:normal;font-weight:normal;font-size:9px;font-family:Helvetica;-inkscape-font-specification:Helvetica;writing-mode:lr-tb;fill:#4d4d4d;fill-opacity:1;fill-rule:nonzero;stroke:none"
         transform="matrix(1,0,0,-1,23.76,302.9)"><tspan
           id="tspan706"
           y="0"
           x="0 5.0040002 10.008">200</tspan></text>
<text
         id="text712"
         style="font-variant:normal;font-weight:normal;font-size:9px;font-family:Helvetica;-inkscape-font-specification:Helvetica;writing-mode:lr-tb;fill:#4d4d4d;fill-opacity:1;fill-rule:nonzero;stroke:none"
         transform="matrix(1,0,0,-1,23.76,322.21)"><tspan
           id="tspan710"
           y="0"
           x="0 5.0040002 10.008">400</tspan></text>
<text
         id="text716"
         style="font-variant:normal;font-weight:normal;font-size:9px;font-family:Helvetica;-inkscape-font-specification:Helvetica;writing-mode:lr-tb;fill:#4d4d4d;fill-opacity:1;fill-rule:nonzero;stroke:none"
         transform="matrix(1,0,0,-1,23.76,341.51)"><tspan
           id="tspan714"
           y="0"
           x="0 5.0040002 10.008">600</tspan></text>
</g><g
       id="g718" /><g
       id="g720"><path
         id="path722"
         style="fill:none;stroke:#333333;stroke-width:1.07000005;stroke-linecap:butt;stroke-linejoin:round;stroke-miterlimit:10;stroke-dasharray:none;stroke-opacity:1"
         d="M 40.96,306.13 H 43.7" /><path
         id="path724"
         style="fill:none;stroke:#333333;stroke-width:1.07000005;stroke-linecap:butt;stroke-linejoin:round;stroke-miterlimit:10;stroke-dasharray:none;stroke-opacity:1"
         d="M 40.96,325.44 H 43.7" /><path
         id="path726"
         style="fill:none;stroke:#333333;stroke-width:1.07000005;stroke-linecap:butt;stroke-linejoin:round;stroke-miterlimit:10;stroke-dasharray:none;stroke-opacity:1"
         d="M 40.96,344.74 H 43.7" /></g><g
       id="g728" /><g
       id="g730" /><g
       id="g732" /><g
       id="g734" /><g
       id="g736" /><g
       id="g738" /><g
       id="g740" /><g
       id="g742"><text
         id="text746"
         style="font-variant:normal;font-weight:normal;font-size:9px;font-family:Helvetica;-inkscape-font-specification:Helvetica;writing-mode:lr-tb;fill:#4d4d4d;fill-opacity:1;fill-rule:nonzero;stroke:none"
         transform="matrix(1,0,0,-1,28.77,204.51)"><tspan
           id="tspan744"
           y="0"
           x="0 5.0040002">30</tspan></text>
<text
         id="text750"
         style="font-variant:normal;font-weight:normal;font-size:9px;font-family:Helvetica;-inkscape-font-specification:Helvetica;writing-mode:lr-tb;fill:#4d4d4d;fill-opacity:1;fill-rule:nonzero;stroke:none"
         transform="matrix(1,0,0,-1,28.77,219.77)"><tspan
           id="tspan748"
           y="0"
           x="0 5.0040002">50</tspan></text>
<text
         id="text754"
         style="font-variant:normal;font-weight:normal;font-size:9px;font-family:Helvetica;-inkscape-font-specification:Helvetica;writing-mode:lr-tb;fill:#4d4d4d;fill-opacity:1;fill-rule:nonzero;stroke:none"
         transform="matrix(1,0,0,-1,28.77,235.03)"><tspan
           id="tspan752"
           y="0"
           x="0 5.0040002">70</tspan></text>
<text
         id="text758"
         style="font-variant:normal;font-weight:normal;font-size:9px;font-family:Helvetica;-inkscape-font-specification:Helvetica;writing-mode:lr-tb;fill:#4d4d4d;fill-opacity:1;fill-rule:nonzero;stroke:none"
         transform="matrix(1,0,0,-1,28.77,250.3)"><tspan
           id="tspan756"
           y="0"
           x="0 5.0040002">90</tspan></text>
</g><g
       id="g760" /><g
       id="g762"><path
         id="path764"
         style="fill:none;stroke:#333333;stroke-width:1.07000005;stroke-linecap:butt;stroke-linejoin:round;stroke-miterlimit:10;stroke-dasharray:none;stroke-opacity:1"
         d="M 40.96,207.74 H 43.7" /><path
         id="path766"
         style="fill:none;stroke:#333333;stroke-width:1.07000005;stroke-linecap:butt;stroke-linejoin:round;stroke-miterlimit:10;stroke-dasharray:none;stroke-opacity:1"
         d="M 40.96,223 H 43.7" /><path
         id="path768"
         style="fill:none;stroke:#333333;stroke-width:1.07000005;stroke-linecap:butt;stroke-linejoin:round;stroke-miterlimit:10;stroke-dasharray:none;stroke-opacity:1"
         d="M 40.96,238.27 H 43.7" /><path
         id="path770"
         style="fill:none;stroke:#333333;stroke-width:1.07000005;stroke-linecap:butt;stroke-linejoin:round;stroke-miterlimit:10;stroke-dasharray:none;stroke-opacity:1"
         d="M 40.96,253.53 H 43.7" /></g><g
       id="g772" /><g
       id="g774" /><g
       id="g776" /><g
       id="g778" /><g
       id="g780" /><g
       id="g782" /><g
       id="g784" /><g
       id="g786"><text
         id="text790"
         style="font-variant:normal;font-weight:normal;font-size:9px;font-family:Helvetica;-inkscape-font-specification:Helvetica;writing-mode:lr-tb;fill:#4d4d4d;fill-opacity:1;fill-rule:nonzero;stroke:none"
         transform="matrix(1,0,0,-1,23.76,131.75)"><tspan
           id="tspan788"
           y="0"
           x="0 5.0040002 10.008">500</tspan></text>
<text
         id="text794"
         style="font-variant:normal;font-weight:normal;font-size:9px;font-family:Helvetica;-inkscape-font-specification:Helvetica;writing-mode:lr-tb;fill:#4d4d4d;fill-opacity:1;fill-rule:nonzero;stroke:none"
         transform="matrix(1,0,0,-1,18.76,149.78)"><tspan
           id="tspan792"
           y="0"
           x="0 5.0040002 10.008 15.012">1000</tspan></text>
<text
         id="text798"
         style="font-variant:normal;font-weight:normal;font-size:9px;font-family:Helvetica;-inkscape-font-specification:Helvetica;writing-mode:lr-tb;fill:#4d4d4d;fill-opacity:1;fill-rule:nonzero;stroke:none"
         transform="matrix(1,0,0,-1,18.76,167.8)"><tspan
           id="tspan796"
           y="0"
           x="0 5.0040002 10.008 15.012">1500</tspan></text>
</g><g
       id="g800" /><g
       id="g802"><path
         id="path804"
         style="fill:none;stroke:#333333;stroke-width:1.07000005;stroke-linecap:butt;stroke-linejoin:round;stroke-miterlimit:10;stroke-dasharray:none;stroke-opacity:1"
         d="M 40.96,134.98 H 43.7" /><path
         id="path806"
         style="fill:none;stroke:#333333;stroke-width:1.07000005;stroke-linecap:butt;stroke-linejoin:round;stroke-miterlimit:10;stroke-dasharray:none;stroke-opacity:1"
         d="M 40.96,153.01 H 43.7" /><path
         id="path808"
         style="fill:none;stroke:#333333;stroke-width:1.07000005;stroke-linecap:butt;stroke-linejoin:round;stroke-miterlimit:10;stroke-dasharray:none;stroke-opacity:1"
         d="M 40.96,171.03 H 43.7" /></g><g
       id="g810" /><g
       id="g812" /><g
       id="g814" /><g
       id="g816" /><g
       id="g818" /><g
       id="g820" /><g
       id="g822" /><g
       id="g824"><text
         id="text828"
         style="font-variant:normal;font-weight:normal;font-size:9px;font-family:Helvetica;-inkscape-font-specification:Helvetica;writing-mode:lr-tb;fill:#4d4d4d;fill-opacity:1;fill-rule:nonzero;stroke:none"
         transform="matrix(1,0,0,-1,28.77,45.8)"><tspan
           id="tspan826"
           y="0"
           x="0 5.0040002">50</tspan></text>
<text
         id="text832"
         style="font-variant:normal;font-weight:normal;font-size:9px;font-family:Helvetica;-inkscape-font-specification:Helvetica;writing-mode:lr-tb;fill:#4d4d4d;fill-opacity:1;fill-rule:nonzero;stroke:none"
         transform="matrix(1,0,0,-1,23.76,63.63)"><tspan
           id="tspan830"
           y="0"
           x="0 5.0040002 10.008">100</tspan></text>
<text
         id="text836"
         style="font-variant:normal;font-weight:normal;font-size:9px;font-family:Helvetica;-inkscape-font-specification:Helvetica;writing-mode:lr-tb;fill:#4d4d4d;fill-opacity:1;fill-rule:nonzero;stroke:none"
         transform="matrix(1,0,0,-1,23.76,81.47)"><tspan
           id="tspan834"
           y="0"
           x="0 5.0040002 10.008">150</tspan></text>
</g><g
       id="g838" /><g
       id="g840"><path
         id="path842"
         style="fill:none;stroke:#333333;stroke-width:1.07000005;stroke-linecap:butt;stroke-linejoin:round;stroke-miterlimit:10;stroke-dasharray:none;stroke-opacity:1"
         d="M 40.96,49.03 H 43.7" /><path
         id="path844"
         style="fill:none;stroke:#333333;stroke-width:1.07000005;stroke-linecap:butt;stroke-linejoin:round;stroke-miterlimit:10;stroke-dasharray:none;stroke-opacity:1"
         d="M 40.96,66.86 H 43.7" /><path
         id="path846"
         style="fill:none;stroke:#333333;stroke-width:1.07000005;stroke-linecap:butt;stroke-linejoin:round;stroke-miterlimit:10;stroke-dasharray:none;stroke-opacity:1"
         d="M 40.96,84.7 H 43.7" /></g><g
       id="g848" /><g
       id="g850" /><g
       id="g852" /><g
       id="g854" /><g
       id="g856" /><g
       id="g858" /><g
       id="g860" /><g
       id="g862" /><g
       id="g864" /><g
       id="g866" /><g
       id="g868" /><g
       id="g870" /><g
       id="g872" /><g
       id="g874" /><g
       id="g876" /><g
       id="g878"><text
         id="text882"
         style="font-variant:normal;font-weight:normal;font-size:11px;font-family:Helvetica;-inkscape-font-specification:Helvetica;writing-mode:lr-tb;fill:#000000;fill-opacity:1;fill-rule:nonzero;stroke:none"
         transform="matrix(1,0,0,-1,259.89,8.12)"><tspan
           id="tspan880"
           y="0"
           x="0 5.7969999 11.913 18.028999">Year</tspan></text>
</g><g
       id="g884" /><g
       id="g886"><text
         id="text890"
         style="font-variant:normal;font-weight:normal;font-size:11px;font-family:Helvetica;-inkscape-font-specification:Helvetica;writing-mode:lr-tb;fill:#000000;fill-opacity:1;fill-rule:nonzero;stroke:none"
         transform="matrix(0,1,1,0,13.38,176.8)"><tspan
           id="tspan888"
           y="0"
           x="0 7.3369999 12.837 15.895 18.337 27.5 33.616001 36.674 42.790001 48.905998 51.964001 59.905998 66.022003 72.138 77.638 83.753998 89.870003 92.928001 96.481003 102.597 105.655 108.097 114.213">Estimated Concentration</tspan></text>
</g><g
       id="g892" /><g
       id="g894" /><g
       id="g896" /><g
       id="g898" /><g
       id="g900" /><g
       id="g902" /><g
       id="g904" /><g
       id="g906"><path
         id="path908"
         style="fill:#ffffff;fill-opacity:1;fill-rule:nonzero;stroke:none"
         d="M 41.07,469.97 H 500.4 v 28.24 H 41.07 Z" /></g><g
       id="g910" /><g
       id="g912" /><g
       id="g914" /><g
       id="g916"><text
         id="text920"
         style="font-variant:normal;font-weight:normal;font-size:11px;font-family:Helvetica;-inkscape-font-specification:Helvetica;writing-mode:lr-tb;fill:#000000;fill-opacity:1;fill-rule:nonzero;stroke:none"
         transform="matrix(1,0,0,-1,46.55,480.14)"><tspan
           id="tspan918"
           y="0"
           x="0 7.3369999 9.7790003 15.895 25.058001 31.174 37.290001">Pigment</tspan></text>
</g><g
       id="g922" /><g
       id="g924" /><g
       id="g926"><path
         id="path928"
         style="fill:#ffffff;fill-opacity:1;fill-rule:nonzero;stroke:none"
         d="m 92.38,475.45 h 17.28 v 17.28 H 92.38 Z" /></g><g
       id="g930" /><g
       id="g932"><path
         id="path934"
         style="fill:#f8766d;fill-opacity:0.2;fill-rule:nonzero;stroke:none"
         d="m 93.09,476.16 h 15.86 v 15.86 H 93.09 Z" /></g><g
       id="g936" /><g
       id="g938"><path
         id="path940"
         style="fill:none;stroke:#f8766d;stroke-width:1.07000005;stroke-linecap:butt;stroke-linejoin:round;stroke-miterlimit:10;stroke-dasharray:none;stroke-opacity:1"
         d="m 94.11,484.09 h 13.82" /></g><g
       id="g942" /><g
       id="g944"><path
         id="path946"
         style="fill:#ffffff;fill-opacity:1;fill-rule:nonzero;stroke:none"
         d="m 164.37,475.45 h 17.28 v 17.28 h -17.28 z" /></g><g
       id="g948" /><g
       id="g950"><path
         id="path952"
         style="fill:#a3a500;fill-opacity:0.2;fill-rule:nonzero;stroke:none"
         d="m 165.07,476.16 h 15.86 v 15.86 h -15.86 z" /></g><g
       id="g954" /><g
       id="g956"><path
         id="path958"
         style="fill:none;stroke:#a3a500;stroke-width:1.07000005;stroke-linecap:butt;stroke-linejoin:round;stroke-miterlimit:10;stroke-dasharray:none;stroke-opacity:1"
         d="m 166.09,484.09 h 13.83" /></g><g
       id="g960" /><g
       id="g962"><path
         id="path964"
         style="fill:#ffffff;fill-opacity:1;fill-rule:nonzero;stroke:none"
         d="m 248.13,475.45 h 17.28 v 17.28 h -17.28 z" /></g><g
       id="g966" /><g
       id="g968"><path
         id="path970"
         style="fill:#00bf7d;fill-opacity:0.2;fill-rule:nonzero;stroke:none"
         d="m 248.84,476.16 h 15.86 v 15.86 h -15.86 z" /></g><g
       id="g972" /><g
       id="g974"><path
         id="path976"
         style="fill:none;stroke:#00bf7d;stroke-width:1.07000005;stroke-linecap:butt;stroke-linejoin:round;stroke-miterlimit:10;stroke-dasharray:none;stroke-opacity:1"
         d="m 249.86,484.09 h 13.83" /></g><g
       id="g978" /><g
       id="g980"><path
         id="path982"
         style="fill:#ffffff;fill-opacity:1;fill-rule:nonzero;stroke:none"
         d="m 325.13,475.45 h 17.28 v 17.28 h -17.28 z" /></g><g
       id="g984" /><g
       id="g986"><path
         id="path988"
         style="fill:#00b0f6;fill-opacity:0.2;fill-rule:nonzero;stroke:none"
         d="m 325.84,476.16 h 15.86 v 15.86 h -15.86 z" /></g><g
       id="g990" /><g
       id="g992"><path
         id="path994"
         style="fill:none;stroke:#00b0f6;stroke-width:1.07000005;stroke-linecap:butt;stroke-linejoin:round;stroke-miterlimit:10;stroke-dasharray:none;stroke-opacity:1"
         d="m 326.85,484.09 h 13.83" /></g><g
       id="g996" /><g
       id="g998"><path
         id="path1000"
         style="fill:#ffffff;fill-opacity:1;fill-rule:nonzero;stroke:none"
         d="m 422.4,475.45 h 17.28 v 17.28 H 422.4 Z" /></g><g
       id="g1002" /><g
       id="g1004"><path
         id="path1006"
         style="fill:#e76bf3;fill-opacity:0.2;fill-rule:nonzero;stroke:none"
         d="m 423.11,476.16 h 15.86 v 15.86 h -15.86 z" /></g><g
       id="g1008" /><g
       id="g1010"><path
         id="path1012"
         style="fill:none;stroke:#e76bf3;stroke-width:1.07000005;stroke-linecap:butt;stroke-linejoin:round;stroke-miterlimit:10;stroke-dasharray:none;stroke-opacity:1"
         d="m 424.13,484.09 h 13.83" /></g><g
       id="g1014" /><g
       id="g1016" /><g
       id="g1018" /><g
       id="g1020"><text
         id="text1024"
         style="font-variant:normal;font-weight:normal;font-size:9px;font-family:Helvetica;-inkscape-font-specification:Helvetica;writing-mode:lr-tb;fill:#000000;fill-opacity:1;fill-rule:nonzero;stroke:none"
         transform="matrix(1,0,0,-1,115.14,480.86)"><tspan
           id="tspan1022"
           y="0"
           x="0 6.0029998 8.0010004 9.9989996 14.733 19.233 24.237 29.240999 31.743 36.747002 38.744999">Alloxanthin</tspan></text>
</g><g
       id="g1026" /><g
       id="g1028" /><g
       id="g1030" /><g
       id="g1032" /><g
       id="g1034"><text
         id="text1038"
         style="font-variant:normal;font-weight:normal;font-size:9px;font-family:Helvetica;-inkscape-font-specification:Helvetica;writing-mode:lr-tb;fill:#000000;fill-opacity:1;fill-rule:nonzero;stroke:none"
         transform="matrix(1,0,0,-1,187.13,480.86)"><tspan
           id="tspan1036"
           y="0"
           x="0 6.0029998 11.007 13.509 18.513 25.011 30.014999 33.012001 38.015999 40.518002 45.521999 50.526001">BetaCarotene</tspan></text>
</g><g
       id="g1040" /><g
       id="g1042" /><g
       id="g1044" /><g
       id="g1046" /><g
       id="g1048"><text
         id="text1052"
         style="font-variant:normal;font-weight:normal;font-size:9px;font-family:Helvetica;-inkscape-font-specification:Helvetica;writing-mode:lr-tb;fill:#000000;fill-opacity:1;fill-rule:nonzero;stroke:none"
         transform="matrix(1,0,0,-1,270.89,480.86)"><tspan
           id="tspan1050"
           y="0"
           x="0 5.4990001 10.503 15.003 19.737 24.237 29.240999 34.244999 36.747002 41.750999 43.749001">Fucoxanthin</tspan></text>
</g><g
       id="g1054" /><g
       id="g1056" /><g
       id="g1058" /><g
       id="g1060" /><g
       id="g1062"><text
         id="text1066"
         style="font-variant:normal;font-weight:normal;font-size:9px;font-family:Helvetica;-inkscape-font-specification:Helvetica;writing-mode:lr-tb;fill:#000000;fill-opacity:1;fill-rule:nonzero;stroke:none"
         transform="matrix(1,0,0,-1,347.89,480.86)"><tspan
           id="tspan1064"
           y="0"
           x="0 5.0040002 10.008 12.51 17.514 19.511999 24.516001 30.014999 35.019001 40.022999 44.522999 49.527 54.530998 57.033001 62.036999 64.035004">LuteinZeaxanthin</tspan></text>
</g><g
       id="g1068" /><g
       id="g1070" /><g
       id="g1072" /><g
       id="g1074" /><g
       id="g1076"><text
         id="text1080"
         style="font-variant:normal;font-weight:normal;font-size:9px;font-family:Helvetica;-inkscape-font-specification:Helvetica;writing-mode:lr-tb;fill:#000000;fill-opacity:1;fill-rule:nonzero;stroke:none"
         transform="matrix(1,0,0,-1,445.16,480.86)"><tspan
           id="tspan1078"
           y="0"
           x="0 6.0029998 11.007 16.011 21.014999 26.018999 30.753 35.252998 37.755001 39.752998 44.757">Pheophytinb</tspan></text>
</g><g
       id="g1082" /><g
       id="g1084" /><g
       id="g1086" /><g
       id="g1088" /><g
       id="g1090" /><g
       id="g1092" /><g
       id="g1094" /><g
       id="g1096" /><g
       id="g1098" /><g
       id="g1100" /><g
       id="g1102" /><g
       id="g1104" /><g
       id="g1106" /></g></svg>