<?xml version="1.0" encoding="UTF-8" standalone="no"?>
<svg
   xmlns:dc="http://purl.org/dc/elements/1.1/"
   xmlns:cc="http://creativecommons.org/ns#"
   xmlns:rdf="http://www.w3.org/1999/02/22-rdf-syntax-ns#"
   xmlns:svg="http://www.w3.org/2000/svg"
   xmlns="http://www.w3.org/2000/svg"
   viewBox="0 0 670.66669 670.66669"
   height="670.66669"
   width="670.66669"
   xml:space="preserve"
   id="svg2"
   version="1.1"><metadata
     id="metadata8"><rdf:RDF><cc:Work
         rdf:about=""><dc:format>image/svg+xml</dc:format><dc:type
           rdf:resource="http://purl.org/dc/dcmitype/StillImage" /><dc:title></dc:title></cc:Work></rdf:RDF></metadata><defs
     id="defs6"><clipPath
       id="clipPath78"
       clipPathUnits="userSpaceOnUse"><path
         id="path76"
         d="M 0,0 H 503.25 V 503.69 H 0 Z" /></clipPath><clipPath
       id="clipPath90"
       clipPathUnits="userSpaceOnUse"><path
         id="path88"
         d="m 38.7,378.15 h 459.07 v 62.99 H 38.7 Z" /></clipPath><clipPath
       id="clipPath138"
       clipPathUnits="userSpaceOnUse"><path
         id="path136"
         d="M 38.7,291.81 H 497.77 V 354.8 H 38.7 Z" /></clipPath><clipPath
       id="clipPath192"
       clipPathUnits="userSpaceOnUse"><path
         id="path190"
         d="m 38.7,205.47 h 459.07 v 62.99 H 38.7 Z" /></clipPath><clipPath
       id="clipPath246"
       clipPathUnits="userSpaceOnUse"><path
         id="path244"
         d="m 38.7,119.13 h 459.07 v 62.99 H 38.7 Z" /></clipPath><clipPath
       id="clipPath296"
       clipPathUnits="userSpaceOnUse"><path
         id="path294"
         d="M 38.7,32.79 H 497.77 V 95.78 H 38.7 Z" /></clipPath><clipPath
       id="clipPath346"
       clipPathUnits="userSpaceOnUse"><path
         id="path344"
         d="m 38.7,95.78 h 459.07 v 17.87 H 38.7 Z" /></clipPath><clipPath
       id="clipPath354"
       clipPathUnits="userSpaceOnUse"><path
         id="path352"
         d="m 38.7,95.78 h 459.07 v 17.87 H 38.7 Z" /></clipPath><clipPath
       id="clipPath368"
       clipPathUnits="userSpaceOnUse"><path
         id="path366"
         d="m 38.7,95.78 h 459.07 v 17.87 H 38.7 Z" /></clipPath><clipPath
       id="clipPath376"
       clipPathUnits="userSpaceOnUse"><path
         id="path374"
         d="m 38.7,95.78 h 459.07 v 17.87 H 38.7 Z" /></clipPath><clipPath
       id="clipPath386"
       clipPathUnits="userSpaceOnUse"><path
         id="path384"
         d="m 38.7,182.12 h 459.07 v 17.87 H 38.7 Z" /></clipPath><clipPath
       id="clipPath394"
       clipPathUnits="userSpaceOnUse"><path
         id="path392"
         d="m 38.7,182.12 h 459.07 v 17.87 H 38.7 Z" /></clipPath><clipPath
       id="clipPath408"
       clipPathUnits="userSpaceOnUse"><path
         id="path406"
         d="m 38.7,182.12 h 459.07 v 17.87 H 38.7 Z" /></clipPath><clipPath
       id="clipPath416"
       clipPathUnits="userSpaceOnUse"><path
         id="path414"
         d="m 38.7,182.12 h 459.07 v 17.87 H 38.7 Z" /></clipPath><clipPath
       id="clipPath426"
       clipPathUnits="userSpaceOnUse"><path
         id="path424"
         d="m 38.7,268.46 h 459.07 v 17.87 H 38.7 Z" /></clipPath><clipPath
       id="clipPath434"
       clipPathUnits="userSpaceOnUse"><path
         id="path432"
         d="m 38.7,268.46 h 459.07 v 17.87 H 38.7 Z" /></clipPath><clipPath
       id="clipPath448"
       clipPathUnits="userSpaceOnUse"><path
         id="path446"
         d="m 38.7,268.46 h 459.07 v 17.87 H 38.7 Z" /></clipPath><clipPath
       id="clipPath456"
       clipPathUnits="userSpaceOnUse"><path
         id="path454"
         d="m 38.7,268.46 h 459.07 v 17.87 H 38.7 Z" /></clipPath><clipPath
       id="clipPath466"
       clipPathUnits="userSpaceOnUse"><path
         id="path464"
         d="m 38.7,354.8 h 459.07 v 17.87 H 38.7 Z" /></clipPath><clipPath
       id="clipPath474"
       clipPathUnits="userSpaceOnUse"><path
         id="path472"
         d="m 38.7,354.8 h 459.07 v 17.87 H 38.7 Z" /></clipPath><clipPath
       id="clipPath488"
       clipPathUnits="userSpaceOnUse"><path
         id="path486"
         d="m 38.7,354.8 h 459.07 v 17.87 H 38.7 Z" /></clipPath><clipPath
       id="clipPath496"
       clipPathUnits="userSpaceOnUse"><path
         id="path494"
         d="m 38.7,354.8 h 459.07 v 17.87 H 38.7 Z" /></clipPath><clipPath
       id="clipPath506"
       clipPathUnits="userSpaceOnUse"><path
         id="path504"
         d="m 38.7,441.14 h 459.07 v 17.87 H 38.7 Z" /></clipPath><clipPath
       id="clipPath514"
       clipPathUnits="userSpaceOnUse"><path
         id="path512"
         d="m 38.7,441.14 h 459.07 v 17.87 H 38.7 Z" /></clipPath><clipPath
       id="clipPath528"
       clipPathUnits="userSpaceOnUse"><path
         id="path526"
         d="m 38.7,441.14 h 459.07 v 17.87 H 38.7 Z" /></clipPath><clipPath
       id="clipPath536"
       clipPathUnits="userSpaceOnUse"><path
         id="path534"
         d="m 38.7,441.14 h 459.07 v 17.87 H 38.7 Z" /></clipPath></defs><g
     transform="matrix(1.3333333,0,0,-1.3333333,0,670.66667)"
     id="g10"><g
       id="g12" /><g
       id="g14" /><g
       id="g16" /><g
       id="g18" /><g
       id="g20" /><g
       id="g22" /><g
       id="g24" /><g
       id="g26" /><g
       id="g28" /><g
       id="g30" /><g
       id="g32" /><g
       id="g34" /><g
       id="g36" /><g
       id="g38" /><g
       id="g40" /><g
       id="g42" /><g
       id="g44" /><g
       id="g46" /><g
       id="g48" /><g
       id="g50" /><g
       id="g52" /><g
       id="g54" /><g
       id="g56" /><g
       id="g58" /><g
       id="g60" /><g
       id="g62" /><g
       id="g64" /><g
       id="g66" /><g
       id="g68" /><g
       id="g70" /><g
       id="g72"><g
         clip-path="url(#clipPath78)"
         id="g74"><path
           id="path80"
           style="fill:#ffffff;fill-opacity:1;fill-rule:nonzero;stroke:#ffffff;stroke-width:1.07000005;stroke-linecap:round;stroke-linejoin:round;stroke-miterlimit:10;stroke-dasharray:none;stroke-opacity:1"
           d="M 0,0 H 503.25 V 503.69 H 0 Z" /></g></g><g
       id="g82" /><g
       id="g84"><g
         clip-path="url(#clipPath90)"
         id="g86"><path
           id="path92"
           style="fill:#ffffff;fill-opacity:1;fill-rule:nonzero;stroke:none"
           d="m 38.7,378.15 h 459.07 v 62.99 H 38.7 Z" /><path
           id="path94"
           style="fill:none;stroke:#ebebeb;stroke-width:0.52999997;stroke-linecap:butt;stroke-linejoin:round;stroke-miterlimit:10;stroke-dasharray:none;stroke-opacity:1"
           d="M 38.7,386.88 H 497.77" /><path
           id="path96"
           style="fill:none;stroke:#ebebeb;stroke-width:0.52999997;stroke-linecap:butt;stroke-linejoin:round;stroke-miterlimit:10;stroke-dasharray:none;stroke-opacity:1"
           d="M 38.7,409.05 H 497.77" /><path
           id="path98"
           style="fill:none;stroke:#ebebeb;stroke-width:0.52999997;stroke-linecap:butt;stroke-linejoin:round;stroke-miterlimit:10;stroke-dasharray:none;stroke-opacity:1"
           d="M 38.7,431.21 H 497.77" /><path
           id="path100"
           style="fill:none;stroke:#ebebeb;stroke-width:0.52999997;stroke-linecap:butt;stroke-linejoin:round;stroke-miterlimit:10;stroke-dasharray:none;stroke-opacity:1"
           d="m 77.33,378.15 v 62.99" /><path
           id="path102"
           style="fill:none;stroke:#ebebeb;stroke-width:0.52999997;stroke-linecap:butt;stroke-linejoin:round;stroke-miterlimit:10;stroke-dasharray:none;stroke-opacity:1"
           d="m 166.12,378.15 v 62.99" /><path
           id="path104"
           style="fill:none;stroke:#ebebeb;stroke-width:0.52999997;stroke-linecap:butt;stroke-linejoin:round;stroke-miterlimit:10;stroke-dasharray:none;stroke-opacity:1"
           d="m 254.92,378.15 v 62.99" /><path
           id="path106"
           style="fill:none;stroke:#ebebeb;stroke-width:0.52999997;stroke-linecap:butt;stroke-linejoin:round;stroke-miterlimit:10;stroke-dasharray:none;stroke-opacity:1"
           d="m 343.71,378.15 v 62.99" /><path
           id="path108"
           style="fill:none;stroke:#ebebeb;stroke-width:0.52999997;stroke-linecap:butt;stroke-linejoin:round;stroke-miterlimit:10;stroke-dasharray:none;stroke-opacity:1"
           d="m 432.51,378.15 v 62.99" /><path
           id="path110"
           style="fill:none;stroke:#ebebeb;stroke-width:1.07000005;stroke-linecap:butt;stroke-linejoin:round;stroke-miterlimit:10;stroke-dasharray:none;stroke-opacity:1"
           d="M 38.7,397.97 H 497.77" /><path
           id="path112"
           style="fill:none;stroke:#ebebeb;stroke-width:1.07000005;stroke-linecap:butt;stroke-linejoin:round;stroke-miterlimit:10;stroke-dasharray:none;stroke-opacity:1"
           d="M 38.7,420.13 H 497.77" /><path
           id="path114"
           style="fill:none;stroke:#ebebeb;stroke-width:1.07000005;stroke-linecap:butt;stroke-linejoin:round;stroke-miterlimit:10;stroke-dasharray:none;stroke-opacity:1"
           d="m 121.72,378.15 v 62.99" /><path
           id="path116"
           style="fill:none;stroke:#ebebeb;stroke-width:1.07000005;stroke-linecap:butt;stroke-linejoin:round;stroke-miterlimit:10;stroke-dasharray:none;stroke-opacity:1"
           d="m 210.52,378.15 v 62.99" /><path
           id="path118"
           style="fill:none;stroke:#ebebeb;stroke-width:1.07000005;stroke-linecap:butt;stroke-linejoin:round;stroke-miterlimit:10;stroke-dasharray:none;stroke-opacity:1"
           d="m 299.31,378.15 v 62.99" /><path
           id="path120"
           style="fill:none;stroke:#ebebeb;stroke-width:1.07000005;stroke-linecap:butt;stroke-linejoin:round;stroke-miterlimit:10;stroke-dasharray:none;stroke-opacity:1"
           d="m 388.11,378.15 v 62.99" /><path
           id="path122"
           style="fill:none;stroke:#ebebeb;stroke-width:1.07000005;stroke-linecap:butt;stroke-linejoin:round;stroke-miterlimit:10;stroke-dasharray:none;stroke-opacity:1"
           d="m 476.9,378.15 v 62.99" /><path
           id="path124"
           style="fill:#f8766d;fill-opacity:0.2;fill-rule:nonzero;stroke:none"
           d="m 59.57,388.85 2.09,0.05 2.1,0.06 2.1,0.06 2.1,0.05 2.09,0.07 2.1,0.03 2.1,0.06 2.09,0.07 2.1,0.02 2.1,0.07 2.1,0.08 2.09,0.04 2.1,0.11 2.1,0.08 2.1,0.05 2.09,0.07 2.1,0.07 2.1,0.05 2.09,0.03 2.1,0.04 2.1,0.04 2.1,0.04 2.09,0.03 2.1,0.04 2.1,0.05 2.09,0.05 2.1,0.03 2.1,0.01 2.1,0.02 2.09,0.01 2.1,0.03 2.1,0.01 2.09,0.02 2.1,0.03 2.1,-0.01 2.1,-0.02 2.09,0.01 2.1,0.02 2.1,0.03 2.09,0.03 h 2.1 l 2.1,-0.03 2.1,-0.02 2.09,0.03 2.1,-0.03 2.1,-0.01 2.09,0.02 2.1,0.02 2.1,-0.01 2.1,-0.04 2.09,-0.01 2.1,-0.02 2.1,0.01 h 2.09 l 2.1,-0.03 2.1,-0.02 h 2.1 l 2.09,0.02 2.1,0.01 2.1,-0.01 2.09,0.01 2.1,0.02 2.1,-0.03 2.1,0.02 2.09,0.02 2.1,0.01 2.1,0.01 2.09,0.05 2.1,0.02 2.1,0.04 2.1,0.08 2.09,0.1 2.1,0.07 2.1,0.11 2.1,0.13 2.09,0.13 2.1,0.12 2.1,0.15 2.09,0.16 2.1,0.21 2.1,0.23 2.1,0.24 2.09,0.27 2.1,0.24 2.1,0.31 2.09,0.29 2.1,0.32 2.1,0.35 2.1,0.38 2.09,0.36 2.1,0.45 2.1,0.44 2.09,0.43 2.1,0.44 2.1,0.42 2.1,0.46 2.09,0.48 2.1,0.56 2.1,0.56 2.09,0.49 2.1,0.57 2.1,0.55 2.1,0.58 2.09,0.63 2.1,0.47 2.1,0.58 2.09,0.64 2.1,0.61 2.1,0.57 2.1,0.69 2.09,0.6 2.1,0.57 2.1,0.49 2.09,0.57 2.1,0.54 2.1,0.52 2.1,0.51 2.09,0.53 2.1,0.53 2.1,0.49 2.09,0.41 2.1,0.41 2.1,0.38 2.1,0.41 2.09,0.33 2.1,0.4 2.1,0.33 2.09,0.25 2.1,0.28 2.1,0.3 2.1,0.37 2.09,0.29 2.1,0.16 2.1,0.26 2.1,0.25 2.09,0.37 2.1,0.17 2.1,0.16 2.09,0.07 2.1,0.17 2.1,0.18 2.1,0.28 2.09,0.11 2.1,0.21 2.1,0.22 2.09,0.28 2.1,0.27 2.1,0.33 2.1,0.28 2.09,0.31 2.1,0.3 2.1,0.35 2.09,0.16 2.1,0.36 2.1,0.31 2.1,0.43 2.09,0.31 2.1,0.39 2.1,0.47 2.09,0.37 2.1,0.42 2.1,0.52 2.1,0.61 2.09,0.54 2.1,0.55 2.1,0.69 2.09,0.38 2.1,0.54 2.1,0.54 2.1,0.53 2.09,0.47 2.1,0.4 2.1,0.43 2.09,0.48 2.1,0.52 2.1,0.33 2.1,0.54 2.09,0.33 2.1,0.41 2.1,0.42 2.09,0.23 2.1,0.38 2.1,0.34 2.1,0.22 2.09,0.19 2.1,0.32 2.1,0.1 2.09,0.42 2.1,0.57 2.1,0.38 2.1,0.32 2.09,-0.04 2.1,0.21 2.1,0.19 2.1,0.69 2.09,0.25 2.1,0.57 2.1,0.35 2.09,0.5 V 400.5 l -2.09,0.21 -2.1,0.25 -2.1,0.23 -2.09,0.22 -2.1,0.28 -2.1,0.22 -2.1,0.05 -2.09,0.11 -2.1,0.19 -2.1,0.07 -2.1,0.08 -2.09,0.16 -2.1,0.04 -2.1,0.05 -2.09,0.09 -2.1,0.05 -2.1,-0.01 -2.1,0.06 -2.09,0.03 -2.1,-0.05 -2.1,0.05 -2.09,0.04 -2.1,-0.05 -2.1,0.04 -2.1,-0.04 -2.09,-0.11 -2.1,-0.06 -2.1,-0.08 -2.09,-0.14 -2.1,-0.08 -2.1,-0.2 -2.1,-0.08 -2.09,-0.2 -2.1,-0.15 -2.1,-0.18 -2.09,-0.16 -2.1,-0.18 -2.1,-0.18 -2.1,-0.14 -2.09,-0.17 -2.1,-0.2 -2.1,-0.16 -2.09,-0.17 -2.1,-0.18 -2.1,-0.17 -2.1,-0.1 -2.09,-0.1 -2.1,-0.13 -2.1,-0.19 -2.09,-0.12 -2.1,-0.07 -2.1,-0.14 -2.1,-0.11 -2.09,-0.15 -2.1,-0.07 -2.1,-0.08 -2.09,-0.03 -2.1,-0.05 -2.1,-0.06 -2.1,-0.01 -2.09,-0.08 -2.1,-0.05 -2.1,-0.01 -2.09,-0.03 -2.1,-0.05 -2.1,-0.02 -2.1,-0.06 -2.09,-0.02 -2.1,-0.01 -2.1,-0.04 -2.1,-0.06 -2.09,-0.11 -2.1,-0.08 -2.1,-0.11 -2.09,-0.14 -2.1,-0.15 -2.1,-0.18 -2.1,-0.24 -2.09,-0.21 -2.1,-0.27 -2.1,-0.26 -2.09,-0.34 -2.1,-0.32 -2.1,-0.33 -2.1,-0.38 -2.09,-0.37 -2.1,-0.41 -2.1,-0.38 -2.09,-0.43 -2.1,-0.41 -2.1,-0.43 -2.1,-0.42 -2.09,-0.45 -2.1,-0.42 -2.1,-0.44 -2.09,-0.41 -2.1,-0.4 -2.1,-0.38 -2.1,-0.42 -2.09,-0.37 -2.1,-0.39 -2.1,-0.35 -2.09,-0.31 -2.1,-0.34 -2.1,-0.3 -2.1,-0.25 -2.09,-0.28 -2.1,-0.23 -2.1,-0.27 -2.09,-0.21 -2.1,-0.21 -2.1,-0.2 -2.1,-0.19 -2.09,-0.16 -2.1,-0.16 -2.1,-0.12 -2.09,-0.12 -2.1,-0.11 -2.1,-0.08 -2.1,-0.08 -2.09,-0.08 -2.1,-0.06 -2.1,-0.07 -2.09,-0.05 -2.1,-0.04 -2.1,-0.03 -2.1,-0.03 -2.09,-0.02 -2.1,-0.01 -2.1,-0.01 -2.1,-0.02 -2.09,-0.02 -2.1,-0.02 -2.1,-0.02 -2.09,-0.02 h -2.1 l -2.1,-0.01 h -2.1 l -2.09,0.01 -2.1,0.01 h -2.1 l -2.09,0.02 h -2.1 l -2.1,0.03 -2.1,0.01 -2.09,0.01 -2.1,0.01 h -2.1 l -2.09,0.01 -2.1,0.01 h -2.1 l -2.1,0.02 -2.09,0.02 -2.1,-0.01 h -2.1 l -2.09,-0.01 -2.1,-0.01 h -2.1 l -2.1,-0.02 -2.09,0.01 -2.1,-0.02 -2.1,-0.04 -2.09,-0.03 -2.1,-0.02 -2.1,-0.06 -2.1,-0.03 -2.09,-0.02 -2.1,-0.03 -2.1,-0.06 -2.09,-0.07 -2.1,-0.05 -2.1,-0.07 -2.1,-0.07 -2.09,-0.06 -2.1,-0.07 -2.1,-0.06 -2.09,-0.09 -2.1,-0.09 -2.1,-0.06 -2.1,-0.09 -2.09,-0.09 -2.1,-0.09 -2.1,-0.1 -2.09,-0.11 -2.1,-0.09 -2.1,-0.09 -2.1,-0.11 -2.09,-0.1 -2.1,-0.1 -2.1,-0.1 -2.1,-0.1 -2.09,-0.1 -2.1,-0.1 -2.1,-0.09 -2.09,-0.12 -2.1,-0.11 -2.1,-0.1 -2.1,-0.12 -2.09,-0.1 z" /><path
           id="path126"
           style="fill:none;stroke:#f8766d;stroke-width:1.07000005;stroke-linecap:butt;stroke-linejoin:round;stroke-miterlimit:10;stroke-dasharray:none;stroke-opacity:1"
           d="m 59.57,383.8 2.09,0.1 2.1,0.11 2.1,0.1 2.1,0.09 2.09,0.1 2.1,0.09 2.1,0.11 2.09,0.08 2.1,0.12 2.1,0.1 2.1,0.1 2.09,0.09 2.1,0.1 2.1,0.09 2.1,0.09 2.09,0.08 2.1,0.1 2.1,0.08 2.09,0.08 2.1,0.08 2.1,0.09 2.1,0.06 2.09,0.07 2.1,0.05 2.1,0.06 2.09,0.06 2.1,0.06 2.1,0.05 2.1,0.04 2.09,0.05 2.1,0.03 2.1,0.03 2.09,0.03 2.1,0.05 2.1,0.03 2.1,0.03 2.09,0.02 2.1,0.01 2.1,0.03 2.09,0.02 2.1,0.01 2.1,0.02 2.1,0.02 2.09,-0.01 2.1,0.01 2.1,0.01 h 2.09 l 2.1,-0.01 h 2.1 l 2.1,-0.01 2.09,0.01 2.1,-0.02 2.1,-0.01 h 2.09 l 2.1,0.01 2.1,-0.01 2.1,-0.01 2.09,-0.01 2.1,-0.02 h 2.1 2.09 l 2.1,-0.01 2.1,0.01 2.1,0.01 2.09,0.01 h 2.1 l 2.1,0.01 2.09,0.04 2.1,0.02 2.1,0.06 2.1,0.04 2.09,0.05 2.1,0.06 2.1,0.07 2.1,0.06 2.09,0.09 2.1,0.09 2.1,0.1 2.09,0.12 2.1,0.15 2.1,0.14 2.1,0.17 2.09,0.17 2.1,0.19 2.1,0.18 2.09,0.22 2.1,0.25 2.1,0.25 2.1,0.29 2.09,0.3 2.1,0.31 2.1,0.35 2.09,0.36 2.1,0.38 2.1,0.37 2.1,0.39 2.09,0.44 2.1,0.43 2.1,0.45 2.09,0.46 2.1,0.48 2.1,0.5 2.1,0.48 2.09,0.49 2.1,0.5 2.1,0.49 2.09,0.49 2.1,0.49 2.1,0.49 2.1,0.5 2.09,0.46 2.1,0.42 2.1,0.46 2.09,0.45 2.1,0.44 2.1,0.44 2.1,0.38 2.09,0.38 2.1,0.36 2.1,0.34 2.09,0.31 2.1,0.28 2.1,0.28 2.1,0.26 2.09,0.19 2.1,0.19 2.1,0.15 2.09,0.15 2.1,0.12 2.1,0.14 2.1,0.1 2.09,0.1 2.1,0.11 2.1,0.07 2.1,0.07 2.09,0.05 2.1,0.1 2.1,0.07 2.09,0.08 2.1,0.07 2.1,0.07 2.1,0.07 2.09,0.08 2.1,0.09 2.1,0.14 2.09,0.11 2.1,0.15 2.1,0.09 2.1,0.11 2.09,0.17 2.1,0.18 2.1,0.18 2.09,0.25 2.1,0.24 2.1,0.24 2.1,0.2 2.09,0.26 2.1,0.3 2.1,0.27 2.09,0.24 2.1,0.28 2.1,0.35 2.1,0.29 2.09,0.3 2.1,0.32 2.1,0.33 2.09,0.26 2.1,0.26 2.1,0.25 2.1,0.2 2.09,0.18 2.1,0.24 2.1,0.18 2.09,0.14 2.1,0.23 2.1,0.2 2.1,0.11 2.09,0.07 2.1,0.11 2.1,0.13 2.09,0.09 2.1,0.04 2.1,0.1 2.1,0.06 2.09,0.03 2.1,-0.01 2.1,-0.04 2.09,0.01 h 2.1 l 2.1,-0.06 2.1,-0.06 2.09,-0.09 2.1,-0.05 2.1,-0.03 2.1,-0.09 2.09,-0.01 2.1,-0.07 2.1,-0.12 2.09,-0.14" /><path
           id="path128"
           style="fill:none;stroke:#333333;stroke-width:1.07000005;stroke-linecap:round;stroke-linejoin:round;stroke-miterlimit:10;stroke-dasharray:none;stroke-opacity:1"
           d="m 38.7,378.15 h 459.07 v 62.99 H 38.7 Z" /></g></g><g
       id="g130" /><g
       id="g132"><g
         clip-path="url(#clipPath138)"
         id="g134"><path
           id="path140"
           style="fill:#ffffff;fill-opacity:1;fill-rule:nonzero;stroke:none"
           d="M 38.7,291.81 H 497.77 V 354.8 H 38.7 Z" /><path
           id="path142"
           style="fill:none;stroke:#ebebeb;stroke-width:0.52999997;stroke-linecap:butt;stroke-linejoin:round;stroke-miterlimit:10;stroke-dasharray:none;stroke-opacity:1"
           d="M 38.7,296.31 H 497.77" /><path
           id="path144"
           style="fill:none;stroke:#ebebeb;stroke-width:0.52999997;stroke-linecap:butt;stroke-linejoin:round;stroke-miterlimit:10;stroke-dasharray:none;stroke-opacity:1"
           d="M 38.7,311.25 H 497.77" /><path
           id="path146"
           style="fill:none;stroke:#ebebeb;stroke-width:0.52999997;stroke-linecap:butt;stroke-linejoin:round;stroke-miterlimit:10;stroke-dasharray:none;stroke-opacity:1"
           d="M 38.7,326.19 H 497.77" /><path
           id="path148"
           style="fill:none;stroke:#ebebeb;stroke-width:0.52999997;stroke-linecap:butt;stroke-linejoin:round;stroke-miterlimit:10;stroke-dasharray:none;stroke-opacity:1"
           d="M 38.7,341.12 H 497.77" /><path
           id="path150"
           style="fill:none;stroke:#ebebeb;stroke-width:0.52999997;stroke-linecap:butt;stroke-linejoin:round;stroke-miterlimit:10;stroke-dasharray:none;stroke-opacity:1"
           d="M 77.33,291.81 V 354.8" /><path
           id="path152"
           style="fill:none;stroke:#ebebeb;stroke-width:0.52999997;stroke-linecap:butt;stroke-linejoin:round;stroke-miterlimit:10;stroke-dasharray:none;stroke-opacity:1"
           d="M 166.12,291.81 V 354.8" /><path
           id="path154"
           style="fill:none;stroke:#ebebeb;stroke-width:0.52999997;stroke-linecap:butt;stroke-linejoin:round;stroke-miterlimit:10;stroke-dasharray:none;stroke-opacity:1"
           d="M 254.92,291.81 V 354.8" /><path
           id="path156"
           style="fill:none;stroke:#ebebeb;stroke-width:0.52999997;stroke-linecap:butt;stroke-linejoin:round;stroke-miterlimit:10;stroke-dasharray:none;stroke-opacity:1"
           d="M 343.71,291.81 V 354.8" /><path
           id="path158"
           style="fill:none;stroke:#ebebeb;stroke-width:0.52999997;stroke-linecap:butt;stroke-linejoin:round;stroke-miterlimit:10;stroke-dasharray:none;stroke-opacity:1"
           d="M 432.51,291.81 V 354.8" /><path
           id="path160"
           style="fill:none;stroke:#ebebeb;stroke-width:1.07000005;stroke-linecap:butt;stroke-linejoin:round;stroke-miterlimit:10;stroke-dasharray:none;stroke-opacity:1"
           d="M 38.7,303.78 H 497.77" /><path
           id="path162"
           style="fill:none;stroke:#ebebeb;stroke-width:1.07000005;stroke-linecap:butt;stroke-linejoin:round;stroke-miterlimit:10;stroke-dasharray:none;stroke-opacity:1"
           d="M 38.7,318.72 H 497.77" /><path
           id="path164"
           style="fill:none;stroke:#ebebeb;stroke-width:1.07000005;stroke-linecap:butt;stroke-linejoin:round;stroke-miterlimit:10;stroke-dasharray:none;stroke-opacity:1"
           d="M 38.7,333.65 H 497.77" /><path
           id="path166"
           style="fill:none;stroke:#ebebeb;stroke-width:1.07000005;stroke-linecap:butt;stroke-linejoin:round;stroke-miterlimit:10;stroke-dasharray:none;stroke-opacity:1"
           d="M 38.7,348.59 H 497.77" /><path
           id="path168"
           style="fill:none;stroke:#ebebeb;stroke-width:1.07000005;stroke-linecap:butt;stroke-linejoin:round;stroke-miterlimit:10;stroke-dasharray:none;stroke-opacity:1"
           d="M 121.72,291.81 V 354.8" /><path
           id="path170"
           style="fill:none;stroke:#ebebeb;stroke-width:1.07000005;stroke-linecap:butt;stroke-linejoin:round;stroke-miterlimit:10;stroke-dasharray:none;stroke-opacity:1"
           d="M 210.52,291.81 V 354.8" /><path
           id="path172"
           style="fill:none;stroke:#ebebeb;stroke-width:1.07000005;stroke-linecap:butt;stroke-linejoin:round;stroke-miterlimit:10;stroke-dasharray:none;stroke-opacity:1"
           d="M 299.31,291.81 V 354.8" /><path
           id="path174"
           style="fill:none;stroke:#ebebeb;stroke-width:1.07000005;stroke-linecap:butt;stroke-linejoin:round;stroke-miterlimit:10;stroke-dasharray:none;stroke-opacity:1"
           d="M 388.11,291.81 V 354.8" /><path
           id="path176"
           style="fill:none;stroke:#ebebeb;stroke-width:1.07000005;stroke-linecap:butt;stroke-linejoin:round;stroke-miterlimit:10;stroke-dasharray:none;stroke-opacity:1"
           d="M 476.9,291.81 V 354.8" /><path
           id="path178"
           style="fill:#a3a500;fill-opacity:0.2;fill-rule:nonzero;stroke:none"
           d="m 59.57,305.85 2.09,-0.14 2.1,-0.1 2.1,-0.12 2.1,-0.22 2.09,-0.07 2.1,-0.06 2.1,-0.03 2.09,-0.04 2.1,-0.17 2.1,-0.14 2.1,-0.12 2.09,-0.11 2.1,-0.03 2.1,-0.04 2.1,-0.06 2.09,-0.13 2.1,-0.1 2.1,-0.09 2.09,-0.16 2.1,-0.12 2.1,-0.07 2.1,-0.07 2.09,-0.15 2.1,-0.09 2.1,-0.11 2.09,-0.09 2.1,-0.06 2.1,-0.08 2.1,-0.1 2.09,-0.02 2.1,-0.08 2.1,-0.1 2.09,-0.11 2.1,-0.06 2.1,-0.06 2.1,-0.11 2.09,-0.06 2.1,-0.07 2.1,-0.03 2.09,0.05 2.1,-0.03 2.1,-0.05 2.1,-0.04 2.09,0.03 2.1,-0.03 2.1,-0.01 2.09,0.02 2.1,-0.04 2.1,-0.01 2.1,-0.03 2.09,-0.04 2.1,0.01 2.1,0.03 2.09,-0.03 2.1,-0.01 h 2.1 l 2.1,-0.03 2.09,-0.01 2.1,0.03 2.1,-0.03 2.09,0.02 2.1,0.04 h 2.1 l 2.1,0.02 2.09,0.04 2.1,0.03 2.1,0.05 2.09,0.05 2.1,0.06 2.1,0.04 2.1,0.07 2.09,0.07 2.1,0.1 2.1,0.1 2.1,0.11 2.09,0.15 2.1,0.19 2.1,0.2 2.09,0.18 2.1,0.21 2.1,0.27 2.1,0.24 2.09,0.27 2.1,0.27 2.1,0.31 2.09,0.3 2.1,0.34 2.1,0.37 2.1,0.43 2.09,0.37 2.1,0.47 2.1,0.43 2.09,0.46 2.1,0.43 2.1,0.44 2.1,0.45 2.09,0.51 2.1,0.6 2.1,0.58 2.09,0.67 2.1,0.59 2.1,0.62 2.1,0.61 2.09,0.7 2.1,0.61 2.1,0.65 2.09,0.7 2.1,0.69 2.1,0.65 2.1,0.69 2.09,0.59 2.1,0.61 2.1,0.65 2.09,0.68 2.1,0.58 2.1,0.56 2.1,0.6 2.09,0.46 2.1,0.49 2.1,0.58 2.09,0.46 2.1,0.4 2.1,0.37 2.1,0.35 2.09,0.29 2.1,0.22 2.1,0.25 2.09,0.21 2.1,0.21 2.1,0.25 2.1,0.21 2.09,0.17 2.1,0.19 2.1,0.15 2.1,0.06 2.09,0.03 2.1,0.09 2.1,0.13 2.09,0.14 2.1,0.04 2.1,0.02 2.1,0.12 2.09,0.16 2.1,0.13 2.1,0.11 2.09,0.1 2.1,0.13 2.1,0.1 2.1,0.22 2.09,0.11 2.1,0.22 2.1,0.26 2.09,0.23 2.1,0.35 2.1,0.28 2.1,0.27 2.09,0.39 2.1,0.23 2.1,0.24 2.09,0.36 2.1,0.3 2.1,0.23 2.1,0.44 2.09,0.32 2.1,0.4 2.1,0.51 2.09,0.46 2.1,0.42 2.1,0.44 2.1,0.68 2.09,0.59 2.1,0.85 2.1,0.66 2.09,0.4 2.1,0.51 2.1,0.45 2.1,0.66 2.09,0.55 2.1,0.58 2.1,0.59 2.09,0.7 2.1,0.48 2.1,0.55 2.1,0.45 2.09,0.43 2.1,0.39 2.1,0.47 2.09,0.4 2.1,0.46 2.1,0.34 2.1,0.43 2.09,0.61 2.1,0.32 2.1,0.51 2.1,0.54 2.09,0.64 2.1,0.46 2.1,0.71 2.09,0.45 v -37.9 l -2.09,0.19 -2.1,0.1 -2.1,0.07 -2.09,0.02 -2.1,0.14 -2.1,0.07 -2.1,0.06 -2.09,0.18 -2.1,0.03 -2.1,0.06 -2.1,0.02 -2.09,0.05 -2.1,-0.05 -2.1,-0.02 -2.09,-0.06 -2.1,0.02 -2.1,-0.06 -2.1,-0.12 -2.09,-0.08 -2.1,-0.15 -2.1,-0.08 -2.09,-0.05 -2.1,-0.07 -2.1,-0.12 -2.1,-0.15 -2.09,-0.14 -2.1,-0.15 -2.1,-0.12 -2.09,-0.12 -2.1,-0.15 -2.1,-0.17 -2.1,-0.19 -2.09,-0.12 -2.1,-0.24 -2.1,-0.18 -2.09,-0.23 -2.1,-0.25 -2.1,-0.13 -2.1,-0.21 -2.09,-0.13 -2.1,-0.15 -2.1,-0.13 -2.09,-0.14 -2.1,-0.12 -2.1,-0.11 -2.1,-0.15 -2.09,-0.11 -2.1,-0.1 -2.1,-0.03 -2.09,-0.02 -2.1,-0.01 -2.1,-0.01 h -2.1 l -2.09,0.07 -2.1,0.05 -2.1,0.06 -2.09,0.06 -2.1,0.11 -2.1,0.09 -2.1,0.11 -2.09,0.12 -2.1,0.05 -2.1,0.1 -2.09,0.07 -2.1,0.11 -2.1,0.06 -2.1,0.06 -2.09,0.04 -2.1,0.02 -2.1,-0.02 -2.1,-0.04 -2.09,-0.04 -2.1,-0.12 -2.1,-0.13 -2.09,-0.14 -2.1,-0.16 -2.1,-0.21 -2.1,-0.24 -2.09,-0.24 -2.1,-0.31 -2.1,-0.3 -2.09,-0.32 -2.1,-0.37 -2.1,-0.43 -2.1,-0.4 -2.09,-0.5 -2.1,-0.45 -2.1,-0.46 -2.09,-0.47 -2.1,-0.44 -2.1,-0.44 -2.1,-0.47 -2.09,-0.46 -2.1,-0.47 -2.1,-0.47 -2.09,-0.46 -2.1,-0.45 -2.1,-0.43 -2.1,-0.42 -2.09,-0.41 -2.1,-0.38 -2.1,-0.36 -2.09,-0.35 -2.1,-0.36 -2.1,-0.27 -2.1,-0.29 -2.09,-0.29 -2.1,-0.24 -2.1,-0.25 -2.09,-0.22 -2.1,-0.17 -2.1,-0.15 -2.1,-0.18 -2.09,-0.15 -2.1,-0.12 -2.1,-0.12 -2.09,-0.1 -2.1,-0.11 -2.1,-0.09 -2.1,-0.07 -2.09,-0.08 -2.1,-0.05 -2.1,-0.09 -2.09,-0.06 -2.1,-0.05 -2.1,-0.06 -2.1,-0.05 -2.09,-0.05 -2.1,-0.02 -2.1,-0.03 -2.1,-0.04 -2.09,-0.04 -2.1,-0.02 -2.1,-0.03 -2.09,-0.01 -2.1,-0.03 -2.1,-0.03 -2.1,-0.01 -2.09,-0.01 -2.1,-0.02 -2.1,-0.01 -2.09,-0.01 -2.1,-0.02 -2.1,-0.01 h -2.1 -2.09 l -2.1,-0.01 -2.1,0.01 -2.09,-0.02 h -2.1 l -2.1,0.01 h -2.1 l -2.09,0.02 -2.1,0.01 -2.1,0.01 -2.09,0.02 -2.1,0.02 -2.1,0.01 -2.1,0.02 -2.09,0.02 -2.1,0.02 -2.1,0.01 -2.09,0.02 -2.1,0.03 -2.1,0.01 h -2.1 l -2.09,0.01 -2.1,0.02 -2.1,-0.01 h -2.09 -2.1 -2.1 l -2.1,-0.02 -2.09,-0.02 -2.1,-0.02 -2.1,-0.01 -2.09,-0.04 -2.1,-0.03 -2.1,-0.04 -2.1,-0.06 -2.09,-0.06 -2.1,-0.05 -2.1,-0.04 -2.09,-0.05 -2.1,-0.06 -2.1,-0.08 -2.1,-0.05 -2.09,-0.06 -2.1,-0.08 -2.1,-0.08 -2.1,-0.08 -2.09,-0.1 -2.1,-0.09 -2.1,-0.12 -2.09,-0.1 -2.1,-0.1 -2.1,-0.12 -2.1,-0.11 -2.09,-0.12 z" /><path
           id="path180"
           style="fill:none;stroke:#a3a500;stroke-width:1.07000005;stroke-linecap:butt;stroke-linejoin:round;stroke-miterlimit:10;stroke-dasharray:none;stroke-opacity:1"
           d="m 59.57,298.19 2.09,0.06 2.1,0.05 2.1,0.07 2.1,0.05 2.09,0.05 2.1,0.04 2.1,0.05 2.09,0.06 2.1,0.03 2.1,0.06 2.1,0.04 2.09,0.03 2.1,0.04 2.1,0.03 2.1,0.03 2.09,0.03 2.1,0.02 2.1,0.02 2.09,0.01 2.1,0.01 2.1,0.02 h 2.1 2.09 l 2.1,-0.01 2.1,-0.01 2.09,-0.02 2.1,-0.02 2.1,-0.01 2.1,-0.01 2.09,-0.02 h 2.1 l 2.1,-0.02 2.09,-0.03 2.1,-0.02 2.1,-0.03 2.1,-0.02 2.09,-0.03 2.1,-0.03 2.1,-0.02 2.09,-0.02 2.1,-0.01 2.1,-0.02 2.1,-0.01 2.09,-0.01 2.1,-0.03 2.1,-0.01 2.09,-0.01 2.1,-0.01 2.1,-0.02 2.1,-0.01 h 2.09 l 2.1,-0.01 h 2.1 l 2.09,-0.01 h 2.1 2.1 l 2.1,0.01 h 2.09 l 2.1,0.01 2.1,0.01 2.09,0.03 h 2.1 l 2.1,0.03 2.1,0.03 2.09,0.02 2.1,0.03 2.1,0.04 2.09,0.04 2.1,0.03 2.1,0.05 2.1,0.05 2.09,0.07 2.1,0.08 2.1,0.07 2.1,0.09 2.09,0.1 2.1,0.09 2.1,0.12 2.09,0.11 2.1,0.14 2.1,0.15 2.1,0.15 2.09,0.18 2.1,0.19 2.1,0.21 2.09,0.22 2.1,0.25 2.1,0.25 2.1,0.27 2.09,0.29 2.1,0.33 2.1,0.32 2.09,0.34 2.1,0.37 2.1,0.38 2.1,0.4 2.09,0.41 2.1,0.44 2.1,0.47 2.09,0.48 2.1,0.5 2.1,0.51 2.1,0.52 2.09,0.53 2.1,0.59 2.1,0.58 2.09,0.55 2.1,0.55 2.1,0.56 2.1,0.54 2.09,0.59 2.1,0.53 2.1,0.55 2.09,0.5 2.1,0.49 2.1,0.48 2.1,0.44 2.09,0.42 2.1,0.4 2.1,0.38 2.09,0.35 2.1,0.32 2.1,0.25 2.1,0.27 2.09,0.18 2.1,0.2 2.1,0.14 2.09,0.13 2.1,0.13 2.1,0.09 2.1,0.05 2.09,0.01 h 2.1 l 2.1,-0.02 2.1,-0.04 2.09,-0.06 2.1,-0.06 2.1,-0.02 2.09,-0.08 2.1,-0.06 2.1,-0.04 2.1,-0.05 2.09,-0.02 2.1,-0.03 2.1,-0.01 2.09,-0.03 h 2.1 l 2.1,0.02 2.1,0.05 2.09,0.07 2.1,0.08 2.1,0.08 2.09,0.15 2.1,0.09 2.1,0.16 2.1,0.13 2.09,0.17 2.1,0.22 2.1,0.2 2.09,0.28 2.1,0.27 2.1,0.24 2.1,0.27 2.09,0.27 2.1,0.34 2.1,0.26 2.09,0.26 2.1,0.26 2.1,0.31 2.1,0.28 2.09,0.34 2.1,0.23 2.1,0.29 2.09,0.29 2.1,0.34 2.1,0.28 2.1,0.27 2.09,0.25 2.1,0.22 2.1,0.23 2.09,0.17 2.1,0.18 2.1,0.16 2.1,0.17 2.09,0.17 2.1,0.12 2.1,0.08 2.09,0.13 2.1,0.16 2.1,0.13 2.1,0.04 2.09,0.02 2.1,0.07 2.1,0.06 h 2.1 l 2.09,0.06 h 2.1 l 2.1,0.06 2.09,0.11" /><path
           id="path182"
           style="fill:none;stroke:#333333;stroke-width:1.07000005;stroke-linecap:round;stroke-linejoin:round;stroke-miterlimit:10;stroke-dasharray:none;stroke-opacity:1"
           d="M 38.7,291.81 H 497.77 V 354.8 H 38.7 Z" /></g></g><g
       id="g184" /><g
       id="g186"><g
         clip-path="url(#clipPath192)"
         id="g188"><path
           id="path194"
           style="fill:#ffffff;fill-opacity:1;fill-rule:nonzero;stroke:none"
           d="m 38.7,205.47 h 459.07 v 62.99 H 38.7 Z" /><path
           id="path196"
           style="fill:none;stroke:#ebebeb;stroke-width:0.52999997;stroke-linecap:butt;stroke-linejoin:round;stroke-miterlimit:10;stroke-dasharray:none;stroke-opacity:1"
           d="M 38.7,210.79 H 497.77" /><path
           id="path198"
           style="fill:none;stroke:#ebebeb;stroke-width:0.52999997;stroke-linecap:butt;stroke-linejoin:round;stroke-miterlimit:10;stroke-dasharray:none;stroke-opacity:1"
           d="M 38.7,226.07 H 497.77" /><path
           id="path200"
           style="fill:none;stroke:#ebebeb;stroke-width:0.52999997;stroke-linecap:butt;stroke-linejoin:round;stroke-miterlimit:10;stroke-dasharray:none;stroke-opacity:1"
           d="M 38.7,241.35 H 497.77" /><path
           id="path202"
           style="fill:none;stroke:#ebebeb;stroke-width:0.52999997;stroke-linecap:butt;stroke-linejoin:round;stroke-miterlimit:10;stroke-dasharray:none;stroke-opacity:1"
           d="M 38.7,256.63 H 497.77" /><path
           id="path204"
           style="fill:none;stroke:#ebebeb;stroke-width:0.52999997;stroke-linecap:butt;stroke-linejoin:round;stroke-miterlimit:10;stroke-dasharray:none;stroke-opacity:1"
           d="m 77.33,205.47 v 62.99" /><path
           id="path206"
           style="fill:none;stroke:#ebebeb;stroke-width:0.52999997;stroke-linecap:butt;stroke-linejoin:round;stroke-miterlimit:10;stroke-dasharray:none;stroke-opacity:1"
           d="m 166.12,205.47 v 62.99" /><path
           id="path208"
           style="fill:none;stroke:#ebebeb;stroke-width:0.52999997;stroke-linecap:butt;stroke-linejoin:round;stroke-miterlimit:10;stroke-dasharray:none;stroke-opacity:1"
           d="m 254.92,205.47 v 62.99" /><path
           id="path210"
           style="fill:none;stroke:#ebebeb;stroke-width:0.52999997;stroke-linecap:butt;stroke-linejoin:round;stroke-miterlimit:10;stroke-dasharray:none;stroke-opacity:1"
           d="m 343.71,205.47 v 62.99" /><path
           id="path212"
           style="fill:none;stroke:#ebebeb;stroke-width:0.52999997;stroke-linecap:butt;stroke-linejoin:round;stroke-miterlimit:10;stroke-dasharray:none;stroke-opacity:1"
           d="m 432.51,205.47 v 62.99" /><path
           id="path214"
           style="fill:none;stroke:#ebebeb;stroke-width:1.07000005;stroke-linecap:butt;stroke-linejoin:round;stroke-miterlimit:10;stroke-dasharray:none;stroke-opacity:1"
           d="M 38.7,218.43 H 497.77" /><path
           id="path216"
           style="fill:none;stroke:#ebebeb;stroke-width:1.07000005;stroke-linecap:butt;stroke-linejoin:round;stroke-miterlimit:10;stroke-dasharray:none;stroke-opacity:1"
           d="M 38.7,233.71 H 497.77" /><path
           id="path218"
           style="fill:none;stroke:#ebebeb;stroke-width:1.07000005;stroke-linecap:butt;stroke-linejoin:round;stroke-miterlimit:10;stroke-dasharray:none;stroke-opacity:1"
           d="M 38.7,248.99 H 497.77" /><path
           id="path220"
           style="fill:none;stroke:#ebebeb;stroke-width:1.07000005;stroke-linecap:butt;stroke-linejoin:round;stroke-miterlimit:10;stroke-dasharray:none;stroke-opacity:1"
           d="M 38.7,264.27 H 497.77" /><path
           id="path222"
           style="fill:none;stroke:#ebebeb;stroke-width:1.07000005;stroke-linecap:butt;stroke-linejoin:round;stroke-miterlimit:10;stroke-dasharray:none;stroke-opacity:1"
           d="m 121.72,205.47 v 62.99" /><path
           id="path224"
           style="fill:none;stroke:#ebebeb;stroke-width:1.07000005;stroke-linecap:butt;stroke-linejoin:round;stroke-miterlimit:10;stroke-dasharray:none;stroke-opacity:1"
           d="m 210.52,205.47 v 62.99" /><path
           id="path226"
           style="fill:none;stroke:#ebebeb;stroke-width:1.07000005;stroke-linecap:butt;stroke-linejoin:round;stroke-miterlimit:10;stroke-dasharray:none;stroke-opacity:1"
           d="m 299.31,205.47 v 62.99" /><path
           id="path228"
           style="fill:none;stroke:#ebebeb;stroke-width:1.07000005;stroke-linecap:butt;stroke-linejoin:round;stroke-miterlimit:10;stroke-dasharray:none;stroke-opacity:1"
           d="m 388.11,205.47 v 62.99" /><path
           id="path230"
           style="fill:none;stroke:#ebebeb;stroke-width:1.07000005;stroke-linecap:butt;stroke-linejoin:round;stroke-miterlimit:10;stroke-dasharray:none;stroke-opacity:1"
           d="m 476.9,205.47 v 62.99" /><path
           id="path232"
           style="fill:#00bf7d;fill-opacity:0.2;fill-rule:nonzero;stroke:none"
           d="m 59.57,215.61 2.09,-0.1 2.1,-0.1 2.1,-0.06 2.1,0.01 2.09,-0.09 2.1,-0.01 2.1,-0.05 2.09,-0.02 2.1,-0.03 2.1,0.01 2.1,-0.05 2.09,0.01 h 2.1 l 2.1,0.01 2.1,-0.02 2.09,0.07 2.1,0.05 2.1,0.02 2.09,0.02 2.1,0.01 2.1,0.05 2.1,0.03 2.09,0.06 2.1,0.03 2.1,0.08 2.09,0.05 2.1,0.04 2.1,0.07 2.1,0.1 2.09,0.1 2.1,0.07 2.1,0.09 2.09,0.08 2.1,0.08 2.1,0.13 2.1,0.1 2.09,0.08 2.1,0.1 2.1,0.13 2.09,0.1 2.1,0.15 2.1,0.14 2.1,0.14 2.09,0.12 2.1,0.15 2.1,0.17 2.09,0.19 2.1,0.17 2.1,0.18 2.1,0.19 2.09,0.17 2.1,0.22 2.1,0.18 2.09,0.19 2.1,0.21 2.1,0.24 2.1,0.22 2.09,0.18 2.1,0.29 2.1,0.23 2.09,0.26 2.1,0.23 2.1,0.2 2.1,0.23 2.09,0.21 2.1,0.19 2.1,0.21 2.09,0.28 2.1,0.24 2.1,0.27 2.1,0.21 2.09,0.25 2.1,0.26 2.1,0.23 2.1,0.21 2.09,0.21 2.1,0.21 2.1,0.18 2.09,0.13 2.1,0.19 2.1,0.17 2.1,0.07 2.09,0.09 2.1,0.09 2.1,0.04 2.09,0.03 2.1,-0.03 2.1,0.02 2.1,0.01 2.09,0.03 2.1,-0.06 h 2.1 l 2.09,-0.14 2.1,-0.1 2.1,-0.16 2.1,-0.15 2.09,-0.11 2.1,-0.19 2.1,-0.16 2.09,-0.1 2.1,-0.17 2.1,-0.12 2.1,-0.13 2.09,-0.13 2.1,-0.1 2.1,-0.09 2.09,-0.07 2.1,-0.09 2.1,-0.09 2.1,-0.05 2.09,-0.03 2.1,-0.06 2.1,-0.06 2.09,-0.02 2.1,-0.02 2.1,0.01 2.1,0.09 2.09,0.03 2.1,0.08 2.1,0.16 2.09,0.11 2.1,0.13 2.1,0.1 2.1,0.14 2.09,0.16 2.1,0.21 2.1,0.19 2.09,0.14 2.1,0.2 2.1,0.14 2.1,0.19 2.09,0.29 2.1,0.22 2.1,0.32 2.1,0.24 2.09,0.27 2.1,0.3 2.1,0.26 2.09,0.31 2.1,0.24 2.1,0.26 2.1,0.33 2.09,0.27 2.1,0.34 2.1,0.22 2.09,0.29 2.1,0.32 2.1,0.36 2.1,0.44 2.09,0.44 2.1,0.46 2.1,0.42 2.09,0.45 2.1,0.49 2.1,0.47 2.1,0.56 2.09,0.52 2.1,0.57 2.1,0.58 2.09,0.6 2.1,0.63 2.1,0.78 2.1,0.64 2.09,0.73 2.1,0.88 2.1,0.53 2.09,0.59 2.1,0.68 2.1,0.8 2.1,0.73 2.09,0.91 2.1,0.78 2.1,0.73 2.09,0.77 2.1,0.54 2.1,0.89 2.1,0.59 2.09,0.68 2.1,0.98 2.1,0.82 2.09,0.82 2.1,0.93 2.1,0.78 2.1,0.74 2.09,0.57 2.1,0.7 2.1,0.59 2.09,0.48 2.1,0.87 2.1,0.81 2.1,0.84 2.09,0.79 2.1,0.75 2.1,0.72 2.1,0.83 2.09,1.03 2.1,0.84 2.1,0.75 2.09,1.05 v -35.91 l -2.09,-0.15 -2.1,-0.15 -2.1,-0.17 -2.09,-0.14 -2.1,-0.2 -2.1,-0.16 -2.1,-0.18 -2.09,-0.2 -2.1,-0.21 -2.1,-0.27 -2.1,-0.26 -2.09,-0.26 -2.1,-0.24 -2.1,-0.32 -2.09,-0.31 -2.1,-0.33 -2.1,-0.32 -2.1,-0.34 -2.09,-0.32 -2.1,-0.31 -2.1,-0.26 -2.09,-0.27 -2.1,-0.29 -2.1,-0.27 -2.1,-0.29 -2.09,-0.28 -2.1,-0.27 -2.1,-0.22 -2.09,-0.19 -2.1,-0.28 -2.1,-0.23 -2.1,-0.27 -2.09,-0.18 -2.1,-0.23 -2.1,-0.18 -2.09,-0.18 -2.1,-0.16 -2.1,-0.2 -2.1,-0.18 -2.09,-0.19 -2.1,-0.15 -2.1,-0.16 -2.09,-0.17 -2.1,-0.13 -2.1,-0.13 -2.1,-0.17 -2.09,-0.1 -2.1,-0.13 -2.1,-0.1 -2.09,-0.17 -2.1,-0.13 -2.1,-0.14 -2.1,-0.15 -2.09,-0.16 -2.1,-0.16 -2.1,-0.13 -2.09,-0.13 -2.1,-0.16 -2.1,-0.18 -2.1,-0.2 -2.09,-0.19 -2.1,-0.16 -2.1,-0.18 -2.09,-0.18 -2.1,-0.17 -2.1,-0.17 -2.1,-0.17 -2.09,-0.17 -2.1,-0.18 -2.1,-0.16 -2.1,-0.18 -2.09,-0.14 -2.1,-0.15 -2.1,-0.14 -2.09,-0.14 -2.1,-0.14 -2.1,-0.11 -2.1,-0.08 -2.09,-0.08 -2.1,-0.08 -2.1,-0.06 -2.09,-0.08 -2.1,-0.05 -2.1,-0.03 -2.1,-0.03 -2.09,-0.02 h -2.1 l -2.1,0.02 h -2.09 l -2.1,0.03 -2.1,0.07 -2.1,0.05 -2.09,0.08 -2.1,0.08 -2.1,0.06 -2.09,0.07 -2.1,0.12 -2.1,0.05 -2.1,0.1 -2.09,0.12 -2.1,0.09 -2.1,0.11 -2.09,0.1 -2.1,0.08 -2.1,0.05 -2.1,0.05 -2.09,0.04 -2.1,0.08 -2.1,0.04 -2.09,0.04 -2.1,0.03 -2.1,-0.01 -2.1,-0.03 -2.09,0.01 -2.1,-0.04 -2.1,-0.05 -2.09,-0.07 -2.1,-0.08 -2.1,-0.12 -2.1,-0.1 -2.09,-0.12 -2.1,-0.14 -2.1,-0.14 -2.09,-0.13 -2.1,-0.11 -2.1,-0.14 -2.1,-0.12 -2.09,-0.16 -2.1,-0.15 -2.1,-0.14 -2.1,-0.15 -2.09,-0.12 -2.1,-0.16 -2.1,-0.17 -2.09,-0.14 -2.1,-0.15 -2.1,-0.14 -2.1,-0.13 -2.09,-0.13 -2.1,-0.13 -2.1,-0.11 -2.09,-0.09 -2.1,-0.11 -2.1,-0.11 -2.1,-0.1 -2.09,-0.09 -2.1,-0.1 -2.1,-0.07 -2.09,-0.1 -2.1,-0.09 -2.1,-0.07 -2.1,-0.06 -2.09,-0.07 -2.1,-0.08 -2.1,-0.06 -2.09,-0.06 -2.1,-0.06 -2.1,-0.06 -2.1,-0.08 -2.09,-0.08 -2.1,-0.09 -2.1,-0.06 -2.09,-0.06 -2.1,-0.07 -2.1,-0.06 -2.1,-0.06 -2.09,-0.09 -2.1,-0.07 -2.1,-0.08 -2.09,-0.08 -2.1,-0.08 -2.1,-0.09 -2.1,-0.09 -2.09,-0.08 -2.1,-0.09 -2.1,-0.07 -2.09,-0.08 -2.1,-0.07 -2.1,-0.07 -2.1,-0.06 -2.09,-0.06 -2.1,-0.06 -2.1,-0.05 -2.09,-0.05 -2.1,-0.05 -2.1,-0.04 -2.1,-0.05 -2.09,-0.04 -2.1,-0.05 -2.1,-0.03 -2.1,-0.05 -2.09,-0.02 -2.1,-0.06 -2.1,-0.03 -2.09,-0.05 -2.1,-0.04 -2.1,-0.05 -2.1,-0.04 -2.09,-0.04 z" /><path
           id="path234"
           style="fill:none;stroke:#00bf7d;stroke-width:1.07000005;stroke-linecap:butt;stroke-linejoin:round;stroke-miterlimit:10;stroke-dasharray:none;stroke-opacity:1"
           d="m 59.57,210.71 2.09,0.03 2.1,0.01 2.1,0.03 2.1,0.02 2.09,0.02 2.1,0.02 2.1,0.03 2.09,0.03 2.1,0.02 2.1,0.02 2.1,0.02 2.09,0.05 2.1,0.04 2.1,0.04 2.1,0.05 2.09,0.04 2.1,0.05 2.1,0.06 2.09,0.06 2.1,0.07 2.1,0.06 2.1,0.07 2.09,0.08 2.1,0.07 2.1,0.09 2.09,0.08 2.1,0.09 2.1,0.07 2.1,0.09 2.09,0.08 2.1,0.09 2.1,0.11 2.09,0.09 2.1,0.1 2.1,0.1 2.1,0.11 2.09,0.1 2.1,0.1 2.1,0.09 2.09,0.11 2.1,0.1 2.1,0.1 2.1,0.1 2.09,0.1 2.1,0.12 2.1,0.11 2.09,0.12 2.1,0.12 2.1,0.11 2.1,0.13 2.09,0.14 2.1,0.14 2.1,0.14 2.09,0.14 2.1,0.16 2.1,0.16 2.1,0.16 2.09,0.17 2.1,0.19 2.1,0.17 2.09,0.18 2.1,0.18 2.1,0.19 2.1,0.18 2.09,0.21 2.1,0.19 2.1,0.21 2.09,0.21 2.1,0.2 2.1,0.19 2.1,0.21 2.09,0.2 2.1,0.19 2.1,0.19 2.1,0.18 2.09,0.2 2.1,0.15 2.1,0.15 2.09,0.14 2.1,0.1 2.1,0.12 2.1,0.08 2.09,0.09 2.1,0.07 2.1,0.05 2.09,0.01 2.1,-0.01 2.1,-0.02 2.1,-0.04 2.09,-0.05 2.1,-0.05 2.1,-0.06 2.09,-0.11 2.1,-0.1 2.1,-0.1 2.1,-0.11 2.09,-0.13 2.1,-0.11 2.1,-0.12 2.09,-0.1 2.1,-0.15 2.1,-0.13 2.1,-0.11 2.09,-0.11 2.1,-0.12 2.1,-0.11 2.09,-0.07 2.1,-0.08 2.1,-0.07 2.1,-0.05 2.09,-0.06 2.1,-0.03 2.1,-0.03 2.09,-0.02 2.1,0.05 2.1,0.01 2.1,0.04 2.09,0.05 2.1,0.05 2.1,0.08 2.09,0.1 2.1,0.1 2.1,0.12 2.1,0.13 2.09,0.15 2.1,0.16 2.1,0.15 2.09,0.17 2.1,0.17 2.1,0.19 2.1,0.2 2.09,0.18 2.1,0.21 2.1,0.19 2.1,0.22 2.09,0.2 2.1,0.2 2.1,0.21 2.09,0.21 2.1,0.22 2.1,0.22 2.1,0.21 2.09,0.2 2.1,0.23 2.1,0.21 2.09,0.21 2.1,0.24 2.1,0.22 2.1,0.22 2.09,0.24 2.1,0.28 2.1,0.21 2.09,0.25 2.1,0.26 2.1,0.27 2.1,0.3 2.09,0.28 2.1,0.32 2.1,0.3 2.09,0.29 2.1,0.32 2.1,0.32 2.1,0.34 2.09,0.34 2.1,0.42 2.1,0.37 2.09,0.4 2.1,0.38 2.1,0.46 2.1,0.38 2.09,0.44 2.1,0.43 2.1,0.42 2.09,0.4 2.1,0.42 2.1,0.44 2.1,0.45 2.09,0.46 2.1,0.41 2.1,0.41 2.09,0.44 2.1,0.43 2.1,0.4 2.1,0.41 2.09,0.39 2.1,0.37 2.1,0.41 2.09,0.45 2.1,0.37 2.1,0.4 2.1,0.35 2.09,0.31 2.1,0.42 2.1,0.31 2.1,0.38 2.09,0.34 2.1,0.33 2.1,0.34 2.09,0.33" /><path
           id="path236"
           style="fill:none;stroke:#333333;stroke-width:1.07000005;stroke-linecap:round;stroke-linejoin:round;stroke-miterlimit:10;stroke-dasharray:none;stroke-opacity:1"
           d="m 38.7,205.47 h 459.07 v 62.99 H 38.7 Z" /></g></g><g
       id="g238" /><g
       id="g240"><g
         clip-path="url(#clipPath246)"
         id="g242"><path
           id="path248"
           style="fill:#ffffff;fill-opacity:1;fill-rule:nonzero;stroke:none"
           d="m 38.7,119.13 h 459.07 v 62.99 H 38.7 Z" /><path
           id="path250"
           style="fill:none;stroke:#ebebeb;stroke-width:0.52999997;stroke-linecap:butt;stroke-linejoin:round;stroke-miterlimit:10;stroke-dasharray:none;stroke-opacity:1"
           d="M 38.7,131.48 H 497.77" /><path
           id="path252"
           style="fill:none;stroke:#ebebeb;stroke-width:0.52999997;stroke-linecap:butt;stroke-linejoin:round;stroke-miterlimit:10;stroke-dasharray:none;stroke-opacity:1"
           d="M 38.7,152.36 H 497.77" /><path
           id="path254"
           style="fill:none;stroke:#ebebeb;stroke-width:0.52999997;stroke-linecap:butt;stroke-linejoin:round;stroke-miterlimit:10;stroke-dasharray:none;stroke-opacity:1"
           d="M 38.7,173.25 H 497.77" /><path
           id="path256"
           style="fill:none;stroke:#ebebeb;stroke-width:0.52999997;stroke-linecap:butt;stroke-linejoin:round;stroke-miterlimit:10;stroke-dasharray:none;stroke-opacity:1"
           d="m 77.33,119.13 v 62.99" /><path
           id="path258"
           style="fill:none;stroke:#ebebeb;stroke-width:0.52999997;stroke-linecap:butt;stroke-linejoin:round;stroke-miterlimit:10;stroke-dasharray:none;stroke-opacity:1"
           d="m 166.12,119.13 v 62.99" /><path
           id="path260"
           style="fill:none;stroke:#ebebeb;stroke-width:0.52999997;stroke-linecap:butt;stroke-linejoin:round;stroke-miterlimit:10;stroke-dasharray:none;stroke-opacity:1"
           d="m 254.92,119.13 v 62.99" /><path
           id="path262"
           style="fill:none;stroke:#ebebeb;stroke-width:0.52999997;stroke-linecap:butt;stroke-linejoin:round;stroke-miterlimit:10;stroke-dasharray:none;stroke-opacity:1"
           d="m 343.71,119.13 v 62.99" /><path
           id="path264"
           style="fill:none;stroke:#ebebeb;stroke-width:0.52999997;stroke-linecap:butt;stroke-linejoin:round;stroke-miterlimit:10;stroke-dasharray:none;stroke-opacity:1"
           d="m 432.51,119.13 v 62.99" /><path
           id="path266"
           style="fill:none;stroke:#ebebeb;stroke-width:1.07000005;stroke-linecap:butt;stroke-linejoin:round;stroke-miterlimit:10;stroke-dasharray:none;stroke-opacity:1"
           d="M 38.7,121.04 H 497.77" /><path
           id="path268"
           style="fill:none;stroke:#ebebeb;stroke-width:1.07000005;stroke-linecap:butt;stroke-linejoin:round;stroke-miterlimit:10;stroke-dasharray:none;stroke-opacity:1"
           d="M 38.7,141.92 H 497.77" /><path
           id="path270"
           style="fill:none;stroke:#ebebeb;stroke-width:1.07000005;stroke-linecap:butt;stroke-linejoin:round;stroke-miterlimit:10;stroke-dasharray:none;stroke-opacity:1"
           d="M 38.7,162.81 H 497.77" /><path
           id="path272"
           style="fill:none;stroke:#ebebeb;stroke-width:1.07000005;stroke-linecap:butt;stroke-linejoin:round;stroke-miterlimit:10;stroke-dasharray:none;stroke-opacity:1"
           d="m 121.72,119.13 v 62.99" /><path
           id="path274"
           style="fill:none;stroke:#ebebeb;stroke-width:1.07000005;stroke-linecap:butt;stroke-linejoin:round;stroke-miterlimit:10;stroke-dasharray:none;stroke-opacity:1"
           d="m 210.52,119.13 v 62.99" /><path
           id="path276"
           style="fill:none;stroke:#ebebeb;stroke-width:1.07000005;stroke-linecap:butt;stroke-linejoin:round;stroke-miterlimit:10;stroke-dasharray:none;stroke-opacity:1"
           d="m 299.31,119.13 v 62.99" /><path
           id="path278"
           style="fill:none;stroke:#ebebeb;stroke-width:1.07000005;stroke-linecap:butt;stroke-linejoin:round;stroke-miterlimit:10;stroke-dasharray:none;stroke-opacity:1"
           d="m 388.11,119.13 v 62.99" /><path
           id="path280"
           style="fill:none;stroke:#ebebeb;stroke-width:1.07000005;stroke-linecap:butt;stroke-linejoin:round;stroke-miterlimit:10;stroke-dasharray:none;stroke-opacity:1"
           d="m 476.9,119.13 v 62.99" /><path
           id="path282"
           style="fill:#00b0f6;fill-opacity:0.2;fill-rule:nonzero;stroke:none"
           d="m 59.57,123.54 2.09,0.03 2.1,0.04 2.1,0.05 2.1,0.04 2.09,0.04 2.1,0.04 2.1,0.05 2.09,0.03 2.1,0.04 2.1,0.04 2.1,0.06 2.09,0.05 2.1,0.04 2.1,0.05 2.1,0.05 2.09,0.05 2.1,0.04 2.1,0.04 2.09,0.04 2.1,0.05 2.1,0.05 2.1,0.03 2.09,0.03 2.1,0.05 2.1,0.04 2.09,0.04 2.1,0.03 2.1,0.03 2.1,0.04 2.09,0.02 2.1,0.03 2.1,0.03 2.09,0.03 2.1,0.03 2.1,0.02 2.1,0.03 2.09,0.03 2.1,0.03 2.1,0.02 2.09,0.03 2.1,0.03 2.1,0.02 2.1,0.03 2.09,0.03 2.1,0.03 2.1,0.02 2.09,0.02 2.1,0.02 2.1,0.01 2.1,0.01 2.09,0.02 2.1,0.03 2.1,0.02 2.09,0.03 2.1,0.01 2.1,0.01 2.1,0.03 2.09,0.02 2.1,0.01 2.1,0.03 2.09,0.02 2.1,0.01 2.1,0.03 2.1,0.02 2.09,0.04 2.1,0.03 2.1,0.04 2.09,0.05 2.1,0.04 2.1,0.06 2.1,0.06 2.09,0.06 2.1,0.07 2.1,0.07 2.1,0.09 2.09,0.1 2.1,0.12 2.1,0.11 2.09,0.14 2.1,0.14 2.1,0.17 2.1,0.17 2.09,0.19 2.1,0.21 2.1,0.22 2.09,0.22 2.1,0.25 2.1,0.29 2.1,0.29 2.09,0.33 2.1,0.34 2.1,0.38 2.09,0.44 2.1,0.42 2.1,0.46 2.1,0.51 2.09,0.53 2.1,0.58 2.1,0.62 2.09,0.66 2.1,0.68 2.1,0.72 2.1,0.76 2.09,0.84 2.1,0.81 2.1,0.88 2.09,0.95 2.1,0.95 2.1,1.05 2.1,1.05 2.09,1.08 2.1,1.1 2.1,1.15 2.09,1.18 2.1,1.12 2.1,1.24 2.1,1.19 2.09,1.14 2.1,1.19 2.1,1.24 2.09,1.18 2.1,1.13 2.1,1.1 2.1,1.06 2.09,1.09 2.1,1.08 2.1,0.98 2.09,0.99 2.1,0.9 2.1,0.78 2.1,0.79 2.09,0.63 2.1,0.83 2.1,0.63 2.1,0.71 2.09,0.62 2.1,0.5 2.1,0.54 2.09,0.45 2.1,0.35 2.1,0.36 2.1,0.39 2.09,0.38 2.1,0.33 2.1,0.44 2.09,0.12 2.1,0.23 2.1,0.32 2.1,0.2 2.09,0.29 2.1,0.28 2.1,0.15 2.09,0.13 2.1,0.26 2.1,0.26 2.1,0.23 2.09,0.14 2.1,0.1 2.1,0.1 2.09,0.25 2.1,0.26 2.1,0.16 2.1,0.07 2.09,0.14 2.1,0.02 2.1,0.09 2.09,0.28 2.1,0.32 2.1,0.09 2.1,0.15 2.09,0.06 2.1,0.26 2.1,0.45 2.09,0.08 2.1,0.35 2.1,0.18 2.1,0.17 2.09,0.08 2.1,0.03 2.1,0.09 2.09,0.05 2.1,0.1 2.1,0.1 2.1,-0.1 2.09,-0.34 2.1,-0.06 2.1,-0.24 2.09,-0.08 2.1,-0.28 2.1,-0.18 2.1,-0.1 2.09,-0.06 2.1,-0.29 2.1,-0.36 2.1,-0.1 2.09,-0.06 2.1,0.02 2.1,-0.08 2.09,-0.07 v -37 l -2.09,0.57 -2.1,0.54 -2.1,0.54 -2.09,0.54 -2.1,0.53 -2.1,0.51 -2.1,0.54 -2.09,0.51 -2.1,0.55 -2.1,0.54 -2.1,0.5 -2.09,0.51 -2.1,0.42 -2.1,0.43 -2.09,0.41 -2.1,0.43 -2.1,0.38 -2.1,0.39 -2.09,0.32 -2.1,0.33 -2.1,0.22 -2.09,0.24 -2.1,0.16 -2.1,0.1 -2.1,0.18 -2.09,0.15 -2.1,0.08 -2.1,0.03 -2.09,-0.09 -2.1,-0.14 -2.1,-0.18 -2.1,-0.17 -2.09,-0.14 -2.1,-0.17 -2.1,-0.13 -2.09,-0.16 -2.1,-0.28 -2.1,-0.29 -2.1,-0.2 -2.09,-0.19 -2.1,-0.22 -2.1,-0.17 -2.09,-0.22 -2.1,-0.16 -2.1,-0.13 -2.1,-0.14 -2.09,-0.08 -2.1,-0.04 -2.1,-0.03 -2.09,-0.06 -2.1,-0.01 -2.1,0.03 -2.1,-0.04 -2.09,0.05 -2.1,0.05 -2.1,0.06 -2.09,0.1 -2.1,0.07 -2.1,0.07 -2.1,0.03 -2.09,0.06 -2.1,-0.01 h -2.1 l -2.09,-0.06 -2.1,-0.05 -2.1,-0.11 -2.1,-0.17 -2.09,-0.19 -2.1,-0.25 -2.1,-0.28 -2.1,-0.43 -2.09,-0.43 -2.1,-0.45 -2.1,-0.59 -2.09,-0.67 -2.1,-0.67 -2.1,-0.65 -2.1,-0.81 -2.09,-0.78 -2.1,-0.73 -2.1,-0.77 -2.09,-0.83 -2.1,-0.81 -2.1,-0.81 -2.1,-0.79 -2.09,-0.78 -2.1,-0.78 -2.1,-0.75 -2.09,-0.72 -2.1,-0.71 -2.1,-0.68 -2.1,-0.63 -2.09,-0.61 -2.1,-0.55 -2.1,-0.53 -2.09,-0.51 -2.1,-0.46 -2.1,-0.44 -2.1,-0.41 -2.09,-0.37 -2.1,-0.35 -2.1,-0.31 -2.09,-0.32 -2.1,-0.28 -2.1,-0.25 -2.1,-0.23 -2.09,-0.2 -2.1,-0.19 -2.1,-0.17 -2.09,-0.16 -2.1,-0.15 -2.1,-0.14 -2.1,-0.12 -2.09,-0.11 -2.1,-0.09 -2.1,-0.09 -2.09,-0.08 -2.1,-0.07 -2.1,-0.06 -2.1,-0.06 -2.09,-0.04 -2.1,-0.05 -2.1,-0.04 -2.09,-0.04 -2.1,-0.03 -2.1,-0.04 -2.1,-0.03 -2.09,-0.02 -2.1,-0.03 -2.1,-0.02 -2.1,-0.02 -2.09,-0.02 -2.1,-0.02 -2.1,-0.01 -2.09,-0.01 -2.1,-0.02 -2.1,-0.02 -2.1,-0.01 h -2.09 l -2.1,-0.02 -2.1,-0.01 -2.09,-0.01 -2.1,-0.01 -2.1,-0.02 -2.1,-0.01 -2.09,-0.01 -2.1,-0.02 -2.1,-0.01 -2.09,-0.01 -2.1,-0.02 -2.1,-0.01 -2.1,-0.02 -2.09,-0.01 -2.1,-0.02 -2.1,-0.02 -2.09,-0.01 -2.1,-0.02 -2.1,-0.01 -2.1,-0.02 -2.09,-0.01 -2.1,-0.02 -2.1,-0.02 -2.09,-0.02 -2.1,-0.02 -2.1,-0.01 -2.1,-0.03 -2.09,-0.01 -2.1,-0.02 -2.1,-0.02 -2.09,-0.03 -2.1,-0.02 -2.1,-0.03 -2.1,-0.03 -2.09,-0.02 -2.1,-0.03 -2.1,-0.03 -2.09,-0.03 -2.1,-0.03 -2.1,-0.03 -2.1,-0.04 -2.09,-0.03 -2.1,-0.04 -2.1,-0.03 -2.09,-0.04 -2.1,-0.03 -2.1,-0.04 -2.1,-0.03 -2.09,-0.04 -2.1,-0.04 -2.1,-0.03 -2.1,-0.04 -2.09,-0.03 -2.1,-0.03 -2.1,-0.04 -2.09,-0.03 -2.1,-0.04 -2.1,-0.03 -2.1,-0.03 -2.09,-0.04 z" /><path
           id="path284"
           style="fill:none;stroke:#00b0f6;stroke-width:1.07000005;stroke-linecap:butt;stroke-linejoin:round;stroke-miterlimit:10;stroke-dasharray:none;stroke-opacity:1"
           d="m 59.57,122.51 2.09,0.04 2.1,0.04 2.1,0.03 2.1,0.04 2.09,0.05 2.1,0.04 2.1,0.04 2.09,0.04 2.1,0.04 2.1,0.04 2.1,0.05 2.09,0.04 2.1,0.04 2.1,0.04 2.1,0.04 2.09,0.04 2.1,0.04 2.1,0.05 2.09,0.03 2.1,0.04 2.1,0.04 2.1,0.04 2.09,0.04 2.1,0.03 2.1,0.03 2.09,0.03 2.1,0.03 2.1,0.03 2.1,0.03 2.09,0.03 2.1,0.03 2.1,0.02 2.09,0.03 2.1,0.03 2.1,0.02 2.1,0.02 2.09,0.02 2.1,0.03 2.1,0.02 2.09,0.02 2.1,0.02 2.1,0.01 2.1,0.02 2.09,0.03 2.1,0.01 2.1,0.02 2.09,0.02 2.1,0.02 2.1,0.02 2.1,0.01 2.09,0.02 2.1,0.02 2.1,0.02 2.09,0.02 2.1,0.01 2.1,0.02 2.1,0.02 2.09,0.02 2.1,0.02 2.1,0.01 2.09,0.02 2.1,0.02 2.1,0.02 2.1,0.03 2.09,0.02 2.1,0.02 2.1,0.03 2.09,0.03 2.1,0.03 2.1,0.03 2.1,0.04 2.09,0.04 2.1,0.04 2.1,0.05 2.1,0.06 2.09,0.05 2.1,0.07 2.1,0.08 2.09,0.08 2.1,0.1 2.1,0.1 2.1,0.1 2.09,0.12 2.1,0.13 2.1,0.15 2.09,0.16 2.1,0.18 2.1,0.19 2.1,0.2 2.09,0.22 2.1,0.24 2.1,0.28 2.09,0.28 2.1,0.32 2.1,0.34 2.1,0.37 2.09,0.41 2.1,0.44 2.1,0.46 2.09,0.51 2.1,0.54 2.1,0.56 2.1,0.61 2.09,0.66 2.1,0.67 2.1,0.71 2.09,0.78 2.1,0.79 2.1,0.82 2.1,0.83 2.09,0.88 2.1,0.9 2.1,0.94 2.09,0.92 2.1,0.96 2.1,0.96 2.1,0.97 2.09,0.95 2.1,0.97 2.1,0.93 2.09,0.89 2.1,0.92 2.1,0.89 2.1,0.84 2.09,0.75 2.1,0.68 2.1,0.67 2.09,0.66 2.1,0.56 2.1,0.49 2.1,0.45 2.09,0.47 2.1,0.37 2.1,0.36 2.1,0.3 2.09,0.26 2.1,0.19 2.1,0.14 2.09,0.15 2.1,0.08 2.1,0.05 2.1,0.07 2.09,0.07 2.1,0.02 2.1,0.04 2.09,0.04 h 2.1 l 2.1,0.03 2.1,0.05 2.09,0.15 2.1,0.04 2.1,0.03 2.09,0.07 2.1,0.1 2.1,0.12 2.1,0.12 2.09,0.12 2.1,0.2 2.1,0.16 2.09,0.17 2.1,0.19 2.1,0.12 2.1,0.14 2.09,0.24 2.1,0.21 2.1,0.16 2.09,0.23 2.1,0.11 2.1,0.1 2.1,0.11 2.09,0.07 2.1,0.08 2.1,0.11 2.09,0.03 2.1,-0.04 2.1,-0.11 2.1,-0.13 2.09,-0.12 2.1,-0.12 2.1,-0.23 2.09,-0.19 2.1,-0.26 2.1,-0.3 2.1,-0.33 2.09,-0.37 2.1,-0.42 2.1,-0.4 2.09,-0.53 2.1,-0.49 2.1,-0.45 2.1,-0.51 2.09,-0.52 2.1,-0.54 2.1,-0.53 2.1,-0.56 2.09,-0.5 2.1,-0.57 2.1,-0.54 2.09,-0.46" /><path
           id="path286"
           style="fill:none;stroke:#333333;stroke-width:1.07000005;stroke-linecap:round;stroke-linejoin:round;stroke-miterlimit:10;stroke-dasharray:none;stroke-opacity:1"
           d="m 38.7,119.13 h 459.07 v 62.99 H 38.7 Z" /></g></g><g
       id="g288" /><g
       id="g290"><g
         clip-path="url(#clipPath296)"
         id="g292"><path
           id="path298"
           style="fill:#ffffff;fill-opacity:1;fill-rule:nonzero;stroke:none"
           d="M 38.7,32.79 H 497.77 V 95.78 H 38.7 Z" /><path
           id="path300"
           style="fill:none;stroke:#ebebeb;stroke-width:0.52999997;stroke-linecap:butt;stroke-linejoin:round;stroke-miterlimit:10;stroke-dasharray:none;stroke-opacity:1"
           d="M 38.7,45.75 H 497.77" /><path
           id="path302"
           style="fill:none;stroke:#ebebeb;stroke-width:0.52999997;stroke-linecap:butt;stroke-linejoin:round;stroke-miterlimit:10;stroke-dasharray:none;stroke-opacity:1"
           d="M 38.7,68.53 H 497.77" /><path
           id="path304"
           style="fill:none;stroke:#ebebeb;stroke-width:0.52999997;stroke-linecap:butt;stroke-linejoin:round;stroke-miterlimit:10;stroke-dasharray:none;stroke-opacity:1"
           d="M 38.7,91.31 H 497.77" /><path
           id="path306"
           style="fill:none;stroke:#ebebeb;stroke-width:0.52999997;stroke-linecap:butt;stroke-linejoin:round;stroke-miterlimit:10;stroke-dasharray:none;stroke-opacity:1"
           d="M 77.33,32.79 V 95.78" /><path
           id="path308"
           style="fill:none;stroke:#ebebeb;stroke-width:0.52999997;stroke-linecap:butt;stroke-linejoin:round;stroke-miterlimit:10;stroke-dasharray:none;stroke-opacity:1"
           d="M 166.12,32.79 V 95.78" /><path
           id="path310"
           style="fill:none;stroke:#ebebeb;stroke-width:0.52999997;stroke-linecap:butt;stroke-linejoin:round;stroke-miterlimit:10;stroke-dasharray:none;stroke-opacity:1"
           d="M 254.92,32.79 V 95.78" /><path
           id="path312"
           style="fill:none;stroke:#ebebeb;stroke-width:0.52999997;stroke-linecap:butt;stroke-linejoin:round;stroke-miterlimit:10;stroke-dasharray:none;stroke-opacity:1"
           d="M 343.71,32.79 V 95.78" /><path
           id="path314"
           style="fill:none;stroke:#ebebeb;stroke-width:0.52999997;stroke-linecap:butt;stroke-linejoin:round;stroke-miterlimit:10;stroke-dasharray:none;stroke-opacity:1"
           d="M 432.51,32.79 V 95.78" /><path
           id="path316"
           style="fill:none;stroke:#ebebeb;stroke-width:1.07000005;stroke-linecap:butt;stroke-linejoin:round;stroke-miterlimit:10;stroke-dasharray:none;stroke-opacity:1"
           d="M 38.7,34.36 H 497.77" /><path
           id="path318"
           style="fill:none;stroke:#ebebeb;stroke-width:1.07000005;stroke-linecap:butt;stroke-linejoin:round;stroke-miterlimit:10;stroke-dasharray:none;stroke-opacity:1"
           d="M 38.7,57.14 H 497.77" /><path
           id="path320"
           style="fill:none;stroke:#ebebeb;stroke-width:1.07000005;stroke-linecap:butt;stroke-linejoin:round;stroke-miterlimit:10;stroke-dasharray:none;stroke-opacity:1"
           d="M 38.7,79.92 H 497.77" /><path
           id="path322"
           style="fill:none;stroke:#ebebeb;stroke-width:1.07000005;stroke-linecap:butt;stroke-linejoin:round;stroke-miterlimit:10;stroke-dasharray:none;stroke-opacity:1"
           d="M 121.72,32.79 V 95.78" /><path
           id="path324"
           style="fill:none;stroke:#ebebeb;stroke-width:1.07000005;stroke-linecap:butt;stroke-linejoin:round;stroke-miterlimit:10;stroke-dasharray:none;stroke-opacity:1"
           d="M 210.52,32.79 V 95.78" /><path
           id="path326"
           style="fill:none;stroke:#ebebeb;stroke-width:1.07000005;stroke-linecap:butt;stroke-linejoin:round;stroke-miterlimit:10;stroke-dasharray:none;stroke-opacity:1"
           d="M 299.31,32.79 V 95.78" /><path
           id="path328"
           style="fill:none;stroke:#ebebeb;stroke-width:1.07000005;stroke-linecap:butt;stroke-linejoin:round;stroke-miterlimit:10;stroke-dasharray:none;stroke-opacity:1"
           d="M 388.11,32.79 V 95.78" /><path
           id="path330"
           style="fill:none;stroke:#ebebeb;stroke-width:1.07000005;stroke-linecap:butt;stroke-linejoin:round;stroke-miterlimit:10;stroke-dasharray:none;stroke-opacity:1"
           d="M 476.9,32.79 V 95.78" /><path
           id="path332"
           style="fill:#e76bf3;fill-opacity:0.2;fill-rule:nonzero;stroke:none"
           d="m 59.57,37.74 2.09,-0.02 2.1,-0.03 h 2.1 l 2.1,-0.01 2.09,-0.01 2.1,-0.02 2.1,-0.01 2.09,-0.01 h 2.1 2.1 2.1 l 2.09,-0.01 2.1,-0.01 h 2.1 2.1 2.09 l 2.1,0.01 2.1,0.02 2.09,0.01 h 2.1 l 2.1,0.01 h 2.1 l 2.09,0.01 2.1,0.01 2.1,0.01 2.09,0.02 2.1,-0.01 2.1,0.03 2.1,0.01 2.09,0.02 2.1,0.02 2.1,0.01 2.09,0.02 2.1,0.03 2.1,0.02 2.1,0.03 2.09,0.01 2.1,0.03 2.1,0.04 2.09,0.02 2.1,0.05 2.1,0.03 2.1,0.03 2.09,0.05 2.1,0.02 2.1,0.03 2.09,0.03 2.1,0.04 2.1,0.04 2.1,0.05 2.09,0.04 2.1,0.04 2.1,0.03 2.09,0.05 2.1,0.05 2.1,0.04 2.1,0.04 2.09,0.02 2.1,0.04 2.1,0.03 2.09,0.02 2.1,0.04 2.1,0.04 2.1,0.04 2.09,0.04 2.1,0.04 2.1,0.03 2.09,0.04 2.1,0.05 2.1,0.06 2.1,0.07 2.09,0.05 2.1,0.07 2.1,0.08 2.1,0.07 2.09,0.09 2.1,0.08 2.1,0.09 2.09,0.11 2.1,0.12 2.1,0.11 2.1,0.12 2.09,0.14 2.1,0.15 2.1,0.16 2.09,0.16 2.1,0.18 2.1,0.2 2.1,0.2 2.09,0.21 2.1,0.24 2.1,0.22 2.09,0.26 2.1,0.28 2.1,0.3 2.1,0.29 2.09,0.3 2.1,0.36 2.1,0.36 2.09,0.36 2.1,0.39 2.1,0.41 2.1,0.42 2.09,0.45 2.1,0.52 2.1,0.52 2.09,0.54 2.1,0.58 2.1,0.48 2.1,0.61 2.09,0.59 2.1,0.59 2.1,0.55 2.09,0.7 2.1,0.61 2.1,0.69 2.1,0.67 2.09,0.58 2.1,0.67 2.1,0.66 2.09,0.57 2.1,0.7 2.1,0.7 2.1,0.63 2.09,0.74 2.1,0.62 2.1,0.59 2.09,0.6 2.1,0.53 2.1,0.52 2.1,0.58 2.09,0.47 2.1,0.47 2.1,0.34 2.1,0.36 2.09,0.48 2.1,0.38 2.1,0.28 2.09,0.48 2.1,0.3 2.1,0.32 2.1,0.29 2.09,0.19 2.1,0.43 2.1,0.24 2.09,0.17 2.1,0.37 2.1,0.24 2.1,0.42 2.09,0.26 2.1,0.23 2.1,0.22 2.09,0.16 2.1,0.39 2.1,0.19 2.1,0.44 2.09,0.31 2.1,0.26 2.1,0.32 2.09,0.38 2.1,0.38 2.1,0.31 2.1,0.3 2.09,0.37 2.1,0.48 2.1,0.38 2.09,0.38 2.1,0.44 2.1,0.53 2.1,0.4 2.09,0.42 2.1,0.4 2.1,0.66 2.09,0.52 2.1,0.54 2.1,0.4 2.1,0.65 2.09,0.65 2.1,0.6 2.1,0.3 2.09,0.45 2.1,0.68 2.1,0.63 2.1,0.71 2.09,0.58 2.1,0.6 2.1,0.55 2.09,0.56 2.1,0.58 2.1,0.43 2.1,0.42 2.09,0.69 2.1,0.64 2.1,0.3 2.1,0.77 2.09,0.82 2.1,1.02 2.1,0.86 2.09,0.55 v -38.6 l -2.09,0.1 -2.1,0.02 -2.1,0.06 -2.09,0.01 -2.1,0.04 -2.1,-0.01 -2.1,0.02 -2.09,0.01 h -2.1 l -2.1,-0.07 -2.1,-0.09 -2.09,-0.11 -2.1,-0.14 -2.1,-0.11 -2.09,-0.15 -2.1,-0.18 -2.1,-0.19 -2.1,-0.25 -2.09,-0.2 -2.1,-0.18 -2.1,-0.2 -2.09,-0.22 -2.1,-0.19 -2.1,-0.32 -2.1,-0.23 -2.09,-0.27 -2.1,-0.27 -2.1,-0.23 -2.09,-0.25 -2.1,-0.24 -2.1,-0.28 -2.1,-0.21 -2.09,-0.2 -2.1,-0.2 -2.1,-0.22 -2.09,-0.21 -2.1,-0.17 -2.1,-0.14 -2.1,-0.14 -2.09,-0.12 -2.1,-0.15 -2.1,-0.11 -2.09,-0.07 h -2.1 l -2.1,0.03 -2.1,-0.02 h -2.09 l -2.1,0.05 -2.1,0.05 -2.09,0.04 -2.1,0.11 -2.1,0.13 -2.1,0.09 -2.09,0.15 -2.1,0.12 -2.1,0.18 -2.09,0.1 -2.1,0.17 -2.1,0.13 -2.1,0.15 -2.09,0.1 -2.1,0.1 -2.1,0.07 -2.09,0.07 -2.1,0.05 -2.1,0.01 -2.1,-0.02 -2.09,-0.02 -2.1,-0.09 -2.1,-0.09 -2.1,-0.19 -2.09,-0.22 -2.1,-0.25 -2.1,-0.25 -2.09,-0.3 -2.1,-0.28 -2.1,-0.35 -2.1,-0.42 -2.09,-0.42 -2.1,-0.44 -2.1,-0.45 -2.09,-0.44 -2.1,-0.44 -2.1,-0.49 -2.1,-0.48 -2.09,-0.5 -2.1,-0.45 -2.1,-0.46 -2.09,-0.44 -2.1,-0.42 -2.1,-0.4 -2.1,-0.37 -2.09,-0.36 -2.1,-0.37 -2.1,-0.33 -2.09,-0.31 -2.1,-0.29 -2.1,-0.28 -2.1,-0.24 -2.09,-0.22 -2.1,-0.22 -2.1,-0.2 -2.09,-0.19 -2.1,-0.17 -2.1,-0.16 -2.1,-0.15 -2.09,-0.14 -2.1,-0.1 -2.1,-0.1 -2.09,-0.11 -2.1,-0.08 -2.1,-0.07 -2.1,-0.07 -2.09,-0.06 -2.1,-0.05 -2.1,-0.06 -2.09,-0.05 -2.1,-0.04 -2.1,-0.03 -2.1,-0.03 -2.09,-0.03 -2.1,-0.02 -2.1,-0.02 -2.09,-0.02 -2.1,-0.01 -2.1,-0.01 -2.1,-0.01 -2.09,-0.01 -2.1,-0.02 -2.1,-0.01 -2.1,-0.01 -2.09,-0.01 -2.1,-0.01 -2.1,-0.02 -2.09,-0.01 -2.1,-0.01 -2.1,-0.01 -2.1,-0.02 -2.09,-0.01 -2.1,-0.03 -2.1,-0.01 -2.09,-0.01 -2.1,-0.02 -2.1,-0.02 -2.1,-0.01 -2.09,-0.03 -2.1,-0.02 -2.1,-0.02 -2.09,-0.02 -2.1,-0.02 -2.1,-0.02 -2.1,-0.02 -2.09,-0.03 -2.1,-0.01 -2.1,-0.02 -2.09,-0.02 -2.1,-0.01 -2.1,-0.02 -2.1,-0.02 -2.09,-0.02 -2.1,-0.01 -2.1,-0.02 h -2.09 l -2.1,-0.02 -2.1,-0.02 -2.1,-0.02 -2.09,-0.01 -2.1,-0.02 -2.1,-0.01 -2.09,-0.02 -2.1,-0.01 -2.1,-0.02 -2.1,-0.01 -2.09,-0.02 -2.1,-0.01 -2.1,-0.02 -2.09,-0.01 -2.1,-0.01 -2.1,-0.02 -2.1,-0.02 -2.09,-0.01 -2.1,-0.02 -2.1,-0.01 -2.09,-0.02 -2.1,-0.01 -2.1,-0.02 -2.1,-0.02 -2.09,-0.01 -2.1,-0.02 -2.1,-0.02 -2.1,-0.02 -2.09,-0.02 -2.1,-0.02 -2.1,-0.02 -2.09,-0.03 -2.1,-0.02 -2.1,-0.02 -2.1,-0.03 -2.09,-0.02 z" /><path
           id="path334"
           style="fill:none;stroke:#e76bf3;stroke-width:1.07000005;stroke-linecap:butt;stroke-linejoin:round;stroke-miterlimit:10;stroke-dasharray:none;stroke-opacity:1"
           d="m 59.57,36.35 2.09,0.01 2.1,0.02 2.1,0.01 2.1,0.02 2.09,0.01 2.1,0.01 2.1,0.01 2.09,0.02 2.1,0.01 2.1,0.01 2.1,0.01 2.09,0.02 2.1,0.01 2.1,0.01 2.1,0.02 2.09,0.01 2.1,0.01 2.1,0.01 2.09,0.02 2.1,0.01 2.1,0.02 2.1,0.01 2.09,0.01 2.1,0.01 2.1,0.02 2.09,0.02 2.1,0.01 2.1,0.02 2.1,0.02 2.09,0.02 2.1,0.02 2.1,0.01 2.09,0.02 2.1,0.02 2.1,0.02 2.1,0.02 2.09,0.02 2.1,0.03 2.1,0.02 2.09,0.02 2.1,0.02 2.1,0.02 2.1,0.03 2.09,0.03 2.1,0.02 2.1,0.03 2.09,0.02 2.1,0.03 2.1,0.03 2.1,0.03 2.09,0.02 2.1,0.03 2.1,0.03 2.09,0.03 2.1,0.02 2.1,0.03 2.1,0.03 2.09,0.03 2.1,0.03 2.1,0.03 2.09,0.02 2.1,0.02 2.1,0.03 2.1,0.02 2.09,0.02 2.1,0.03 2.1,0.02 2.09,0.03 2.1,0.02 2.1,0.03 2.1,0.03 2.09,0.03 2.1,0.04 2.1,0.03 2.1,0.04 2.09,0.04 2.1,0.05 2.1,0.05 2.09,0.06 2.1,0.06 2.1,0.07 2.1,0.07 2.09,0.08 2.1,0.09 2.1,0.1 2.09,0.1 2.1,0.11 2.1,0.12 2.1,0.13 2.09,0.14 2.1,0.16 2.1,0.17 2.09,0.18 2.1,0.19 2.1,0.22 2.1,0.22 2.09,0.24 2.1,0.26 2.1,0.28 2.09,0.3 2.1,0.31 2.1,0.33 2.1,0.36 2.09,0.37 2.1,0.41 2.1,0.4 2.09,0.42 2.1,0.45 2.1,0.46 2.1,0.5 2.09,0.51 2.1,0.48 2.1,0.54 2.09,0.53 2.1,0.51 2.1,0.54 2.1,0.52 2.09,0.55 2.1,0.54 2.1,0.52 2.09,0.49 2.1,0.5 2.1,0.46 2.1,0.43 2.09,0.42 2.1,0.39 2.1,0.35 2.09,0.35 2.1,0.34 2.1,0.3 2.1,0.22 2.09,0.24 2.1,0.16 2.1,0.12 2.1,0.13 2.09,0.09 2.1,0.08 2.1,0.06 2.09,0.04 2.1,0.01 h 2.1 2.1 l 2.09,-0.01 2.1,-0.01 2.1,-0.04 2.09,-0.04 2.1,-0.03 2.1,-0.01 2.1,-0.02 2.09,-0.03 2.1,0.03 2.1,0.05 2.09,0.06 2.1,0.05 2.1,0.11 2.1,0.11 2.09,0.09 2.1,0.08 2.1,0.12 2.09,0.14 2.1,0.17 2.1,0.17 2.1,0.23 2.09,0.26 2.1,0.27 2.1,0.27 2.09,0.3 2.1,0.3 2.1,0.33 2.1,0.32 2.09,0.33 2.1,0.34 2.1,0.33 2.09,0.3 2.1,0.35 2.1,0.34 2.1,0.36 2.09,0.31 2.1,0.32 2.1,0.28 2.09,0.32 2.1,0.31 2.1,0.28 2.1,0.23 2.09,0.26 2.1,0.26 2.1,0.23 2.09,0.18 2.1,0.19 2.1,0.15 2.1,0.18 2.09,0.11 2.1,0.09 2.1,0.15 2.1,0.14 2.09,0.13 2.1,0.13 2.1,0.11 2.09,0.14" /><path
           id="path336"
           style="fill:none;stroke:#333333;stroke-width:1.07000005;stroke-linecap:round;stroke-linejoin:round;stroke-miterlimit:10;stroke-dasharray:none;stroke-opacity:1"
           d="M 38.7,32.79 H 497.77 V 95.78 H 38.7 Z" /></g></g><g
       id="g338" /><g
       id="g340"><g
         clip-path="url(#clipPath346)"
         id="g342" /></g><g
       id="g348"><g
         clip-path="url(#clipPath354)"
         id="g350"><path
           id="path356"
           style="fill:#d9d9d9;fill-opacity:1;fill-rule:nonzero;stroke:#333333;stroke-width:1.07000005;stroke-linecap:round;stroke-linejoin:round;stroke-miterlimit:10;stroke-dasharray:none;stroke-opacity:1"
           d="m 38.7,95.78 h 459.07 v 17.87 H 38.7 Z" /><text
           id="text360"
           style="font-variant:normal;font-weight:normal;font-size:9px;font-family:Helvetica;-inkscape-font-specification:Helvetica;writing-mode:lr-tb;fill:#1a1a1a;fill-opacity:1;fill-rule:nonzero;stroke:none"
           transform="matrix(1,0,0,-1,243.36,101.49)"><tspan
             id="tspan358"
             y="0"
             x="0 6.0029998 11.007 16.011 21.014999 26.018999 30.753 35.252998 37.755001 39.752998 44.757">Pheophytinb</tspan></text>
</g></g><g
       id="g362"><g
         clip-path="url(#clipPath368)"
         id="g364" /></g><g
       id="g370"><g
         clip-path="url(#clipPath376)"
         id="g372" /></g><g
       id="g378" /><g
       id="g380"><g
         clip-path="url(#clipPath386)"
         id="g382" /></g><g
       id="g388"><g
         clip-path="url(#clipPath394)"
         id="g390"><path
           id="path396"
           style="fill:#d9d9d9;fill-opacity:1;fill-rule:nonzero;stroke:#333333;stroke-width:1.07000005;stroke-linecap:round;stroke-linejoin:round;stroke-miterlimit:10;stroke-dasharray:none;stroke-opacity:1"
           d="m 38.7,182.12 h 459.07 v 17.87 H 38.7 Z" /><text
           id="text400"
           style="font-variant:normal;font-weight:normal;font-size:9px;font-family:Helvetica;-inkscape-font-specification:Helvetica;writing-mode:lr-tb;fill:#1a1a1a;fill-opacity:1;fill-rule:nonzero;stroke:none"
           transform="matrix(1,0,0,-1,233.72,187.83)"><tspan
             id="tspan398"
             y="0"
             x="0 5.0040002 10.008 12.51 17.514 19.511999 24.516001 30.014999 35.019001 40.022999 44.522999 49.527 54.530998 57.033001 62.036999 64.035004">LuteinZeaxanthin</tspan></text>
</g></g><g
       id="g402"><g
         clip-path="url(#clipPath408)"
         id="g404" /></g><g
       id="g410"><g
         clip-path="url(#clipPath416)"
         id="g412" /></g><g
       id="g418" /><g
       id="g420"><g
         clip-path="url(#clipPath426)"
         id="g422" /></g><g
       id="g428"><g
         clip-path="url(#clipPath434)"
         id="g430"><path
           id="path436"
           style="fill:#d9d9d9;fill-opacity:1;fill-rule:nonzero;stroke:#333333;stroke-width:1.07000005;stroke-linecap:round;stroke-linejoin:round;stroke-miterlimit:10;stroke-dasharray:none;stroke-opacity:1"
           d="m 38.7,268.46 h 459.07 v 17.87 H 38.7 Z" /><text
           id="text440"
           style="font-variant:normal;font-weight:normal;font-size:9px;font-family:Helvetica;-inkscape-font-specification:Helvetica;writing-mode:lr-tb;fill:#1a1a1a;fill-opacity:1;fill-rule:nonzero;stroke:none"
           transform="matrix(1,0,0,-1,243.86,274.17)"><tspan
             id="tspan438"
             y="0"
             x="0 5.4990001 10.503 15.003 19.737 24.237 29.240999 34.244999 36.747002 41.750999 43.749001">Fucoxanthin</tspan></text>
</g></g><g
       id="g442"><g
         clip-path="url(#clipPath448)"
         id="g444" /></g><g
       id="g450"><g
         clip-path="url(#clipPath456)"
         id="g452" /></g><g
       id="g458" /><g
       id="g460"><g
         clip-path="url(#clipPath466)"
         id="g462" /></g><g
       id="g468"><g
         clip-path="url(#clipPath474)"
         id="g470"><path
           id="path476"
           style="fill:#d9d9d9;fill-opacity:1;fill-rule:nonzero;stroke:#333333;stroke-width:1.07000005;stroke-linecap:round;stroke-linejoin:round;stroke-miterlimit:10;stroke-dasharray:none;stroke-opacity:1"
           d="m 38.7,354.8 h 459.07 v 17.87 H 38.7 Z" /><text
           id="text480"
           style="font-variant:normal;font-weight:normal;font-size:9px;font-family:Helvetica;-inkscape-font-specification:Helvetica;writing-mode:lr-tb;fill:#1a1a1a;fill-opacity:1;fill-rule:nonzero;stroke:none"
           transform="matrix(1,0,0,-1,240.47,360.51)"><tspan
             id="tspan478"
             y="0"
             x="0 6.0029998 11.007 13.509 18.513 25.011 30.014999 33.012001 38.015999 40.518002 45.521999 50.526001">BetaCarotene</tspan></text>
</g></g><g
       id="g482"><g
         clip-path="url(#clipPath488)"
         id="g484" /></g><g
       id="g490"><g
         clip-path="url(#clipPath496)"
         id="g492" /></g><g
       id="g498" /><g
       id="g500"><g
         clip-path="url(#clipPath506)"
         id="g502" /></g><g
       id="g508"><g
         clip-path="url(#clipPath514)"
         id="g510"><path
           id="path516"
           style="fill:#d9d9d9;fill-opacity:1;fill-rule:nonzero;stroke:#333333;stroke-width:1.07000005;stroke-linecap:round;stroke-linejoin:round;stroke-miterlimit:10;stroke-dasharray:none;stroke-opacity:1"
           d="m 38.7,441.14 h 459.07 v 17.87 H 38.7 Z" /><text
           id="text520"
           style="font-variant:normal;font-weight:normal;font-size:9px;font-family:Helvetica;-inkscape-font-specification:Helvetica;writing-mode:lr-tb;fill:#1a1a1a;fill-opacity:1;fill-rule:nonzero;stroke:none"
           transform="matrix(1,0,0,-1,246.36,446.85)"><tspan
             id="tspan518"
             y="0"
             x="0 6.0029998 8.0010004 9.9989996 14.733 19.233 24.237 29.240999 31.743 36.747002 38.744999">Alloxanthin</tspan></text>
</g></g><g
       id="g522"><g
         clip-path="url(#clipPath528)"
         id="g524" /></g><g
       id="g530"><g
         clip-path="url(#clipPath536)"
         id="g532" /></g><g
       id="g538" /><g
       id="g540" /><g
       id="g542" /><g
       id="g544" /><g
       id="g546" /><g
       id="g548" /><g
       id="g550" /><g
       id="g552" /><g
       id="g554" /><g
       id="g556" /><g
       id="g558" /><g
       id="g560" /><g
       id="g562" /><g
       id="g564" /><g
       id="g566" /><g
       id="g568"><path
         id="path570"
         style="fill:none;stroke:#333333;stroke-width:1.07000005;stroke-linecap:butt;stroke-linejoin:round;stroke-miterlimit:10;stroke-dasharray:none;stroke-opacity:1"
         d="m 121.72,30.05 v 2.74" /><path
         id="path572"
         style="fill:none;stroke:#333333;stroke-width:1.07000005;stroke-linecap:butt;stroke-linejoin:round;stroke-miterlimit:10;stroke-dasharray:none;stroke-opacity:1"
         d="m 210.52,30.05 v 2.74" /><path
         id="path574"
         style="fill:none;stroke:#333333;stroke-width:1.07000005;stroke-linecap:butt;stroke-linejoin:round;stroke-miterlimit:10;stroke-dasharray:none;stroke-opacity:1"
         d="m 299.31,30.05 v 2.74" /><path
         id="path576"
         style="fill:none;stroke:#333333;stroke-width:1.07000005;stroke-linecap:butt;stroke-linejoin:round;stroke-miterlimit:10;stroke-dasharray:none;stroke-opacity:1"
         d="m 388.11,30.05 v 2.74" /><path
         id="path578"
         style="fill:none;stroke:#333333;stroke-width:1.07000005;stroke-linecap:butt;stroke-linejoin:round;stroke-miterlimit:10;stroke-dasharray:none;stroke-opacity:1"
         d="m 476.9,30.05 v 2.74" /></g><g
       id="g580" /><g
       id="g582"><text
         id="text586"
         style="font-variant:normal;font-weight:normal;font-size:9px;font-family:Helvetica;-inkscape-font-specification:Helvetica;writing-mode:lr-tb;fill:#4d4d4d;fill-opacity:1;fill-rule:nonzero;stroke:none"
         transform="matrix(1,0,0,-1,111.72,21.4)"><tspan
           id="tspan584"
           y="0"
           x="0 5.0040002 10.008 15.012">1950</tspan></text>
<text
         id="text590"
         style="font-variant:normal;font-weight:normal;font-size:9px;font-family:Helvetica;-inkscape-font-specification:Helvetica;writing-mode:lr-tb;fill:#4d4d4d;fill-opacity:1;fill-rule:nonzero;stroke:none"
         transform="matrix(1,0,0,-1,200.51,21.4)"><tspan
           id="tspan588"
           y="0"
           x="0 5.0040002 10.008 15.012">1960</tspan></text>
<text
         id="text594"
         style="font-variant:normal;font-weight:normal;font-size:9px;font-family:Helvetica;-inkscape-font-specification:Helvetica;writing-mode:lr-tb;fill:#4d4d4d;fill-opacity:1;fill-rule:nonzero;stroke:none"
         transform="matrix(1,0,0,-1,289.31,21.4)"><tspan
           id="tspan592"
           y="0"
           x="0 5.0040002 10.008 15.012">1970</tspan></text>
<text
         id="text598"
         style="font-variant:normal;font-weight:normal;font-size:9px;font-family:Helvetica;-inkscape-font-specification:Helvetica;writing-mode:lr-tb;fill:#4d4d4d;fill-opacity:1;fill-rule:nonzero;stroke:none"
         transform="matrix(1,0,0,-1,378.1,21.4)"><tspan
           id="tspan596"
           y="0"
           x="0 5.0040002 10.008 15.012">1980</tspan></text>
<text
         id="text602"
         style="font-variant:normal;font-weight:normal;font-size:9px;font-family:Helvetica;-inkscape-font-specification:Helvetica;writing-mode:lr-tb;fill:#4d4d4d;fill-opacity:1;fill-rule:nonzero;stroke:none"
         transform="matrix(1,0,0,-1,466.9,21.4)"><tspan
           id="tspan600"
           y="0"
           x="0 5.0040002 10.008 15.012">1990</tspan></text>
</g><g
       id="g604" /><g
       id="g606" /><g
       id="g608" /><g
       id="g610" /><g
       id="g612" /><g
       id="g614" /><g
       id="g616" /><g
       id="g618" /><g
       id="g620" /><g
       id="g622" /><g
       id="g624" /><g
       id="g626" /><g
       id="g628" /><g
       id="g630" /><g
       id="g632" /><g
       id="g634"><text
         id="text638"
         style="font-variant:normal;font-weight:normal;font-size:9px;font-family:Helvetica;-inkscape-font-specification:Helvetica;writing-mode:lr-tb;fill:#4d4d4d;fill-opacity:1;fill-rule:nonzero;stroke:none"
         transform="matrix(1,0,0,-1,23.76,394.73)"><tspan
           id="tspan636"
           y="0"
           x="0 5.0040002">50</tspan></text>
<text
         id="text642"
         style="font-variant:normal;font-weight:normal;font-size:9px;font-family:Helvetica;-inkscape-font-specification:Helvetica;writing-mode:lr-tb;fill:#4d4d4d;fill-opacity:1;fill-rule:nonzero;stroke:none"
         transform="matrix(1,0,0,-1,18.76,416.9)"><tspan
           id="tspan640"
           y="0"
           x="0 5.0040002 10.008">100</tspan></text>
</g><g
       id="g644" /><g
       id="g646"><path
         id="path648"
         style="fill:none;stroke:#333333;stroke-width:1.07000005;stroke-linecap:butt;stroke-linejoin:round;stroke-miterlimit:10;stroke-dasharray:none;stroke-opacity:1"
         d="M 35.96,397.97 H 38.7" /><path
         id="path650"
         style="fill:none;stroke:#333333;stroke-width:1.07000005;stroke-linecap:butt;stroke-linejoin:round;stroke-miterlimit:10;stroke-dasharray:none;stroke-opacity:1"
         d="M 35.96,420.13 H 38.7" /></g><g
       id="g652" /><g
       id="g654" /><g
       id="g656" /><g
       id="g658" /><g
       id="g660" /><g
       id="g662" /><g
       id="g664" /><g
       id="g666"><text
         id="text670"
         style="font-variant:normal;font-weight:normal;font-size:9px;font-family:Helvetica;-inkscape-font-specification:Helvetica;writing-mode:lr-tb;fill:#4d4d4d;fill-opacity:1;fill-rule:nonzero;stroke:none"
         transform="matrix(1,0,0,-1,23.76,300.55)"><tspan
           id="tspan668"
           y="0"
           x="0 5.0040002">50</tspan></text>
<text
         id="text674"
         style="font-variant:normal;font-weight:normal;font-size:9px;font-family:Helvetica;-inkscape-font-specification:Helvetica;writing-mode:lr-tb;fill:#4d4d4d;fill-opacity:1;fill-rule:nonzero;stroke:none"
         transform="matrix(1,0,0,-1,18.76,315.49)"><tspan
           id="tspan672"
           y="0"
           x="0 5.0040002 10.008">100</tspan></text>
<text
         id="text678"
         style="font-variant:normal;font-weight:normal;font-size:9px;font-family:Helvetica;-inkscape-font-specification:Helvetica;writing-mode:lr-tb;fill:#4d4d4d;fill-opacity:1;fill-rule:nonzero;stroke:none"
         transform="matrix(1,0,0,-1,18.76,330.42)"><tspan
           id="tspan676"
           y="0"
           x="0 5.0040002 10.008">150</tspan></text>
<text
         id="text682"
         style="font-variant:normal;font-weight:normal;font-size:9px;font-family:Helvetica;-inkscape-font-specification:Helvetica;writing-mode:lr-tb;fill:#4d4d4d;fill-opacity:1;fill-rule:nonzero;stroke:none"
         transform="matrix(1,0,0,-1,18.76,345.36)"><tspan
           id="tspan680"
           y="0"
           x="0 5.0040002 10.008">200</tspan></text>
</g><g
       id="g684" /><g
       id="g686"><path
         id="path688"
         style="fill:none;stroke:#333333;stroke-width:1.07000005;stroke-linecap:butt;stroke-linejoin:round;stroke-miterlimit:10;stroke-dasharray:none;stroke-opacity:1"
         d="M 35.96,303.78 H 38.7" /><path
         id="path690"
         style="fill:none;stroke:#333333;stroke-width:1.07000005;stroke-linecap:butt;stroke-linejoin:round;stroke-miterlimit:10;stroke-dasharray:none;stroke-opacity:1"
         d="M 35.96,318.72 H 38.7" /><path
         id="path692"
         style="fill:none;stroke:#333333;stroke-width:1.07000005;stroke-linecap:butt;stroke-linejoin:round;stroke-miterlimit:10;stroke-dasharray:none;stroke-opacity:1"
         d="M 35.96,333.65 H 38.7" /><path
         id="path694"
         style="fill:none;stroke:#333333;stroke-width:1.07000005;stroke-linecap:butt;stroke-linejoin:round;stroke-miterlimit:10;stroke-dasharray:none;stroke-opacity:1"
         d="M 35.96,348.59 H 38.7" /></g><g
       id="g696" /><g
       id="g698" /><g
       id="g700" /><g
       id="g702" /><g
       id="g704" /><g
       id="g706" /><g
       id="g708" /><g
       id="g710"><text
         id="text714"
         style="font-variant:normal;font-weight:normal;font-size:9px;font-family:Helvetica;-inkscape-font-specification:Helvetica;writing-mode:lr-tb;fill:#4d4d4d;fill-opacity:1;fill-rule:nonzero;stroke:none"
         transform="matrix(1,0,0,-1,23.76,215.2)"><tspan
           id="tspan712"
           y="0"
           x="0 5.0040002">10</tspan></text>
<text
         id="text718"
         style="font-variant:normal;font-weight:normal;font-size:9px;font-family:Helvetica;-inkscape-font-specification:Helvetica;writing-mode:lr-tb;fill:#4d4d4d;fill-opacity:1;fill-rule:nonzero;stroke:none"
         transform="matrix(1,0,0,-1,23.76,230.48)"><tspan
           id="tspan716"
           y="0"
           x="0 5.0040002">20</tspan></text>
<text
         id="text722"
         style="font-variant:normal;font-weight:normal;font-size:9px;font-family:Helvetica;-inkscape-font-specification:Helvetica;writing-mode:lr-tb;fill:#4d4d4d;fill-opacity:1;fill-rule:nonzero;stroke:none"
         transform="matrix(1,0,0,-1,23.76,245.76)"><tspan
           id="tspan720"
           y="0"
           x="0 5.0040002">30</tspan></text>
<text
         id="text726"
         style="font-variant:normal;font-weight:normal;font-size:9px;font-family:Helvetica;-inkscape-font-specification:Helvetica;writing-mode:lr-tb;fill:#4d4d4d;fill-opacity:1;fill-rule:nonzero;stroke:none"
         transform="matrix(1,0,0,-1,23.76,261.04)"><tspan
           id="tspan724"
           y="0"
           x="0 5.0040002">40</tspan></text>
</g><g
       id="g728" /><g
       id="g730"><path
         id="path732"
         style="fill:none;stroke:#333333;stroke-width:1.07000005;stroke-linecap:butt;stroke-linejoin:round;stroke-miterlimit:10;stroke-dasharray:none;stroke-opacity:1"
         d="M 35.96,218.43 H 38.7" /><path
         id="path734"
         style="fill:none;stroke:#333333;stroke-width:1.07000005;stroke-linecap:butt;stroke-linejoin:round;stroke-miterlimit:10;stroke-dasharray:none;stroke-opacity:1"
         d="M 35.96,233.71 H 38.7" /><path
         id="path736"
         style="fill:none;stroke:#333333;stroke-width:1.07000005;stroke-linecap:butt;stroke-linejoin:round;stroke-miterlimit:10;stroke-dasharray:none;stroke-opacity:1"
         d="M 35.96,248.99 H 38.7" /><path
         id="path738"
         style="fill:none;stroke:#333333;stroke-width:1.07000005;stroke-linecap:butt;stroke-linejoin:round;stroke-miterlimit:10;stroke-dasharray:none;stroke-opacity:1"
         d="M 35.96,264.27 H 38.7" /></g><g
       id="g740" /><g
       id="g742" /><g
       id="g744" /><g
       id="g746" /><g
       id="g748" /><g
       id="g750" /><g
       id="g752" /><g
       id="g754"><text
         id="text758"
         style="font-variant:normal;font-weight:normal;font-size:9px;font-family:Helvetica;-inkscape-font-specification:Helvetica;writing-mode:lr-tb;fill:#4d4d4d;fill-opacity:1;fill-rule:nonzero;stroke:none"
         transform="matrix(1,0,0,-1,28.77,117.8)"><tspan
           id="tspan756"
           y="0"
           x="0">0</tspan></text>
<text
         id="text762"
         style="font-variant:normal;font-weight:normal;font-size:9px;font-family:Helvetica;-inkscape-font-specification:Helvetica;writing-mode:lr-tb;fill:#4d4d4d;fill-opacity:1;fill-rule:nonzero;stroke:none"
         transform="matrix(1,0,0,-1,18.76,138.69)"><tspan
           id="tspan760"
           y="0"
           x="0 5.0040002 10.008">200</tspan></text>
<text
         id="text766"
         style="font-variant:normal;font-weight:normal;font-size:9px;font-family:Helvetica;-inkscape-font-specification:Helvetica;writing-mode:lr-tb;fill:#4d4d4d;fill-opacity:1;fill-rule:nonzero;stroke:none"
         transform="matrix(1,0,0,-1,18.76,159.57)"><tspan
           id="tspan764"
           y="0"
           x="0 5.0040002 10.008">400</tspan></text>
</g><g
       id="g768" /><g
       id="g770"><path
         id="path772"
         style="fill:none;stroke:#333333;stroke-width:1.07000005;stroke-linecap:butt;stroke-linejoin:round;stroke-miterlimit:10;stroke-dasharray:none;stroke-opacity:1"
         d="M 35.96,121.04 H 38.7" /><path
         id="path774"
         style="fill:none;stroke:#333333;stroke-width:1.07000005;stroke-linecap:butt;stroke-linejoin:round;stroke-miterlimit:10;stroke-dasharray:none;stroke-opacity:1"
         d="M 35.96,141.92 H 38.7" /><path
         id="path776"
         style="fill:none;stroke:#333333;stroke-width:1.07000005;stroke-linecap:butt;stroke-linejoin:round;stroke-miterlimit:10;stroke-dasharray:none;stroke-opacity:1"
         d="M 35.96,162.81 H 38.7" /></g><g
       id="g778" /><g
       id="g780" /><g
       id="g782" /><g
       id="g784" /><g
       id="g786" /><g
       id="g788" /><g
       id="g790" /><g
       id="g792"><text
         id="text796"
         style="font-variant:normal;font-weight:normal;font-size:9px;font-family:Helvetica;-inkscape-font-specification:Helvetica;writing-mode:lr-tb;fill:#4d4d4d;fill-opacity:1;fill-rule:nonzero;stroke:none"
         transform="matrix(1,0,0,-1,28.77,31.13)"><tspan
           id="tspan794"
           y="0"
           x="0">0</tspan></text>
<text
         id="text800"
         style="font-variant:normal;font-weight:normal;font-size:9px;font-family:Helvetica;-inkscape-font-specification:Helvetica;writing-mode:lr-tb;fill:#4d4d4d;fill-opacity:1;fill-rule:nonzero;stroke:none"
         transform="matrix(1,0,0,-1,23.76,53.91)"><tspan
           id="tspan798"
           y="0"
           x="0 5.0040002">50</tspan></text>
<text
         id="text804"
         style="font-variant:normal;font-weight:normal;font-size:9px;font-family:Helvetica;-inkscape-font-specification:Helvetica;writing-mode:lr-tb;fill:#4d4d4d;fill-opacity:1;fill-rule:nonzero;stroke:none"
         transform="matrix(1,0,0,-1,18.76,76.69)"><tspan
           id="tspan802"
           y="0"
           x="0 5.0040002 10.008">100</tspan></text>
</g><g
       id="g806" /><g
       id="g808"><path
         id="path810"
         style="fill:none;stroke:#333333;stroke-width:1.07000005;stroke-linecap:butt;stroke-linejoin:round;stroke-miterlimit:10;stroke-dasharray:none;stroke-opacity:1"
         d="M 35.96,34.36 H 38.7" /><path
         id="path812"
         style="fill:none;stroke:#333333;stroke-width:1.07000005;stroke-linecap:butt;stroke-linejoin:round;stroke-miterlimit:10;stroke-dasharray:none;stroke-opacity:1"
         d="M 35.96,57.14 H 38.7" /><path
         id="path814"
         style="fill:none;stroke:#333333;stroke-width:1.07000005;stroke-linecap:butt;stroke-linejoin:round;stroke-miterlimit:10;stroke-dasharray:none;stroke-opacity:1"
         d="M 35.96,79.92 H 38.7" /></g><g
       id="g816" /><g
       id="g818" /><g
       id="g820" /><g
       id="g822" /><g
       id="g824" /><g
       id="g826" /><g
       id="g828" /><g
       id="g830" /><g
       id="g832" /><g
       id="g834" /><g
       id="g836" /><g
       id="g838" /><g
       id="g840" /><g
       id="g842" /><g
       id="g844" /><g
       id="g846"><text
         id="text850"
         style="font-variant:normal;font-weight:normal;font-size:11px;font-family:Helvetica;-inkscape-font-specification:Helvetica;writing-mode:lr-tb;fill:#000000;fill-opacity:1;fill-rule:nonzero;stroke:none"
         transform="matrix(1,0,0,-1,257.39,8.12)"><tspan
           id="tspan848"
           y="0"
           x="0 5.7969999 11.913 18.028999">Year</tspan></text>
</g><g
       id="g852" /><g
       id="g854"><text
         id="text858"
         style="font-variant:normal;font-weight:normal;font-size:11px;font-family:Helvetica;-inkscape-font-specification:Helvetica;writing-mode:lr-tb;fill:#000000;fill-opacity:1;fill-rule:nonzero;stroke:none"
         transform="matrix(0,1,1,0,13.38,176.91)"><tspan
           id="tspan856"
           y="0"
           x="0 7.3369999 12.837 15.895 18.337 27.5 33.616001 36.674 42.790001 48.905998 51.964001 59.300999 62.359001 68.474998 71.532997 74.591003 82.532997 88.319 93.819 96.261002 102.377 105.435 107.877 113.993">Estimated Std. Deviation</tspan></text>
</g><g
       id="g860" /><g
       id="g862" /><g
       id="g864" /><g
       id="g866" /><g
       id="g868" /><g
       id="g870" /><g
       id="g872" /><g
       id="g874"><path
         id="path876"
         style="fill:#ffffff;fill-opacity:1;fill-rule:nonzero;stroke:none"
         d="M 38.57,469.97 H 497.9 v 28.24 H 38.57 Z" /></g><g
       id="g878" /><g
       id="g880" /><g
       id="g882" /><g
       id="g884"><text
         id="text888"
         style="font-variant:normal;font-weight:normal;font-size:11px;font-family:Helvetica;-inkscape-font-specification:Helvetica;writing-mode:lr-tb;fill:#000000;fill-opacity:1;fill-rule:nonzero;stroke:none"
         transform="matrix(1,0,0,-1,44.05,480.14)"><tspan
           id="tspan886"
           y="0"
           x="0 7.3369999 9.7790003 15.895 25.058001 31.174 37.290001">Pigment</tspan></text>
</g><g
       id="g890" /><g
       id="g892" /><g
       id="g894"><path
         id="path896"
         style="fill:#ffffff;fill-opacity:1;fill-rule:nonzero;stroke:none"
         d="m 89.88,475.45 h 17.28 v 17.28 H 89.88 Z" /></g><g
       id="g898" /><g
       id="g900"><path
         id="path902"
         style="fill:#f8766d;fill-opacity:0.2;fill-rule:nonzero;stroke:none"
         d="m 90.58,476.16 h 15.86 v 15.86 H 90.58 Z" /></g><g
       id="g904" /><g
       id="g906"><path
         id="path908"
         style="fill:none;stroke:#f8766d;stroke-width:1.07000005;stroke-linecap:butt;stroke-linejoin:round;stroke-miterlimit:10;stroke-dasharray:none;stroke-opacity:1"
         d="m 91.6,484.09 h 13.83" /></g><g
       id="g910" /><g
       id="g912"><path
         id="path914"
         style="fill:#ffffff;fill-opacity:1;fill-rule:nonzero;stroke:none"
         d="m 161.86,475.45 h 17.28 v 17.28 h -17.28 z" /></g><g
       id="g916" /><g
       id="g918"><path
         id="path920"
         style="fill:#a3a500;fill-opacity:0.2;fill-rule:nonzero;stroke:none"
         d="m 162.57,476.16 h 15.86 v 15.86 h -15.86 z" /></g><g
       id="g922" /><g
       id="g924"><path
         id="path926"
         style="fill:none;stroke:#a3a500;stroke-width:1.07000005;stroke-linecap:butt;stroke-linejoin:round;stroke-miterlimit:10;stroke-dasharray:none;stroke-opacity:1"
         d="m 163.59,484.09 h 13.83" /></g><g
       id="g928" /><g
       id="g930"><path
         id="path932"
         style="fill:#ffffff;fill-opacity:1;fill-rule:nonzero;stroke:none"
         d="m 245.63,475.45 h 17.28 v 17.28 h -17.28 z" /></g><g
       id="g934" /><g
       id="g936"><path
         id="path938"
         style="fill:#00bf7d;fill-opacity:0.2;fill-rule:nonzero;stroke:none"
         d="m 246.34,476.16 h 15.86 v 15.86 h -15.86 z" /></g><g
       id="g940" /><g
       id="g942"><path
         id="path944"
         style="fill:none;stroke:#00bf7d;stroke-width:1.07000005;stroke-linecap:butt;stroke-linejoin:round;stroke-miterlimit:10;stroke-dasharray:none;stroke-opacity:1"
         d="m 247.36,484.09 h 13.82" /></g><g
       id="g946" /><g
       id="g948"><path
         id="path950"
         style="fill:#ffffff;fill-opacity:1;fill-rule:nonzero;stroke:none"
         d="m 322.62,475.45 h 17.28 v 17.28 h -17.28 z" /></g><g
       id="g952" /><g
       id="g954"><path
         id="path956"
         style="fill:#00b0f6;fill-opacity:0.2;fill-rule:nonzero;stroke:none"
         d="m 323.33,476.16 h 15.86 v 15.86 h -15.86 z" /></g><g
       id="g958" /><g
       id="g960"><path
         id="path962"
         style="fill:none;stroke:#00b0f6;stroke-width:1.07000005;stroke-linecap:butt;stroke-linejoin:round;stroke-miterlimit:10;stroke-dasharray:none;stroke-opacity:1"
         d="m 324.35,484.09 h 13.83" /></g><g
       id="g964" /><g
       id="g966"><path
         id="path968"
         style="fill:#ffffff;fill-opacity:1;fill-rule:nonzero;stroke:none"
         d="m 419.9,475.45 h 17.28 v 17.28 H 419.9 Z" /></g><g
       id="g970" /><g
       id="g972"><path
         id="path974"
         style="fill:#e76bf3;fill-opacity:0.2;fill-rule:nonzero;stroke:none"
         d="m 420.61,476.16 h 15.86 v 15.86 h -15.86 z" /></g><g
       id="g976" /><g
       id="g978"><path
         id="path980"
         style="fill:none;stroke:#e76bf3;stroke-width:1.07000005;stroke-linecap:butt;stroke-linejoin:round;stroke-miterlimit:10;stroke-dasharray:none;stroke-opacity:1"
         d="m 421.63,484.09 h 13.82" /></g><g
       id="g982" /><g
       id="g984" /><g
       id="g986" /><g
       id="g988"><text
         id="text992"
         style="font-variant:normal;font-weight:normal;font-size:9px;font-family:Helvetica;-inkscape-font-specification:Helvetica;writing-mode:lr-tb;fill:#000000;fill-opacity:1;fill-rule:nonzero;stroke:none"
         transform="matrix(1,0,0,-1,112.64,480.86)"><tspan
           id="tspan990"
           y="0"
           x="0 6.0029998 8.0010004 9.9989996 14.733 19.233 24.237 29.240999 31.743 36.747002 38.744999">Alloxanthin</tspan></text>
</g><g
       id="g994" /><g
       id="g996" /><g
       id="g998" /><g
       id="g1000" /><g
       id="g1002"><text
         id="text1006"
         style="font-variant:normal;font-weight:normal;font-size:9px;font-family:Helvetica;-inkscape-font-specification:Helvetica;writing-mode:lr-tb;fill:#000000;fill-opacity:1;fill-rule:nonzero;stroke:none"
         transform="matrix(1,0,0,-1,184.62,480.86)"><tspan
           id="tspan1004"
           y="0"
           x="0 6.0029998 11.007 13.509 18.513 25.011 30.014999 33.012001 38.015999 40.518002 45.521999 50.526001">BetaCarotene</tspan></text>
</g><g
       id="g1008" /><g
       id="g1010" /><g
       id="g1012" /><g
       id="g1014" /><g
       id="g1016"><text
         id="text1020"
         style="font-variant:normal;font-weight:normal;font-size:9px;font-family:Helvetica;-inkscape-font-specification:Helvetica;writing-mode:lr-tb;fill:#000000;fill-opacity:1;fill-rule:nonzero;stroke:none"
         transform="matrix(1,0,0,-1,268.39,480.86)"><tspan
           id="tspan1018"
           y="0"
           x="0 5.4990001 10.503 15.003 19.737 24.237 29.240999 34.244999 36.747002 41.750999 43.749001">Fucoxanthin</tspan></text>
</g><g
       id="g1022" /><g
       id="g1024" /><g
       id="g1026" /><g
       id="g1028" /><g
       id="g1030"><text
         id="text1034"
         style="font-variant:normal;font-weight:normal;font-size:9px;font-family:Helvetica;-inkscape-font-specification:Helvetica;writing-mode:lr-tb;fill:#000000;fill-opacity:1;fill-rule:nonzero;stroke:none"
         transform="matrix(1,0,0,-1,345.38,480.86)"><tspan
           id="tspan1032"
           y="0"
           x="0 5.0040002 10.008 12.51 17.514 19.511999 24.516001 30.014999 35.019001 40.022999 44.522999 49.527 54.530998 57.033001 62.036999 64.035004">LuteinZeaxanthin</tspan></text>
</g><g
       id="g1036" /><g
       id="g1038" /><g
       id="g1040" /><g
       id="g1042" /><g
       id="g1044"><text
         id="text1048"
         style="font-variant:normal;font-weight:normal;font-size:9px;font-family:Helvetica;-inkscape-font-specification:Helvetica;writing-mode:lr-tb;fill:#000000;fill-opacity:1;fill-rule:nonzero;stroke:none"
         transform="matrix(1,0,0,-1,442.66,480.86)"><tspan
           id="tspan1046"
           y="0"
           x="0 6.0029998 11.007 16.011 21.014999 26.018999 30.753 35.252998 37.755001 39.752998 44.757">Pheophytinb</tspan></text>
</g><g
       id="g1050" /><g
       id="g1052" /><g
       id="g1054" /><g
       id="g1056" /><g
       id="g1058" /><g
       id="g1060" /><g
       id="g1062" /><g
       id="g1064" /><g
       id="g1066" /><g
       id="g1068" /><g
       id="g1070" /><g
       id="g1072" /><g
       id="g1074" /></g></svg>